<?xml version="1.0" standalone="no"?>
<!DOCTYPE svg PUBLIC "-//W3C//DTD SVG 20010904//EN"
 "http://www.w3.org/TR/2001/REC-SVG-20010904/DTD/svg10.dtd">
<svg version="1.0" xmlns="http://www.w3.org/2000/svg"
 width="1600.000000pt" height="1600.000000pt" viewBox="0 0 1600.000000 1600.000000"
 preserveAspectRatio="xMidYMid meet">

<g transform="translate(0.000000,1600.000000) scale(0.100000,-0.100000)"
fill="#000000" stroke="none">
<path d="M7955 10859 c-36 -21 -76 -63 -95 -99 -39 -77 -50 -231 -27 -387 l13
-81 -32 -4 c-17 -2 -62 0 -100 4 -186 20 -240 21 -290 4 -62 -20 -116 -65
-150 -122 -14 -24 -29 -44 -33 -44 -4 0 -43 13 -87 29 -100 36 -201 55 -264
49 -31 -3 -79 -20 -129 -47 -187 -96 -367 -156 -519 -171 -152 -16 -222 -60
-278 -178 l-29 -59 -69 -6 c-92 -8 -161 -43 -239 -121 -97 -98 -202 -292 -243
-449 -23 -91 -32 -102 -130 -176 -315 -237 -361 -580 -118 -875 101 -122 275
-249 516 -375 l137 -72 -25 -70 c-53 -156 -69 -262 -69 -444 0 -193 17 -276
79 -405 81 -165 199 -280 381 -371 l124 -62 73 5 c155 10 257 105 303 283 8
32 15 72 15 88 0 26 3 28 23 22 12 -4 76 -9 142 -12 136 -6 231 11 364 66 41
17 76 29 78 28 1 -2 10 -61 20 -132 18 -127 19 -131 55 -165 44 -44 143 -93
219 -110 33 -7 91 -11 138 -8 109 6 209 55 300 145 l63 63 56 -51 c143 -131
236 -179 356 -187 196 -12 354 81 416 245 17 44 22 79 22 145 0 85 0 88 21 83
203 -46 467 -45 672 4 22 6 41 8 44 5 2 -2 16 -32 31 -67 37 -87 90 -164 155
-226 104 -98 210 -126 371 -96 218 40 327 145 370 357 59 293 -104 803 -410
1278 l-55 85 29 23 c50 39 149 180 200 286 81 166 120 350 120 566 l0 105 53
66 c28 37 77 97 108 135 215 266 307 528 297 846 -3 132 -13 154 -84 196 -35
20 -49 23 -124 19 -217 -12 -552 -173 -789 -379 -46 -40 -89 -77 -96 -82 -8
-6 -32 3 -71 27 -133 80 -331 151 -494 178 -88 14 -252 6 -323 -15 l-47 -14
-52 72 c-151 209 -402 471 -536 560 -114 75 -176 100 -262 103 -44 2 -83 -1
-95 -8z m129 -114 c3 -8 11 -15 18 -15 9 0 8 3 -2 10 -30 19 1 9 65 -22 36
-17 79 -43 96 -59 16 -15 29 -24 29 -21 1 4 8 -2 18 -14 9 -11 25 -25 34 -30
36 -20 108 -96 102 -107 -4 -7 -4 -9 0 -5 10 8 55 -32 103 -89 26 -33 32 -47
24 -57 -8 -9 -7 -13 4 -13 8 0 12 4 9 9 -3 4 -1 8 5 8 17 0 83 -88 75 -101 -4
-7 -3 -9 4 -5 6 3 24 -10 41 -31 25 -30 28 -40 18 -52 -9 -11 -9 -13 0 -8 15
9 46 -24 84 -90 33 -57 56 -66 93 -38 28 21 56 20 30 -1 -18 -15 -18 -15 3 -5
12 6 23 16 25 21 2 6 29 13 61 16 64 5 64 5 46 -76 -5 -25 -11 -54 -13 -65
-18 -105 -30 -145 -38 -133 -5 8 -6 3 -2 -15 3 -15 1 -33 -5 -40 -6 -8 -13
-31 -16 -52 -5 -41 -25 -74 -22 -36 1 11 5 21 9 21 13 0 9 17 -5 23 -8 3 -12
-6 -12 -28 0 -19 3 -36 6 -40 12 -12 -25 -85 -40 -80 -10 4 -11 2 -3 -8 8 -10
4 -26 -18 -64 -16 -28 -35 -55 -41 -59 -8 -5 -9 -3 -4 7 5 8 4 11 -1 6 -5 -5
-9 -16 -9 -24 0 -9 -6 -18 -14 -21 -9 -3 -11 0 -6 8 5 8 4 11 -3 6 -6 -4 -8
-14 -5 -23 5 -13 2 -15 -11 -10 -10 4 -15 3 -11 -3 8 -13 -40 -31 -62 -23 -11
4 -14 3 -9 -5 5 -9 -15 -12 -77 -12 -47 0 -147 -7 -222 -15 -75 -8 -141 -13
-146 -9 -5 3 -17 0 -25 -7 -8 -6 -17 -9 -20 -6 -3 3 6 81 20 174 14 92 28 197
31 233 2 36 8 81 11 100 4 19 6 43 5 53 -1 10 4 17 13 17 24 0 30 2 45 17 7 8
20 12 28 9 8 -3 12 -2 9 3 -6 9 15 21 47 28 12 2 16 -1 11 -9 -4 -7 -3 -8 5
-4 6 4 9 12 5 17 -8 13 27 40 44 34 7 -3 11 -1 8 4 -3 4 6 14 20 22 34 18 54
59 54 109 0 42 -15 75 -68 153 -18 26 -31 51 -28 55 2 4 0 14 -6 22 -8 12 -9
12 -4 -2 8 -27 1 -22 -30 20 -15 20 -21 31 -12 24 13 -10 18 -10 24 -1 4 7 3
9 -3 6 -6 -4 -24 6 -39 22 -16 16 -51 51 -77 78 -26 27 -44 53 -40 57 4 5 0 6
-9 3 -11 -4 -21 0 -26 9 -12 21 -92 30 -122 14 -20 -11 -22 -10 -17 3 4 11 2
14 -9 10 -12 -4 -12 -8 -2 -21 8 -9 9 -17 3 -19 -6 -2 -9 -40 -8 -94 1 -66 -1
-89 -10 -85 -56 23 -87 28 -117 17 -41 -14 -49 -8 -43 30 3 23 1 29 -8 24 -9
-6 -11 3 -7 39 3 25 1 46 -3 46 -13 0 -8 121 6 145 6 11 10 32 9 48 -2 15 1
27 7 27 5 0 9 5 9 12 0 6 7 20 17 30 20 23 88 25 97 3z m271 -470 c83 -107
138 -193 131 -210 -2 -7 -42 -34 -88 -59 l-83 -45 -12 59 c-7 33 -24 84 -38
113 -22 47 -25 67 -25 162 l0 108 26 -24 c15 -13 54 -60 89 -104z m2442 20
c19 -14 21 -24 22 -137 1 -68 -2 -118 -6 -112 -5 7 -8 -13 -9 -45 -1 -31 -9
-83 -19 -116 -10 -33 -19 -62 -20 -65 -15 -54 -29 -92 -45 -120 -10 -19 -24
-47 -31 -62 -6 -16 -15 -26 -19 -23 -5 3 -11 1 -15 -5 -3 -5 -1 -10 5 -10 6 0
2 -13 -10 -30 -12 -16 -28 -30 -37 -30 -9 0 -13 -6 -9 -15 8 -21 -3 -45 -22
-45 -8 0 -12 -3 -9 -6 4 -4 -2 -14 -12 -23 -10 -9 -30 -35 -45 -58 -14 -24
-29 -43 -32 -43 -4 0 -3 6 2 13 5 7 2 4 -6 -6 -8 -11 -26 -31 -40 -45 -14 -14
-18 -22 -10 -17 13 7 1 -10 -43 -60 -6 -6 -7 -1 -3 12 4 12 3 24 -2 27 -5 3
-8 -9 -7 -27 2 -18 -2 -41 -8 -52 -6 -11 -10 -27 -9 -35 1 -10 -1 -11 -4 -2
-3 6 -10 10 -15 7 -5 -3 -19 0 -31 6 -13 7 -30 14 -38 14 -8 1 -35 8 -60 15
-25 7 -53 12 -62 11 -9 -1 -30 5 -47 13 -33 17 -55 22 -31 6 10 -6 -28 -9
-110 -9 -69 -1 -138 -3 -155 -6 -16 -2 -61 -9 -100 -15 -38 -5 -83 -12 -100
-15 -16 -3 -60 -8 -97 -11 -58 -5 -72 -3 -102 16 -38 23 -73 65 -74 90 0 8 -6
33 -11 55 -16 61 10 366 29 336 4 -7 7 8 6 34 -1 44 16 71 36 59 4 -3 5 2 1
11 -5 13 -8 14 -15 3 -15 -22 3 43 25 92 11 25 22 54 24 65 2 11 8 21 13 23 5
2 7 9 4 16 -3 8 2 16 10 19 9 4 16 3 16 -1 0 -4 8 -8 18 -9 9 -1 49 -16 89
-34 55 -24 70 -35 65 -48 -5 -13 -3 -14 9 -4 13 10 29 5 90 -32 41 -24 85 -55
99 -67 14 -13 19 -18 10 -13 -13 9 -13 8 -1 -7 7 -10 17 -15 23 -12 5 3 15 1
23 -6 10 -9 20 -7 39 5 24 16 38 34 16 20 -6 -3 -7 1 -4 9 3 9 10 14 14 11 9
-6 37 26 36 41 -1 7 -12 21 -26 32 l-24 19 29 26 c17 15 38 29 48 32 9 4 15
10 12 15 -3 5 0 12 6 16 7 4 9 3 6 -3 -4 -6 0 -13 8 -17 17 -6 30 10 15 19
-15 9 -4 22 43 52 23 14 44 29 47 32 12 16 73 53 65 40 -4 -7 3 -5 16 7 37 32
124 84 140 84 8 0 23 6 34 14 33 22 204 78 216 70 7 -4 9 -3 5 4 -4 7 7 12 31
15 81 8 109 6 130 -8z m-2745 -84 c-1 -7 4 -11 11 -9 18 4 80 -68 71 -83 -4
-7 -3 -9 4 -5 6 3 16 -3 22 -14 6 -11 8 -20 5 -20 -3 0 3 -12 12 -27 14 -21
18 -48 18 -123 0 -52 -3 -120 -7 -150 -4 -30 -10 -80 -13 -110 -4 -30 -11 -82
-17 -115 -5 -33 -12 -84 -15 -113 -3 -30 -8 -49 -12 -44 -3 6 -6 -21 -7 -60 0
-57 -4 -72 -18 -80 -13 -7 -15 -13 -7 -17 18 -12 2 -39 -19 -34 -22 6 -31 35
-18 54 8 11 9 10 4 -3 -3 -10 -1 -20 3 -22 5 -3 8 5 7 17 -1 14 -7 21 -17 20
-17 -3 -104 166 -104 202 0 11 -5 19 -12 18 -16 -3 -36 34 -27 49 4 6 3 8 -3
5 -10 -6 -73 84 -73 103 0 5 -5 12 -12 16 -7 5 -9 2 -4 -7 4 -8 -2 -3 -13 11
-11 14 -19 30 -16 37 2 7 0 15 -6 19 -6 3 -8 13 -4 22 3 9 3 13 -1 9 -4 -4
-14 -1 -22 6 -13 10 -14 9 -7 -3 4 -8 15 -23 23 -32 32 -37 4 -16 -43 33 -28
29 -45 49 -40 46 6 -3 11 3 11 13 0 13 -4 16 -12 9 -13 -11 -39 15 -30 30 4 5
2 13 -4 16 -6 4 -9 3 -8 -2 2 -4 -1 -8 -7 -8 -5 0 -9 3 -7 8 1 4 -1 6 -5 6
-20 -3 -23 3 -12 24 6 12 8 19 4 15 -5 -4 -15 -2 -24 5 -14 11 -14 10 -2 -5 9
-12 10 -18 2 -18 -6 0 -16 11 -21 25 -5 14 -17 25 -26 25 -10 0 -42 19 -73 42
-31 23 -58 43 -60 45 -2 1 2 9 8 17 7 8 8 17 3 20 -13 7 -34 -18 -24 -29 7 -8
-21 6 -46 23 -27 18 44 112 71 95 6 -3 7 -1 3 5 -4 7 -1 12 8 12 9 0 16 5 16
10 0 13 115 12 165 -1 22 -7 89 -13 148 -14 86 -2 118 1 157 16 27 10 56 16
65 13 8 -4 17 0 21 9 6 17 40 15 36 -2z m-1018 -126 c132 -35 292 -115 417
-210 94 -72 235 -219 308 -321 75 -105 191 -338 221 -444 31 -108 39 -319 15
-426 -76 -348 -351 -636 -707 -738 -110 -32 -271 -49 -373 -41 -87 7 -262 45
-321 70 -20 8 -38 14 -39 13 -4 -6 -35 -89 -35 -93 0 -9 76 -36 175 -62 121
-31 349 -43 473 -24 154 24 338 95 457 176 l39 27 53 -58 c257 -285 408 -582
420 -825 7 -126 -4 -182 -57 -294 -87 -185 -203 -300 -336 -331 -71 -16 -164
-4 -234 31 -78 39 -100 62 -100 104 -1 20 -9 80 -19 134 -15 84 -15 99 -3 109
55 46 102 164 102 257 -1 149 -56 268 -184 396 -77 76 -106 98 -187 139 -216
106 -404 95 -529 -34 -137 -140 -231 -493 -190 -710 16 -85 29 -102 102 -138
l68 -32 -6 -48 c-21 -171 -106 -278 -221 -276 -106 2 -328 147 -413 270 -148
212 -172 519 -67 855 l22 72 70 1 c49 1 78 6 96 19 126 85 217 618 206 1207
-9 455 -61 684 -182 806 l-43 42 22 49 c28 59 84 110 128 117 18 3 71 10 117
16 148 20 335 85 502 175 74 40 136 45 233 20z m2246 -35 c30 -6 55 -12 57
-14 3 -2 -16 -60 -40 -127 -65 -179 -89 -305 -91 -469 -1 -175 15 -232 89
-305 80 -81 134 -89 365 -55 182 27 376 35 470 21 49 -7 101 -24 150 -49 l75
-37 3 -50 c4 -64 -21 -212 -53 -309 -96 -294 -292 -491 -587 -589 -241 -81
-550 -95 -773 -37 -327 85 -589 348 -689 691 -43 148 -58 369 -28 415 9 14
127 31 307 44 77 5 168 12 202 15 75 5 130 31 187 89 119 119 216 389 261 729
7 53 8 53 95 37z m687 -180 c14 -11 21 -20 15 -20 -12 0 -60 39 -49 40 5 0 20
-9 34 -20z m-4039 -241 c18 -6 29 -16 25 -22 -3 -5 -1 -7 5 -3 23 14 106 -92
94 -122 -3 -9 -1 -13 5 -9 9 6 24 -33 27 -70 1 -6 4 -15 8 -18 3 -4 4 -23 2
-43 -3 -24 -1 -32 5 -23 11 17 23 -30 26 -109 2 -30 6 -62 9 -71 4 -8 2 -27
-3 -42 -7 -19 -7 -27 2 -30 9 -3 13 -67 14 -243 3 -241 -5 -433 -16 -416 -3 5
-7 -31 -8 -80 -1 -50 -5 -98 -8 -107 -4 -9 -9 -43 -11 -76 -3 -32 -8 -62 -12
-65 -4 -3 -8 -23 -9 -45 -2 -22 -6 -47 -9 -55 -4 -8 -6 -23 -5 -32 1 -11 -4
-18 -16 -18 -13 0 -15 -2 -5 -9 11 -7 10 -18 -3 -64 -9 -31 -21 -60 -27 -63
-7 -5 -8 -2 -3 6 5 8 4 11 -3 7 -5 -4 -8 -16 -5 -26 8 -32 -29 -45 -89 -31
-27 7 -52 18 -55 25 -2 8 -11 16 -19 19 -8 3 -12 2 -9 -3 3 -5 -8 -3 -25 5
-16 9 -30 20 -30 25 0 6 -6 9 -12 8 -21 -4 -70 24 -57 31 6 4 0 9 -15 12 -17
3 -23 1 -19 -6 10 -15 -49 23 -64 42 -7 9 -13 13 -13 9 0 -4 -22 5 -50 19 -28
15 -47 31 -43 37 3 6 1 7 -5 3 -17 -10 -74 35 -67 52 4 11 2 12 -8 4 -10 -8
-16 -6 -26 9 -7 12 -15 18 -18 15 -9 -9 -42 24 -39 37 2 7 1 9 -1 5 -9 -15
-25 -8 -19 8 3 9 2 12 -5 9 -12 -8 -129 110 -129 131 0 8 -4 14 -10 14 -12 0
-41 55 -33 64 4 3 1 6 -6 6 -7 0 -9 5 -6 10 3 6 2 10 -2 10 -13 0 -31 56 -39
118 -4 35 -3 52 4 52 7 0 11 20 11 48 -1 26 1 54 4 62 3 8 8 25 12 37 4 13 12
20 18 16 6 -3 7 -1 3 5 -9 15 24 73 38 65 5 -4 7 1 3 10 -3 10 -2 17 3 17 6 0
10 7 10 16 0 8 4 13 9 10 5 -3 14 1 21 9 7 8 9 15 4 15 -5 0 -2 4 6 9 24 16
33 1 13 -22 l-18 -22 22 19 c19 15 21 22 11 34 -10 11 -6 19 22 43 19 16 50
36 68 44 18 9 36 23 39 31 4 11 8 12 20 3 8 -7 13 -8 11 -3 -1 5 10 34 25 65
23 47 42 101 61 174 10 42 29 84 35 81 4 -3 8 0 9 7 3 47 48 131 64 121 6 -4
8 -1 6 7 -7 20 21 71 34 63 7 -4 8 -3 4 4 -4 7 -3 12 1 12 5 0 13 10 18 22 13
29 106 99 123 93 8 -3 23 2 35 10 26 18 43 19 85 4z m2167 -468 c4 -15 3 -21
-3 -17 -5 3 -12 17 -15 32 -5 30 8 20 18 -15z m107 -603 c18 -40 45 -95 61
-123 32 -54 144 -202 171 -224 14 -12 11 -20 -28 -75 -86 -120 -177 -290 -258
-484 l-31 -73 -20 33 c-86 144 -197 297 -300 413 l-45 50 74 78 c154 160 254
364 285 576 l12 83 23 -90 c13 -50 38 -124 56 -164z m390 -489 c20 -16 41 -29
47 -29 5 0 12 -4 15 -8 3 -5 -8 -8 -24 -7 -16 1 -27 -2 -24 -7 4 -5 13 -7 21
-4 8 3 24 1 35 -5 15 -8 19 -8 13 1 -5 8 -2 9 11 1 50 -28 182 -84 209 -88 17
-2 44 -8 60 -14 17 -5 55 -12 85 -15 30 -3 69 -8 85 -10 62 -10 300 -3 311 9
4 4 28 7 53 8 25 0 78 8 116 18 40 11 74 15 80 10 5 -5 14 -9 20 -9 5 0 4 4
-4 9 -9 6 5 15 48 28 34 11 61 16 61 12 0 -5 7 -6 16 -2 11 4 12 8 4 13 -6 4
9 15 37 26 26 10 51 21 55 22 5 2 5 -3 2 -12 -4 -10 -1 -16 7 -16 7 0 9 3 6 7
-4 3 1 12 11 20 12 10 12 13 2 8 -15 -6 -3 4 54 41 l31 20 57 -87 c93 -144
108 -173 98 -189 -5 -8 -12 -11 -17 -7 -4 5 -1 13 7 18 13 9 13 10 0 6 -8 -2
-14 -13 -12 -23 2 -10 4 -27 5 -36 1 -9 5 -14 10 -11 5 3 6 11 3 18 -3 8 1 19
9 25 11 9 19 1 40 -45 14 -32 27 -62 28 -68 1 -6 8 -18 15 -25 7 -8 10 -18 7
-23 -4 -5 -1 -9 5 -9 7 0 7 -7 -1 -22 -11 -20 -10 -21 3 -11 12 11 18 5 35
-35 34 -78 52 -126 55 -147 2 -11 7 -23 11 -26 5 -4 10 -18 10 -33 1 -14 5
-26 8 -26 4 0 12 -21 18 -47 7 -27 16 -64 21 -83 42 -166 49 -379 14 -414 -7
-8 -10 -16 -7 -20 4 -3 1 -6 -5 -6 -6 0 -9 -6 -6 -14 3 -8 0 -25 -6 -38 -18
-33 -92 -108 -102 -102 -4 3 -8 1 -8 -4 0 -5 -11 -14 -25 -20 -32 -15 -38 -15
-30 -2 3 6 -1 7 -9 4 -9 -3 -16 -10 -16 -14 0 -10 -94 -23 -160 -23 -54 0
-145 37 -134 54 4 7 3 9 -3 6 -13 -8 -47 29 -38 42 3 6 0 9 -7 6 -8 -3 -25 7
-38 22 -14 15 -18 23 -10 18 11 -7 10 -4 -1 6 -24 22 -79 131 -72 142 3 5 -1
14 -8 19 -11 8 -10 9 4 4 9 -3 17 -2 17 3 0 16 52 23 62 9 13 -20 4 23 -10 49
-7 12 -13 30 -15 40 -5 35 -16 43 -43 33 -14 -6 -42 -10 -62 -10 -28 0 -33 -3
-22 -10 13 -9 13 -10 0 -11 -17 -1 -17 -1 -123 -29 -44 -12 -86 -20 -95 -18
-10 1 -24 -2 -32 -7 -18 -11 -295 -12 -374 -1 -43 6 -55 10 -45 18 10 7 6 8
-14 4 -63 -14 -317 81 -309 115 2 9 -2 9 -14 -2 -10 -8 -15 -9 -11 -3 4 7 -1
18 -10 25 -11 10 -14 10 -9 2 5 -9 2 -11 -8 -7 -16 6 -70 -29 -60 -39 3 -3 -7
-22 -22 -43 -23 -30 -25 -35 -9 -27 24 12 45 7 45 -12 0 -7 -6 -15 -12 -18 -7
-2 -10 -8 -6 -12 4 -4 14 0 23 8 14 15 19 15 50 0 19 -9 31 -21 28 -26 -4 -6
0 -8 9 -5 18 7 30 0 47 -27 10 -16 11 -17 7 -2 -10 31 15 7 30 -29 15 -35 19
-129 8 -183 -8 -38 -58 -96 -75 -85 -7 4 -9 3 -6 -4 11 -16 -4 -44 -20 -38 -8
3 -12 2 -9 -2 3 -5 -8 -16 -25 -26 -16 -9 -29 -14 -29 -10 0 3 -7 1 -15 -6
-31 -26 -208 -17 -226 12 -5 8 -25 15 -53 17 -5 1 -2 8 5 18 13 15 12 15 -11
3 -14 -7 -22 -9 -18 -5 4 4 -7 15 -25 24 -17 9 -31 22 -29 30 1 7 -2 10 -7 6
-12 -7 -67 53 -63 67 1 5 -1 7 -5 5 -14 -9 -46 21 -37 34 5 8 3 10 -6 4 -15
-9 -14 -7 23 63 15 28 32 52 38 52 6 0 9 7 5 15 -3 8 -1 28 5 43 39 101 44
263 12 402 -8 36 -16 74 -19 85 -2 10 2 23 9 28 8 6 6 7 -5 3 -10 -3 -19 -2
-19 2 -8 46 -5 70 13 110 12 26 22 49 23 52 9 39 29 79 36 75 5 -4 6 0 3 8 -5
14 143 311 179 358 10 13 15 18 12 12 -3 -7 -1 -13 5 -13 6 0 10 8 9 18 -5 26
42 91 61 85 8 -3 32 -19 52 -34z m-1662 -447 c8 -3 20 -6 25 -7 30 -2 93 -29
88 -38 -3 -6 -1 -7 6 -3 11 7 70 -23 116 -59 17 -14 18 -17 5 -26 -12 -8 -10
-9 7 -4 25 7 42 -13 22 -26 -10 -6 -8 -8 8 -6 12 0 19 5 17 9 -3 4 -4 8 -2 8
2 0 22 -24 43 -52 22 -29 43 -55 46 -58 16 -13 51 -96 52 -126 1 -19 5 -34 10
-34 11 0 8 -75 -5 -128 -14 -57 -57 -115 -74 -101 -8 6 -14 5 -18 -6 -4 -11
-2 -14 7 -9 7 5 7 1 -2 -10 -8 -9 -20 -15 -28 -12 -8 3 -12 2 -9 -3 5 -8 -82
-49 -115 -55 -8 -1 -24 -8 -37 -15 -54 -29 -361 -59 -322 -31 12 9 11 10 -7 5
-31 -9 -99 5 -81 16 9 6 2 9 -19 9 -40 0 -115 29 -107 41 3 5 -1 6 -9 3 -27
-10 -40 25 -44 124 -3 72 -2 93 7 82 8 -12 9 -9 4 14 -7 29 14 168 25 162 3
-2 7 10 8 28 3 72 117 267 145 250 7 -4 2 -13 -11 -23 -21 -16 -21 -16 7 -16
26 -1 28 2 27 38 -1 31 3 41 19 47 12 4 26 3 34 -3 9 -7 11 -6 6 7 -4 11 -1
16 11 16 9 0 13 -4 10 -10 -3 -5 -1 -10 5 -10 6 0 13 6 16 14 5 13 79 13 114
-2z"/>
<path d="M7974 10660 c0 -13 4 -16 10 -10 7 7 7 13 0 20 -6 6 -10 3 -10 -10z"/>
<path d="M8210 10656 c7 -7 13 -7 20 0 6 6 3 10 -10 10 -13 0 -16 -4 -10 -10z"/>
<path d="M8325 10581 c-3 -5 -2 -12 3 -15 5 -3 9 1 9 9 0 17 -3 19 -12 6z"/>
<path d="M8282 10551 c-11 -7 -10 -9 3 -15 10 -3 13 -11 9 -18 -5 -9 -2 -9 9
1 13 10 15 17 6 27 -13 16 -11 16 -27 5z"/>
<path d="M8345 10470 c3 -5 8 -10 11 -10 2 0 4 5 4 10 0 6 -5 10 -11 10 -5 0
-7 -4 -4 -10z"/>
<path d="M8010 10380 c8 -5 20 -10 25 -10 6 0 3 5 -5 10 -8 5 -19 10 -25 10
-5 0 -3 -5 5 -10z"/>
<path d="M8068 10353 c7 -3 16 -2 19 1 4 3 -2 6 -13 5 -11 0 -14 -3 -6 -6z"/>
<path d="M8679 10188 c24 -28 52 -29 30 -2 -6 8 -14 12 -17 9 -3 -3 -12 1 -21
7 -9 7 -5 0 8 -14z"/>
<path d="M8614 10060 c0 -13 4 -16 10 -10 7 7 7 13 0 20 -6 6 -10 3 -10 -10z"/>
<path d="M8808 9663 c6 -2 18 -2 25 0 6 3 1 5 -13 5 -14 0 -19 -2 -12 -5z"/>
<path d="M8730 9650 c-8 -5 -10 -10 -5 -10 6 0 17 5 25 10 8 5 11 10 5 10 -5
0 -17 -5 -25 -10z"/>
<path d="M8755 9615 c-42 -21 -73 -83 -70 -137 2 -49 30 -118 46 -118 8 0 8 5
-1 15 -11 13 -7 13 33 1 40 -12 45 -12 40 2 -4 10 -2 13 5 8 7 -4 12 -1 12 8
0 8 6 19 13 23 28 18 49 107 36 151 -1 4 -2 14 -3 22 -1 15 -41 40 -66 40 -8
0 -28 -7 -45 -15z"/>
<path d="M8651 9584 c0 -11 3 -14 6 -6 3 7 2 16 -1 19 -3 4 -6 -2 -5 -13z"/>
<path d="M8685 9559 c-4 -6 -5 -12 -2 -15 2 -3 7 2 10 11 7 17 1 20 -8 4z"/>
<path d="M8890 9459 c0 -5 5 -7 10 -4 6 3 10 8 10 11 0 2 -4 4 -10 4 -5 0 -10
-5 -10 -11z"/>
<path d="M8686 9397 c3 -10 9 -15 12 -12 3 3 0 11 -7 18 -10 9 -11 8 -5 -6z"/>
<path d="M8728 9333 c6 -2 18 -2 25 0 6 3 1 5 -13 5 -14 0 -19 -2 -12 -5z"/>
<path d="M10668 10283 c6 -2 18 -2 25 0 6 3 1 5 -13 5 -14 0 -19 -2 -12 -5z"/>
<path d="M10796 10277 c3 -10 9 -15 12 -12 3 3 0 11 -7 18 -10 9 -11 8 -5 -6z"/>
<path d="M10450 10180 c-8 -5 -10 -10 -5 -10 6 0 17 5 25 10 8 5 11 10 5 10
-5 0 -17 -5 -25 -10z"/>
<path d="M10293 10139 c-25 -9 -30 -19 -10 -19 15 0 43 17 37 23 -3 3 -15 1
-27 -4z"/>
<path d="M10802 10100 c0 -14 2 -19 5 -12 2 6 2 18 0 25 -3 6 -5 1 -5 -13z"/>
<path d="M10472 10070 c-13 -6 -28 -8 -33 -4 -5 3 -9 0 -9 -6 0 -5 -32 -26
-72 -45 -59 -29 -74 -33 -87 -22 -14 10 -14 10 -4 -4 11 -13 9 -18 -12 -27
-14 -7 -49 -29 -78 -50 -65 -48 -82 -58 -74 -45 3 5 0 10 -8 10 -10 0 -12 -5
-5 -16 6 -12 0 -24 -23 -47 -49 -48 -55 -58 -52 -88 4 -31 49 -102 71 -110 8
-3 14 -13 14 -21 0 -9 5 -13 10 -10 6 3 10 -1 10 -10 0 -9 -4 -14 -9 -10 -5 3
-13 0 -17 -7 -4 -7 -4 -10 1 -6 4 4 14 3 22 -3 10 -9 13 -8 13 1 0 6 14 -2 31
-19 17 -18 27 -36 23 -42 -4 -7 -3 -9 4 -5 6 3 20 -7 32 -24 27 -38 59 -46 99
-25 17 9 37 13 43 9 6 -4 8 -3 5 3 -7 12 28 44 39 35 4 -4 4 -2 1 4 -6 11 58
93 93 121 8 6 15 17 15 25 1 7 7 12 14 10 8 -2 11 3 8 11 -3 9 7 23 24 36 16
12 29 26 29 32 0 6 -9 1 -21 -12 l-20 -24 18 30 c10 17 25 36 33 43 8 8 9 11
3 7 -9 -4 -11 -1 -6 11 6 16 7 15 20 -2 15 -21 18 -11 3 15 -9 17 -4 41 29
152 6 18 2 43 -13 80 l-21 54 -60 2 c-33 2 -71 -2 -83 -7z m57 -143 c-17 -94
-85 -211 -191 -331 l-44 -48 -76 89 -77 90 32 30 c63 58 120 96 230 154 62 32
117 59 123 59 8 0 9 -13 3 -43z"/>
<path d="M10332 10043 c6 -7 14 -13 18 -13 3 0 7 6 7 13 0 7 -8 13 -18 13 -13
0 -15 -3 -7 -13z"/>
<path d="M10089 10009 l-24 -20 28 17 c15 9 27 18 27 20 0 8 -8 4 -31 -17z"/>
<path d="M9476 9972 c-3 -4 4 -9 15 -9 23 -2 25 3 4 10 -8 4 -16 3 -19 -1z"/>
<path d="M10000 9930 c0 -5 7 -7 15 -4 8 4 15 8 15 10 0 2 -7 4 -15 4 -8 0
-15 -4 -15 -10z"/>
<path d="M9568 9923 c6 -2 18 -2 25 0 6 3 1 5 -13 5 -14 0 -19 -2 -12 -5z"/>
<path d="M9984 9900 c0 -13 4 -16 10 -10 7 7 7 13 0 20 -6 6 -10 3 -10 -10z"/>
<path d="M10084 9898 c-4 -7 -3 -8 5 -4 6 4 20 2 29 -6 15 -12 16 -11 3 5 -16
20 -27 22 -37 5z"/>
<path d="M9409 9853 c-13 -16 -12 -17 4 -4 9 7 17 15 17 17 0 8 -8 3 -21 -13z"/>
<path d="M9690 9856 c4 -4 16 -4 26 2 16 9 14 10 -8 9 -15 -1 -23 -6 -18 -11z"/>
<path d="M9754 9841 c7 -11 46 -35 46 -28 0 3 -12 12 -26 22 -15 9 -23 12 -20
6z"/>
<path d="M10626 9807 c3 -10 9 -15 12 -12 3 3 0 11 -7 18 -10 9 -11 8 -5 -6z"/>
<path d="M10727 9779 c4 -13 8 -18 11 -10 2 7 -1 18 -6 23 -8 8 -9 4 -5 -13z"/>
<path d="M10524 9620 c0 -9 7 -16 16 -16 9 0 16 7 16 16 0 9 -7 16 -16 16 -9
0 -16 -7 -16 -16z"/>
<path d="M9473 9547 c4 -10 -4 -19 -25 -28 -20 -8 -37 -26 -48 -50 -9 -21 -21
-35 -26 -31 -5 4 -6 3 -1 -2 11 -15 9 -74 -3 -81 -6 -4 -8 -10 -5 -15 3 -5 1
-11 -5 -15 -5 -3 -10 -11 -10 -18 0 -6 6 -2 14 8 8 11 12 24 9 29 -4 5 -1 6 4
3 6 -4 16 -20 23 -36 11 -28 15 -29 63 -27 28 1 52 7 54 13 2 5 11 19 19 29 9
10 12 13 8 5 -4 -8 -3 -12 2 -8 5 3 11 40 13 81 3 81 1 83 -69 140 -18 14 -22
15 -17 3z"/>
<path d="M10165 9499 c-4 -6 -5 -12 -2 -15 2 -3 7 2 10 11 7 17 1 20 -8 4z"/>
<path d="M9584 9349 c-3 -6 -2 -15 3 -20 5 -5 9 -1 9 11 0 23 -2 24 -12 9z"/>
<path d="M10414 9340 c0 -13 4 -16 10 -10 7 7 7 13 0 20 -6 6 -10 3 -10 -10z"/>
<path d="M10445 9339 c-4 -6 -5 -12 -2 -15 2 -3 7 2 10 11 7 17 1 20 -8 4z"/>
<path d="M9345 9260 c3 -5 8 -10 11 -10 2 0 4 5 4 10 0 6 -5 10 -11 10 -5 0
-7 -4 -4 -10z"/>
<path d="M9380 9225 c7 -9 15 -13 17 -11 7 7 -7 26 -19 26 -6 0 -6 -6 2 -15z"/>
<path d="M10118 9233 c7 -3 16 -2 19 1 4 3 -2 6 -13 5 -11 0 -14 -3 -6 -6z"/>
<path d="M7384 10100 c0 -13 4 -16 10 -10 7 7 7 13 0 20 -6 6 -10 3 -10 -10z"/>
<path d="M7524 9989 c-11 -19 12 -32 35 -19 12 6 27 8 33 4 7 -5 8 -3 4 5 -5
7 -14 10 -22 7 -7 -3 -16 -1 -19 4 -8 13 -22 13 -31 -1z m26 -9 c0 -5 -4 -10
-10 -10 -5 0 -10 5 -10 10 0 6 5 10 10 10 6 0 10 -4 10 -10z"/>
<path d="M7725 9796 c1 -12 5 -20 8 -18 4 1 12 2 17 2 6 0 10 5 10 11 0 5 -5
7 -12 3 -7 -5 -9 -2 -6 8 4 8 1 15 -6 15 -7 0 -12 -10 -11 -21z"/>
<path d="M7814 9740 c0 -13 4 -16 10 -10 7 7 7 13 0 20 -6 6 -10 3 -10 -10z"/>
<path d="M7144 9419 c-62 -31 -74 -158 -19 -212 40 -41 115 -3 130 64 10 45
-5 110 -31 136 -25 25 -46 28 -80 12z"/>
<path d="M6623 9315 c-28 -20 -46 -75 -38 -118 4 -19 20 -51 37 -71 53 -65
124 -43 135 42 13 99 -71 192 -134 147z"/>
<path d="M6908 9097 c-120 -42 -129 -66 -73 -183 24 -49 48 -83 76 -105 l42
-33 -7 -67 c-9 -96 -40 -190 -74 -222 -44 -42 -86 -44 -157 -8 l-60 31 -32
-38 c-18 -20 -32 -40 -33 -44 0 -4 30 -22 67 -40 94 -46 184 -51 246 -14 46
26 100 98 112 149 7 26 25 48 25 29 0 -4 16 -27 36 -51 101 -117 242 -109 378
23 64 62 64 65 4 108 l-29 20 -34 -39 c-44 -52 -132 -99 -167 -90 -53 14 -122
110 -157 219 -11 33 -10 39 9 58 39 39 63 110 68 195 4 73 2 82 -18 100 -34
31 -137 32 -222 2z"/>
<path d="M8925 9205 c-5 -2 -22 -6 -38 -9 -69 -16 -83 -72 -46 -192 16 -50 32
-79 61 -108 l40 -40 -17 -60 c-41 -150 -84 -206 -159 -206 -44 0 -112 36 -150
78 -26 30 -36 28 -75 -12 l-32 -33 47 -42 c103 -91 222 -123 303 -82 40 21 95
78 113 117 6 13 14 24 17 24 3 0 17 -21 30 -46 31 -58 103 -122 148 -130 81
-15 198 23 255 83 l22 24 -37 36 -36 37 -23 -21 c-36 -33 -89 -56 -131 -57
-32 -1 -44 5 -72 35 -36 40 -67 114 -86 207 l-13 60 38 42 c40 45 61 86 81
160 15 57 4 83 -44 104 -51 23 -166 41 -196 31z"/>
<path d="M5875 9620 c-3 -5 1 -10 10 -10 9 0 13 5 10 10 -3 6 -8 10 -10 10 -2
0 -7 -4 -10 -10z"/>
<path d="M6092 9220 c0 -14 2 -19 5 -12 2 6 2 18 0 25 -3 6 -5 1 -5 -13z"/>
<path d="M6126 9004 c-4 -20 -5 -38 -3 -40 3 -3 8 11 11 32 4 20 5 38 3 40 -3
3 -8 -11 -11 -32z"/>
<path d="M5358 8923 c7 -3 16 -2 19 1 4 3 -2 6 -13 5 -11 0 -14 -3 -6 -6z"/>
<path d="M6122 8700 c0 -14 2 -19 5 -12 2 6 2 18 0 25 -3 6 -5 1 -5 -13z"/>
<path d="M5570 7940 c8 -5 20 -10 25 -10 6 0 3 5 -5 10 -8 5 -19 10 -25 10 -5
0 -3 -5 5 -10z"/>
<path d="M8564 8061 c0 -9 8 -17 17 -17 9 0 15 6 12 12 -7 20 -29 23 -29 5z"/>
<path d="M8730 7940 c-8 -5 -10 -10 -5 -10 6 0 17 5 25 10 8 5 11 10 5 10 -5
0 -17 -5 -25 -10z"/>
<path d="M9770 7940 c8 -5 20 -10 25 -10 6 0 3 5 -5 10 -8 5 -19 10 -25 10 -5
0 -3 -5 5 -10z"/>
<path d="M8374 7820 c0 -13 4 -16 10 -10 7 7 7 13 0 20 -6 6 -10 3 -10 -10z"/>
<path d="M10241 7684 c0 -11 3 -14 6 -6 3 7 2 16 -1 19 -3 4 -6 -2 -5 -13z"/>
<path d="M8292 7665 c0 -16 2 -22 5 -12 2 9 2 23 0 30 -3 6 -5 -1 -5 -18z"/>
<path d="M8650 7100 c-8 -5 -10 -10 -5 -10 6 0 17 5 25 10 8 5 11 10 5 10 -5
0 -17 -5 -25 -10z"/>
<path d="M8782 7031 c-11 -7 -11 -9 0 -14 9 -3 15 1 15 9 0 8 -1 14 -1 14 -1
0 -7 -4 -14 -9z"/>
<path d="M8850 7020 c-8 -5 -10 -10 -5 -10 6 0 17 5 25 10 8 5 11 10 5 10 -5
0 -17 -5 -25 -10z"/>
<path d="M9730 7020 c8 -5 22 -9 30 -9 10 0 8 3 -5 9 -27 12 -43 12 -25 0z"/>
<path d="M9660 6996 c0 -2 7 -7 16 -10 8 -3 12 -2 9 4 -6 10 -25 14 -25 6z"/>
<path d="M9515 6950 c4 -6 11 -8 16 -5 14 9 11 15 -7 15 -8 0 -12 -5 -9 -10z"/>
<path d="M9890 6900 c-8 -5 -10 -10 -5 -10 6 0 17 5 25 10 8 5 11 10 5 10 -5
0 -17 -5 -25 -10z"/>
<path d="M9812 6810 c0 -14 2 -19 5 -12 2 6 2 18 0 25 -3 6 -5 1 -5 -13z"/>
<path d="M8246 6622 c-2 -4 4 -8 14 -8 10 0 16 4 14 8 -3 4 -9 8 -14 8 -5 0
-11 -4 -14 -8z"/>
<path d="M10208 6613 c6 -2 18 -2 25 0 6 3 1 5 -13 5 -14 0 -19 -2 -12 -5z"/>
<path d="M6840 7609 c0 -5 5 -7 10 -4 6 3 10 8 10 11 0 2 -4 4 -10 4 -5 0 -10
-5 -10 -11z"/>
<path d="M6616 7473 c-6 -14 -5 -15 5 -6 7 7 10 15 7 18 -3 3 -9 -2 -12 -12z"/>
<path d="M7204 7429 c-10 -17 13 -36 27 -22 12 12 4 33 -11 33 -5 0 -12 -5
-16 -11z m26 -9 c0 -5 -4 -10 -10 -10 -5 0 -10 5 -10 10 0 6 5 10 10 10 6 0
10 -4 10 -10z"/>
<path d="M7315 7000 c-4 -6 -11 -8 -16 -5 -5 3 -6 -1 -3 -10 4 -9 7 -15 8 -13
1 2 8 11 15 21 7 9 11 17 8 17 -3 0 -9 -5 -12 -10z"/>
<path d="M7038 6863 c7 -3 16 -2 19 1 4 3 -2 6 -13 5 -11 0 -14 -3 -6 -6z"/>
<path d="M6230 5977 c-178 -60 -270 -204 -257 -402 11 -176 113 -297 289 -345
66 -18 188 -8 263 20 117 45 208 164 223 292 19 170 -39 317 -155 389 -17 11
-64 31 -104 44 -92 32 -172 32 -259 2z m220 -187 c55 -28 78 -57 96 -117 12
-41 13 -64 5 -108 -20 -110 -86 -160 -201 -153 -55 3 -74 9 -104 31 -54 42
-70 80 -71 168 0 65 4 81 27 116 51 77 164 106 248 63z"/>
<path d="M7870 5984 c-72 -19 -127 -53 -177 -107 -57 -62 -81 -113 -95 -202
-28 -184 52 -343 212 -419 61 -29 72 -31 180 -31 112 0 117 1 178 34 77 42
125 95 153 170 27 74 19 86 -57 88 -73 2 -107 -11 -125 -44 -21 -40 -96 -83
-144 -83 -65 0 -140 43 -173 98 -23 40 -27 58 -27 122 1 87 23 140 77 180 29
22 43 25 114 25 l82 0 55 -52 56 -53 70 0 c55 0 72 4 79 17 23 40 -52 167
-122 208 -107 63 -222 79 -336 49z"/>
<path d="M5307 5976 c-13 -14 -15 -62 -16 -365 -1 -306 1 -351 15 -365 22 -23
346 -23 422 -1 99 30 151 101 152 208 0 58 -13 95 -52 148 -19 25 -19 26 1 78
48 120 10 223 -104 284 -36 20 -58 22 -221 25 -154 3 -183 1 -197 -12z m337
-177 c13 -12 11 -65 -3 -83 -7 -8 -37 -18 -67 -22 -72 -9 -99 11 -91 70 3 21
11 43 19 48 15 10 129 0 142 -13z m34 -296 c19 -27 15 -70 -10 -87 -26 -18
-138 -22 -169 -6 -22 12 -26 68 -8 102 10 19 17 20 93 15 60 -5 84 -11 94 -24z"/>
<path d="M6896 5974 c-14 -13 -16 -60 -16 -364 0 -402 -5 -380 91 -380 94 0
99 5 99 108 0 97 7 112 53 112 46 0 61 -14 116 -110 29 -49 61 -95 72 -100 10
-6 58 -9 106 -8 70 2 88 6 91 19 3 15 -15 48 -83 159 -40 64 -43 99 -14 126
36 33 62 96 66 164 10 133 -62 239 -185 274 -83 23 -373 23 -396 0z m337 -164
c22 0 57 -57 57 -93 0 -18 -11 -39 -29 -58 -27 -26 -36 -29 -98 -29 -40 0 -74
5 -81 12 -13 13 -17 135 -4 155 9 14 56 22 102 17 19 -2 43 -4 53 -4z"/>
<path d="M8472 5978 c-9 -9 -12 -105 -12 -370 0 -343 1 -358 19 -368 23 -12
430 -14 449 -1 9 5 12 29 10 82 l-3 74 -130 5 c-71 3 -136 9 -142 13 -18 12
-16 92 2 111 11 11 41 15 121 15 58 1 110 3 115 7 5 3 9 36 9 74 0 87 -5 90
-143 90 -112 0 -117 3 -117 53 0 46 12 50 147 56 l128 6 3 70 c2 57 0 72 -14
82 -24 18 -424 19 -442 1z"/>
<path d="M9096 5974 c-14 -13 -16 -60 -16 -360 0 -219 4 -352 10 -365 10 -18
23 -19 223 -19 152 0 216 3 225 12 14 14 16 126 3 147 -7 10 -36 13 -122 13
-63 -1 -119 2 -125 6 -8 5 -13 94 -16 279 -4 199 -9 277 -18 288 -18 21 -142
21 -164 -1z"/>
<path d="M9689 5983 c-10 -2 -20 -14 -23 -26 -8 -27 1 -704 9 -717 7 -11 412
-14 439 -4 13 5 16 22 16 79 0 47 -4 77 -12 81 -7 4 -62 7 -123 6 -60 -1 -116
2 -122 6 -9 6 -13 77 -13 280 -1 316 3 303 -93 301 -34 -1 -69 -3 -78 -6z"/>
<path d="M10262 5978 c-9 -9 -12 -99 -12 -364 0 -307 2 -355 16 -368 13 -14
48 -16 227 -16 117 0 218 4 225 9 9 5 12 29 10 82 l-3 74 -133 5 c-147 6 -152
8 -152 72 0 58 14 66 136 67 74 1 110 5 116 13 4 7 8 41 8 75 0 79 -7 83 -143
83 -112 0 -117 3 -117 53 0 46 12 50 147 56 l128 6 3 70 c2 55 0 72 -13 82
-24 17 -426 18 -443 1z"/>
<path d="M8928 4800 c-87 -15 -127 -78 -128 -198 0 -133 53 -189 173 -180 53
4 63 8 93 40 36 39 54 91 54 153 0 130 -77 204 -192 185z m96 -83 c17 -23 21
-43 21 -107 0 -99 -20 -133 -81 -138 -58 -4 -86 29 -92 108 -9 122 18 173 90
168 31 -2 46 -10 62 -31z"/>
<path d="M6420 4610 l0 -190 35 0 35 0 0 75 0 75 35 0 c47 0 98 22 119 51 18
27 21 100 5 131 -17 31 -71 48 -154 48 l-75 0 0 -190z m167 110 c27 -51 -5
-100 -63 -100 l-32 0 -4 65 c-3 71 1 76 57 65 18 -3 35 -16 42 -30z"/>
<path d="M6900 4610 l0 -190 115 0 115 0 0 25 c0 25 -1 25 -85 25 l-85 0 0 60
0 59 63 3 c56 3 62 5 65 26 3 21 0 22 -62 22 l-66 0 0 55 0 55 80 0 c79 0 80
0 80 25 l0 25 -110 0 -110 0 0 -190z"/>
<path d="M7320 4775 c0 -23 3 -25 50 -25 l50 0 0 -165 0 -165 30 0 30 0 2 143
c0 78 0 152 -1 165 -2 20 2 22 49 22 27 0 50 4 50 9 0 5 3 16 6 25 5 14 -10
16 -130 16 l-136 0 0 -25z"/>
<path d="M7848 4785 c-35 -20 -48 -44 -48 -90 0 -42 31 -78 88 -102 52 -21 72
-42 72 -74 0 -48 -53 -63 -117 -32 -30 14 -36 14 -44 2 -16 -26 -9 -40 28 -56
25 -10 56 -14 92 -11 69 6 111 46 111 107 0 51 -27 84 -95 115 -40 18 -56 31
-61 50 -12 49 36 71 100 46 21 -8 27 -6 37 11 16 31 -2 43 -74 46 -42 2 -71
-2 -89 -12z"/>
<path d="M8270 4610 l0 -190 30 0 30 0 0 85 0 85 80 0 80 0 0 -85 0 -85 35 0
35 0 0 190 0 190 -35 0 -35 0 0 -80 0 -80 -80 0 -80 0 0 80 0 80 -30 0 -30 0
0 -190z"/>
<path d="M9360 4610 l0 -190 35 0 35 0 0 75 0 75 35 0 c83 0 138 48 137 120
-1 83 -41 110 -162 110 l-80 0 0 -190z m155 126 c13 -9 19 -26 19 -51 0 -44
-22 -65 -71 -65 l-33 0 0 65 0 65 33 0 c18 0 42 -6 52 -14z"/>
</g>
</svg>
