<?xml version="1.0" standalone="no"?>
<!DOCTYPE svg PUBLIC "-//W3C//DTD SVG 20010904//EN"
 "http://www.w3.org/TR/2001/REC-SVG-20010904/DTD/svg10.dtd">
<svg version="1.0" xmlns="http://www.w3.org/2000/svg"
 width="360.000000pt" height="360.000000pt" viewBox="0 0 360.000000 360.000000"
 preserveAspectRatio="xMidYMid meet">

<g transform="translate(0.000000,360.000000) scale(0.100000,-0.100000)"
fill="#000000" stroke="none">
<path d="M1685 3249 c-95 -19 -194 -76 -276 -158 -118 -118 -168 -245 -169
-423 l0 -78 -275 0 c-212 0 -277 -3 -280 -12 -2 -7 -11 -150 -20 -318 -8 -168
-20 -377 -25 -465 -5 -88 -14 -245 -20 -350 -39 -706 -51 -912 -57 -1002 l-6
-103 1243 0 1243 0 -7 103 c-6 98 -28 488 -61 1077 -9 151 -20 349 -25 440 -5
91 -15 266 -21 390 -6 124 -12 226 -13 227 -2 2 -353 11 -473 12 l-83 1 0 78
c-1 165 -50 299 -151 407 -111 118 -230 174 -384 180 -49 2 -112 0 -140 -6z
m248 -237 c66 -29 142 -104 174 -171 22 -46 28 -74 31 -153 l4 -98 -342 0
-343 0 5 98 c7 139 44 215 141 287 92 67 226 82 330 37z m-695 -814 l2 -168
110 0 110 0 0 165 0 165 340 0 340 0 0 -165 0 -166 108 3 107 3 3 162 2 161
168 4 c92 2 170 1 175 -2 4 -3 11 -85 17 -181 22 -390 36 -647 70 -1299 5
-102 13 -215 16 -252 l6 -68 -1012 0 -1012 0 6 63 c3 34 10 154 16 267 6 113
15 279 20 370 6 91 17 298 25 460 9 162 20 360 25 440 5 80 10 157 10 172 l0
27 138 4 c75 2 153 3 172 3 l35 -1 3 -167z"/>
</g>
</svg>
