<?xml version="1.0" encoding="UTF-8"?>
<svg version="1.1" xmlns="http://www.w3.org/2000/svg" width="360" height="360">
<path d="M0 0 C13.05105301 11.28853138 19.918221 22.77964194 22.1328125 40 C22.52034685 45.35409297 22.4296875 50.7334628 22.4296875 56.1015625 C40.5796875 56.1015625 58.7296875 56.1015625 77.4296875 56.1015625 C78.58809005 68.26478923 79.72833339 80.28666609 80.32421875 92.46484375 C80.39687284 93.87488597 80.46999486 95.28490414 80.54353333 96.69490051 C80.69957552 99.70023057 80.85308718 102.70567362 81.00445557 105.71124268 C81.37656642 113.09307775 81.76299448 120.47417113 82.14909363 127.85528564 C82.24017721 129.59695661 82.33110818 131.33863556 82.42189026 133.08032227 C83.15352758 147.10653827 83.92873441 161.12996697 84.73046875 175.15234375 C84.78550631 176.1155208 84.84054386 177.07869785 84.89724922 178.07106209 C85.38536228 186.60659317 85.87579736 195.14198942 86.37026978 203.67715454 C87.46487858 222.57532624 88.53692073 241.47473803 89.49851608 260.38021469 C89.59275539 262.2211382 89.6887273 264.06197389 89.78648758 265.90271378 C89.92053344 268.43735592 90.04789447 270.97224388 90.17333984 273.50732422 C90.23537912 274.64520449 90.23537912 274.64520449 90.29867172 275.80607224 C90.38219725 277.56979915 90.41189266 279.33594859 90.4296875 281.1015625 C88.46280581 283.06844419 85.42839832 282.22462213 82.80967373 282.23064381 C81.36661022 282.22627455 81.36661022 282.22627455 79.89439392 282.22181702 C78.88081851 282.22267144 77.8672431 282.22352587 76.82295328 282.22440618 C73.39879704 282.22606404 69.9746889 282.22053464 66.55053711 282.21508789 C64.10707093 282.21480606 61.66360468 282.21496367 59.22013855 282.2155304 C53.94520884 282.21575872 48.67029433 282.21290733 43.39536858 282.20729256 C35.76862958 282.19917971 28.14189656 282.19656256 20.51515371 282.19530457 C8.14250469 282.19311371 -4.23013775 282.1864527 -16.6027832 282.17700195 C-28.62459276 282.16782871 -40.64640054 282.16074745 -52.66821289 282.15649414 C-53.77898116 282.15610006 -53.77898116 282.15610006 -54.91218919 282.15569801 C-58.62696822 282.15439301 -62.34174726 282.15312929 -66.0565263 282.15188611 C-96.89445982 282.14151243 -127.73238516 282.12381908 -158.5703125 282.1015625 C-159.22622867 278.97508786 -159.68026495 276.25020122 -159.47192383 273.05834961 C-159.4245256 272.27972061 -159.37712738 271.50109161 -159.32829285 270.6988678 C-159.27022964 269.85078049 -159.21216644 269.00269318 -159.15234375 268.12890625 C-159.09536819 267.21350571 -159.03839264 266.29810516 -158.97969055 265.35496521 C-158.85346313 263.33215958 -158.72445466 261.30952611 -158.59307861 259.28704834 C-158.21967986 253.51914863 -157.87045749 247.74977235 -157.51953125 241.98046875 C-157.44250977 240.72032959 -157.36548828 239.46019043 -157.28613281 238.16186523 C-156.41899578 223.84164029 -155.6790745 209.51505965 -154.93896484 195.18780518 C-153.42314316 165.85269556 -151.84893907 136.52086159 -150.21746826 107.19195557 C-149.99466943 103.18549348 -149.77358625 99.17894255 -149.55401611 95.17230225 C-149.29545661 90.45632825 -149.03335144 85.74056471 -148.76845741 81.0249424 C-148.67116797 79.28318805 -148.57508317 77.54136595 -148.48027611 75.79947472 C-148.34999451 73.41046656 -148.21524157 71.02175108 -148.0793457 68.63305664 C-148.04246202 67.93803732 -148.00557835 67.243018 -147.96757698 66.52693748 C-147.75712379 62.91804426 -147.28499677 59.67498387 -146.5703125 56.1015625 C-119.3453125 55.6065625 -119.3453125 55.6065625 -91.5703125 55.1015625 C-91.5703125 50.8115625 -91.5703125 46.5215625 -91.5703125 42.1015625 C-89.67480716 25.38665177 -82.57345388 11.01197408 -69.5703125 0.1015625 C-48.54132878 -14.8155491 -20.71720533 -16.41392826 0 0 Z M-59.5703125 22.1015625 C-68.39889443 32.77886458 -67.5703125 41.57360139 -67.5703125 56.1015625 C-45.4603125 56.1015625 -23.3503125 56.1015625 -0.5703125 56.1015625 C-1.30244622 37.42595979 -1.30244622 37.42595979 -9.5703125 22.1015625 C-10.2303125 22.1015625 -10.8903125 22.1015625 -11.5703125 22.1015625 C-11.5703125 21.4415625 -11.5703125 20.7815625 -11.5703125 20.1015625 C-26.08633231 8.05635458 -46.10542392 8.99101309 -59.5703125 22.1015625 Z M-124.5703125 79.1015625 C-125.2065444 82.91895387 -125.71848657 86.31026334 -125.91162109 90.11401367 C-125.96204559 91.07216476 -126.01247009 92.03031586 -126.06442261 93.01750183 C-126.11535065 94.04942154 -126.16627869 95.08134125 -126.21875 96.14453125 C-126.27572052 97.23957474 -126.33269104 98.33461823 -126.39138794 99.46284485 C-126.51436934 101.83062586 -126.63588736 104.19848323 -126.75610352 106.56640625 C-127.07987668 112.93659109 -127.41512709 119.30617175 -127.75 125.67578125 C-127.81817932 126.97639496 -127.88635864 128.27700867 -127.956604 129.61703491 C-128.55271478 140.92155426 -129.20808582 152.2220195 -129.88565063 163.52191162 C-130.99263504 181.98335999 -132.05282114 200.44705573 -133.05419922 218.91455078 C-133.18852116 221.38807162 -133.32375517 223.86154312 -133.45996094 226.33496094 C-133.64926435 229.77915289 -133.8349263 233.22352215 -134.01953125 236.66796875 C-134.07562057 237.67924332 -134.1317099 238.69051788 -134.1894989 239.73243713 C-134.23999893 240.6902861 -134.29049896 241.64813507 -134.3425293 242.63500977 C-134.38677536 243.45381119 -134.43102142 244.27261261 -134.47660828 245.1162262 C-134.61240689 249.44265362 -134.5703125 253.77300437 -134.5703125 258.1015625 C-68.5703125 258.4315625 -2.5703125 258.7615625 65.4296875 259.1015625 C65.46198343 248.12639616 65.46198343 248.12639616 65.09474182 237.2053833 C65.05869542 236.5251299 65.02264901 235.84487649 64.98551029 235.14400935 C64.86704389 232.92554907 64.74327007 230.7074215 64.61938477 228.48925781 C64.53202565 226.87471172 64.44498885 225.26014816 64.35824585 223.64556885 C64.12415798 219.30735853 63.88529528 214.96942402 63.64525723 210.63153934 C63.44490758 207.00253401 63.24698595 203.37339787 63.04906124 199.7442596 C62.58259832 191.19162091 62.11228711 182.63920002 61.6394043 174.08691406 C61.15156214 165.26304153 60.66976834 156.43885344 60.19096905 147.61448598 C59.77890503 140.02339831 59.36341005 132.43250398 58.94507259 124.84175944 C58.69554155 120.31368732 58.44726399 115.78555554 58.20218086 111.2572403 C57.97223447 107.01176946 57.73800517 102.7665566 57.50040817 98.52150726 C57.41381089 96.96146537 57.32873814 95.40133802 57.24527168 93.84112549 C57.13147501 91.71847862 57.01226198 89.59620497 56.89161682 87.47393799 C56.79344587 85.68988997 56.79344587 85.68988997 56.69329166 83.86980057 C56.60162488 81.14509407 56.60162488 81.14509407 55.4296875 79.1015625 C44.5396875 79.1015625 33.6496875 79.1015625 22.4296875 79.1015625 C22.0996875 89.9915625 21.7696875 100.8815625 21.4296875 112.1015625 C14.1696875 112.1015625 6.9096875 112.1015625 -0.5703125 112.1015625 C-0.5703125 101.2115625 -0.5703125 90.3215625 -0.5703125 79.1015625 C-22.6803125 79.1015625 -44.7903125 79.1015625 -67.5703125 79.1015625 C-67.9003125 89.9915625 -68.2303125 100.8815625 -68.5703125 112.1015625 C-75.8303125 112.1015625 -83.0903125 112.1015625 -90.5703125 112.1015625 C-90.5703125 101.2115625 -90.5703125 90.3215625 -90.5703125 79.1015625 C-101.7903125 79.1015625 -113.0103125 79.1015625 -124.5703125 79.1015625 Z " fill="#784933" transform="translate(214.5703125,44.8984375)"/>
</svg>
