<?xml version="1.0" encoding="UTF-8"?>
<svg version="1.1" xmlns="http://www.w3.org/2000/svg" width="1600" height="1600">
<path d="M0 0 C19.28835724 10.43301645 36.33670354 26.77816885 49.8515625 43.92578125 C52.1772359 46.87594103 54.59513276 49.73542705 57.0234375 52.6015625 C61.61294005 58.08885507 65.84054737 63.75475193 69.9609375 69.6015625 C71.01410156 69.385 72.06726563 69.1684375 73.15234375 68.9453125 C104.04994934 62.85892822 135.38929624 70.47633479 161.64453125 87.94140625 C162.40894531 88.48925781 163.17335938 89.03710938 163.9609375 89.6015625 C164.2909375 88.6115625 164.6209375 87.6215625 164.9609375 86.6015625 C166.52734375 85.0234375 166.52734375 85.0234375 168.5234375 83.3515625 C169.16410156 82.81015625 169.80476563 82.26875 170.46484375 81.7109375 C171.28855469 81.01484375 172.11226562 80.31875 172.9609375 79.6015625 C173.52756104 79.08899902 174.09418457 78.57643555 174.67797852 78.04833984 C195.60152317 59.2263324 227.78688175 40.78031588 256.83203125 41.28515625 C262.66532981 41.87504037 266.35153767 43.95089601 270.3984375 48.1015625 C277.73355443 59.83774958 273.3194663 82.40077251 270.5 95.34570312 C265.12024777 117.8587967 253.80625022 135.12635042 239.2421875 152.79296875 C236.76696854 155.84037017 234.34323344 158.91875192 231.9609375 162.0390625 C231.2184375 163.00714844 230.4759375 163.97523438 229.7109375 164.97265625 C227.31527343 168.57149982 226.81817077 171.39598893 226.96875 175.6640625 C227.75895152 207.9300734 219.03885347 236.85943928 197.9609375 261.6015625 C196.32770169 263.3078522 194.65698905 264.95663307 192.9609375 266.6015625 C193.32219727 267.18309082 193.68345703 267.76461914 194.05566406 268.36376953 C217.93426814 306.91195192 247.93792545 357.09851498 238.703125 404.6640625 C235.77542379 416.25159572 230.15747742 425.43672234 220.3359375 432.4765625 C209.06258437 438.78427199 193.25423555 441.18070808 180.7109375 438.6015625 C168.09656286 434.86583137 158.83736986 425.07194515 152.53759766 413.84179688 C149.82830358 408.83359613 147.59752312 404.36619897 146.9609375 398.6015625 C146.40220947 398.71749756 145.84348145 398.83343262 145.26782227 398.95288086 C142.68721347 399.48583557 140.10535291 400.01247566 137.5234375 400.5390625 C136.64494141 400.72146484 135.76644531 400.90386719 134.86132812 401.09179688 C116.55338126 404.80743185 97.76863667 404.93426644 79.4453125 401.2578125 C75.89672867 400.47817137 75.89672867 400.47817137 71.9609375 400.6015625 C72.00734375 401.70113281 72.05375 402.80070312 72.1015625 403.93359375 C72.48555959 416.76695099 70.92477526 426.28587551 62.29296875 436.375 C58.32953114 440.15918666 53.97136778 442.46330845 48.9609375 444.6015625 C48.16945313 444.94058594 47.37796875 445.27960938 46.5625 445.62890625 C36.44920893 449.27439489 24.9151608 448.86634666 14.9296875 445.0546875 C4.28134669 439.84260489 -4.70815066 431.93247434 -13.0390625 423.6015625 C-13.65394531 424.35953125 -13.65394531 424.35953125 -14.28125 425.1328125 C-14.82007813 425.7825 -15.35890625 426.4321875 -15.9140625 427.1015625 C-16.44773437 427.75125 -16.98140625 428.4009375 -17.53125 429.0703125 C-18.02882813 429.575625 -18.52640625 430.0809375 -19.0390625 430.6015625 C-19.6990625 430.6015625 -20.3590625 430.6015625 -21.0390625 430.6015625 C-21.3690625 431.5915625 -21.6990625 432.5815625 -22.0390625 433.6015625 C-33.95975963 442.51961043 -45.12635248 445.96143052 -60.0390625 444.6015625 C-70.64116892 442.50717317 -80.73529121 438.16891971 -87.7434082 429.7175293 C-90.16852641 425.75700556 -90.45790546 421.45979408 -90.9140625 416.9140625 C-91.03007813 415.97755859 -91.14609375 415.04105469 -91.265625 414.07617188 C-91.72953539 410.20749061 -92.0390625 406.50469759 -92.0390625 402.6015625 C-93.38484375 403.18164062 -93.38484375 403.18164062 -94.7578125 403.7734375 C-113.81496363 411.81519327 -132.56711307 415.76603007 -153.0390625 410.6015625 C-153.06484375 411.26800781 -153.090625 411.93445313 -153.1171875 412.62109375 C-153.82744014 424.16269921 -157.39252587 435.17985586 -165.88671875 443.38671875 C-172.62833836 448.84166742 -180.20438399 451.40025219 -188.88671875 451.14453125 C-204.16771154 448.51248912 -218.26925925 438.18631759 -229.0390625 427.6015625 C-229.97878906 426.68117188 -229.97878906 426.68117188 -230.9375 425.7421875 C-247.48902184 408.21704673 -251.71654184 384.43194879 -251.2890625 361.16796875 C-250.75273242 345.55271861 -247.17118996 328.9852163 -241.0390625 314.6015625 C-241.88331787 314.42173828 -241.88331787 314.42173828 -242.74462891 314.23828125 C-269.52096701 306.80769072 -298.83986734 284.42779061 -314.0390625 261.6015625 C-315.98532756 258.0197038 -317.60238058 254.41381057 -319.0390625 250.6015625 C-319.4515625 249.5290625 -319.8640625 248.4565625 -320.2890625 247.3515625 C-324.2506675 232.82567751 -321.60413254 218.07430797 -314.9140625 204.7890625 C-308.82351599 194.3683173 -301.06840258 187.07596801 -291.12890625 180.47998047 C-284.62557713 176.04635625 -283.00409801 170.88400424 -280.9140625 163.4140625 C-275.34206577 144.73873722 -265.58391832 124.2719261 -248.87109375 113.16015625 C-242.53796407 109.84046932 -236.21895532 108.18733791 -229.0390625 108.6015625 C-227.5540625 109.0965625 -227.5540625 109.0965625 -226.0390625 109.6015625 C-225.9978125 108.7971875 -225.9565625 107.9928125 -225.9140625 107.1640625 C-223.89224625 98.93238207 -217.89945364 92.37343379 -211.0390625 87.6015625 C-206.83009474 85.45681893 -202.67055991 85.20369431 -198.0390625 84.8515625 C-177.04254597 82.83066942 -157.97796742 74.50571561 -139.51953125 64.73046875 C-131.6151661 61.13304902 -123.32574282 62.45072938 -115.1640625 64.3515625 C-114.38047363 64.52913086 -113.59688477 64.70669922 -112.78955078 64.88964844 C-106.96866737 66.26025993 -101.45765343 68.04202708 -96.0390625 70.6015625 C-95.54277344 69.86550781 -95.04648437 69.12945313 -94.53515625 68.37109375 C-89.69307993 61.41577729 -85.88008233 56.67628528 -77.9765625 53.2890625 C-68.50669461 51.6355935 -59.13005171 52.57238982 -49.68579102 53.88525391 C-44.73796648 54.56287084 -40.02351457 54.77957865 -35.0390625 54.6015625 C-35.3484375 53.4878125 -35.6578125 52.3740625 -35.9765625 51.2265625 C-39.57363157 36.63419721 -40.15457716 18.65619476 -33.2265625 5.0390625 C-23.88256358 -5.37282201 -12.47823825 -5.86247939 0 0 Z M-23.0390625 9.6015625 C-26.95628231 16.09901874 -27.62089061 22.01911637 -27.4140625 29.4765625 C-27.40117188 30.44094238 -27.38828125 31.40532227 -27.375 32.39892578 C-27.23379564 38.92852434 -26.73594779 45.26854418 -25.0390625 51.6015625 C-24.2965625 51.44042969 -23.5540625 51.27929688 -22.7890625 51.11328125 C-20.47041339 50.68182808 -18.38781076 50.4377394 -16.0390625 50.4140625 C-15.3996875 50.39988281 -14.7603125 50.38570312 -14.1015625 50.37109375 C-11.51506241 50.66011554 -9.41141151 51.55954115 -7.0390625 52.6015625 C-7.01328125 51.34859375 -6.9875 50.095625 -6.9609375 48.8046875 C-6.90465081 47.15361127 -6.8473036 45.50257095 -6.7890625 43.8515625 C-6.76779297 42.6140625 -6.76779297 42.6140625 -6.74609375 41.3515625 C-6.49903229 35.22443826 -6.49903229 35.22443826 -4.1640625 32.0625 C-2.0390625 30.6015625 -2.0390625 30.6015625 0.7109375 29.9765625 C5.52687083 30.90270352 8.32837249 33.41133936 11.9609375 36.6015625 C12.63898438 37.17390625 13.31703125 37.74625 14.015625 38.3359375 C22.17913127 45.81167584 27.960465 55.38623399 33.9609375 64.6015625 C34.69679077 65.70213989 34.69679077 65.70213989 35.44750977 66.82495117 C35.90182373 67.51951416 36.3561377 68.21407715 36.82421875 68.9296875 C37.42810425 69.84282715 37.42810425 69.84282715 38.04418945 70.77441406 C40.1331138 74.93779883 39.35777172 79.08036464 38.2109375 83.4765625 C36.70747781 86.03244397 35.60864472 86.37623941 32.9609375 87.6015625 C31.72956752 88.27909562 30.5030462 88.96550729 29.28125 89.66015625 C28.25837891 90.23926758 28.25837891 90.23926758 27.21484375 90.83007812 C25.80315761 91.63176044 24.3916967 92.43383951 22.98046875 93.23632812 C19.85454765 95.00532867 16.75398619 96.70128394 13.515625 98.26171875 C10.84591085 99.34462872 10.84591085 99.34462872 9.9609375 101.6015625 C9.54637189 104.38373758 9.17684367 107.15745104 8.83984375 109.94921875 C8.73502182 110.7939122 8.63019989 111.63860565 8.52220154 112.50889587 C8.18582791 115.2268716 7.8546231 117.94545025 7.5234375 120.6640625 C7.30436326 122.43819143 7.08496563 124.21228045 6.86523438 125.98632812 C5.52308892 136.85330397 4.22774147 147.72556528 2.9609375 158.6015625 C3.60716064 158.52115723 4.25338379 158.44075195 4.91918945 158.35791016 C8.03649645 157.97409841 11.15474816 157.59897969 14.2734375 157.2265625 C15.43012939 157.08790771 16.58682129 156.94925293 17.77856445 156.80639648 C23.99933636 156.08673117 30.20221038 155.48372769 36.453125 155.09765625 C37.65799561 155.02272949 38.86286621 154.94780273 40.10424805 154.87060547 C42.42256284 154.73550219 44.74181421 154.61541932 47.06176758 154.51220703 C55.50282063 154.01992415 60.98821018 152.28986572 66.8984375 145.9140625 C81.10603729 128.95837764 88.46106259 99.38478865 87.9609375 77.6015625 C81.1830882 77.89561236 75.51270235 79.24638363 69.2109375 81.76171875 C66.9609375 82.6015625 66.9609375 82.6015625 64.9609375 82.6015625 C63.63138993 80.66936954 62.41569991 78.73522116 61.2109375 76.7265625 C51.97907449 61.92724664 40.77503239 48.77934306 28.62402344 36.31152344 C27.1526571 34.79868582 25.69987774 33.26781918 24.25 31.734375 C14.05584058 21.14432589 0.4060364 9.15649088 -14.6015625 6.4765625 C-18.61475057 6.62249661 -20.11206686 6.83717773 -23.0390625 9.6015625 Z M3.9609375 43.6015625 C2.92823242 60.38269468 2.92823242 60.38269468 7.71484375 76.140625 C9.58925238 79.84243514 10.21613793 83.53901937 10.9609375 87.6015625 C15.49940948 86.25228705 19.28025996 84.40996902 23.3359375 81.9765625 C24.39554688 81.34492187 25.45515625 80.71328125 26.546875 80.0625 C27.34351563 79.58039063 28.14015625 79.09828125 28.9609375 78.6015625 C28.58607853 72.63193343 25.89257603 69.06840865 22.4609375 64.4140625 C21.92283447 63.67027344 21.38473145 62.92648437 20.83032227 62.16015625 C13.79674545 51.0545576 13.79674545 51.0545576 3.9609375 43.6015625 Z M239.8359375 54.1015625 C238.92505371 54.37637451 238.01416992 54.65118652 237.07568359 54.93432617 C213.35490519 62.30992128 191.20747175 75.56597113 173.9609375 93.6015625 C173.6309375 94.5915625 173.3009375 95.5815625 172.9609375 96.6015625 C173.9509375 97.2615625 174.9409375 97.9215625 175.9609375 98.6015625 C174.83642023 101.573501 173.73799959 103.93596937 171.9609375 106.6015625 C168.33606667 105.29336845 165.52276731 103.70798959 162.44140625 101.40625 C156.66399413 97.2763156 150.57377765 93.98418901 144.2734375 90.7265625 C143.18482422 90.14648438 142.09621094 89.56640625 140.97460938 88.96875 C135.60179847 86.17292864 131.06095509 83.86336583 124.9609375 83.6015625 C114.88517879 100.5431037 110.80205549 122.09091086 110.5859375 141.6015625 C110.57191895 142.46193115 110.55790039 143.3222998 110.54345703 144.20874023 C110.59016112 150.38385918 111.1281622 157.42344297 115.4128418 162.23046875 C122.16872256 167.98172331 129.54251095 167.11300018 137.9609375 166.6015625 C143.54387693 166.02360399 149.08810357 165.19418918 154.63671875 164.35546875 C175.87847361 161.21043259 195.77395958 161.93906799 215.9609375 169.6015625 C216.5178125 167.85746094 216.5178125 167.85746094 217.0859375 166.078125 C218.89130098 161.27999192 221.64519307 157.83146024 224.9609375 153.9765625 C226.1323008 152.5722735 227.30285975 151.1673132 228.47265625 149.76171875 C229.05837402 149.06449707 229.6440918 148.36727539 230.24755859 147.64892578 C252.67715021 120.84719376 265.07267019 92.59891788 262.41015625 57.11328125 C262.17864996 54.43822706 262.17864996 54.43822706 259.9609375 52.6015625 C252.85853065 50.84264314 246.68362172 51.95851723 239.8359375 54.1015625 Z M-24.1015625 62.6015625 C-36.55473365 66.90523194 -50.87106034 64.99712944 -63.68383789 63.13818359 C-69.76438676 62.33119097 -74.52842722 62.94682561 -79.7890625 66.4140625 C-82.14340786 68.70300938 -83.6908051 70.60543495 -85.0390625 73.6015625 C-84.8746079 75.65199936 -84.8746079 75.65199936 -84.0390625 77.6015625 C-81.77317668 79.3142882 -79.57247722 80.80714094 -77.1640625 82.2890625 C-47.29908204 101.45481714 -25.7917536 131.01054293 -14.1953125 164.37890625 C-13.2836967 166.91972731 -12.32052568 169.23441524 -11.0390625 171.6015625 C-10.7090625 171.6015625 -10.3790625 171.6015625 -10.0390625 171.6015625 C-6.77437922 152.69649338 -3.77017608 133.77105548 -1.43856812 114.72601318 C-1.21573427 112.90802963 -0.98909262 111.09050835 -0.75845337 109.27349854 C1.82541985 89.88726971 1.82541985 89.88726971 -4.0390625 71.6015625 C-7.13863865 67.69316526 -10.51507598 64.12554902 -14.0390625 60.6015625 C-17.95719567 60.27448356 -20.52166726 61.0831386 -24.1015625 62.6015625 Z M-146.7890625 79.8515625 C-156.9559332 84.84254213 -167.10987241 88.66886156 -178.0390625 91.6015625 C-178.70099609 91.7864624 -179.36292969 91.9713623 -180.04492188 92.16186523 C-185.60874161 93.65314911 -191.13134626 94.24047883 -196.859375 94.72460938 C-202.3776535 95.27943629 -206.84410036 96.40199876 -210.90234375 100.46875 C-213.58660287 104.18764269 -215.47448415 106.9437911 -216.0390625 111.6015625 C-217.0290625 112.0965625 -217.0290625 112.0965625 -218.0390625 112.6015625 C-216.7396875 113.560625 -216.7396875 113.560625 -215.4140625 114.5390625 C-200.0603143 127.54459039 -197.1400066 153.31784897 -195.55712891 172.25073242 C-188.14266185 284.24868093 -188.14266185 284.24868093 -212.0390625 314.6015625 C-216.46703744 318.81868149 -219.71133169 319.73482992 -225.7265625 319.6640625 C-226.72042969 319.65503906 -227.71429687 319.64601563 -228.73828125 319.63671875 C-229.87716797 319.61931641 -229.87716797 319.61931641 -231.0390625 319.6015625 C-234.35257029 326.25241627 -236.23598914 332.77790934 -237.7265625 340.0390625 C-237.93861328 341.01166016 -238.15066406 341.98425781 -238.36914062 342.98632812 C-243.13576682 365.49623166 -242.11887182 388.95737887 -230.4765625 409.2890625 C-220.91237555 423.83162288 -205.48435279 436.94323872 -188.0390625 440.6015625 C-181.96572379 440.96731031 -177.74714329 439.56063043 -173.0390625 435.6015625 C-164.86294166 427.42544166 -163.39100773 417.82861527 -163.0390625 406.6015625 C-163.94269531 406.26125 -164.84632813 405.9209375 -165.77734375 405.5703125 C-175.20821798 401.69489314 -175.20821798 401.69489314 -177.53515625 398.6328125 C-178.29671399 396.58094707 -178.73634924 394.76835213 -179.0390625 392.6015625 C-179.214375 391.66828125 -179.3896875 390.735 -179.5703125 389.7734375 C-182.78077027 368.04933995 -176.93717214 341.4353124 -164.0390625 323.6015625 C-158.68239511 317.0700928 -153.00288387 313.25616962 -145.0390625 310.6015625 C-124.09733829 309.35161614 -106.96297069 314.48403133 -91.0390625 328.6015625 C-90.41386719 329.13265625 -89.78867187 329.66375 -89.14453125 330.2109375 C-81.34093273 337.3275375 -75.48860077 347.33884183 -73.0390625 357.6015625 C-72.69875 358.99375 -72.69875 358.99375 -72.3515625 360.4140625 C-71.06657667 373.52091793 -72.50949474 384.17125541 -81.0390625 394.6015625 C-81.6990625 394.9315625 -82.3590625 395.2615625 -83.0390625 395.6015625 C-82.91789063 396.43816406 -82.79671875 397.27476562 -82.671875 398.13671875 C-82.42050781 399.88275391 -82.42050781 399.88275391 -82.1640625 401.6640625 C-81.87595703 403.56865234 -81.87595703 403.56865234 -81.58203125 405.51171875 C-81.19197194 408.23037334 -80.93440727 410.91850319 -80.77734375 413.66015625 C-80.43110982 420.73746698 -80.43110982 420.73746698 -77.19140625 426.7734375 C-74.87046928 428.38177118 -72.64318959 429.51861644 -70.0390625 430.6015625 C-69.09160156 431.08302734 -69.09160156 431.08302734 -68.125 431.57421875 C-59.92079646 435.32720548 -49.87160411 435.72108405 -41.4375 432.6640625 C-26.95046217 426.24635193 -19.07156677 415.35947478 -12.0390625 401.6015625 C-11.53117188 400.6115625 -11.02328125 399.6215625 -10.5 398.6015625 C-2.32077586 380.9994895 -4.78540277 362.4166685 -11.24121094 344.67382812 C-20.16258292 321.50228425 -35.23717792 299.86399603 -53.0390625 282.6015625 C-56.47333531 283.88336855 -59.45090244 285.38444685 -62.5390625 287.3515625 C-80.63356284 298.32603756 -100.042614 303.00740455 -121.1015625 302.9765625 C-122.26751953 302.97495117 -123.43347656 302.97333984 -124.63476562 302.97167969 C-138.29594699 302.78079743 -151.45808192 300.5369804 -164.140625 295.3359375 C-166.01069175 294.48130292 -166.01069175 294.48130292 -168.0390625 294.6015625 C-167.0490625 291.6315625 -166.0590625 288.6615625 -165.0390625 285.6015625 C-163.67394531 286.01148438 -162.30882812 286.42140625 -160.90234375 286.84375 C-129.15142855 296.24992232 -99.03194487 296.31410708 -69.1640625 280.7890625 C-62.46888303 277.13928399 -56.66154364 272.76506559 -51.0390625 267.6015625 C-50.5534082 267.16360352 -50.06775391 266.72564453 -49.56738281 266.27441406 C-32.13186906 250.40664079 -19.93456728 228.43919876 -18.12890625 204.61328125 C-18.09925781 203.94941406 -18.06960938 203.28554688 -18.0390625 202.6015625 C-17.99910156 201.94800781 -17.95914063 201.29445313 -17.91796875 200.62109375 C-17.25905201 179.96211596 -24.31810797 161.44357459 -34.0390625 143.6015625 C-34.60496094 142.54324219 -35.17085937 141.48492188 -35.75390625 140.39453125 C-52.25647541 110.76756591 -79.97762107 86.27152153 -112.25 75.3515625 C-126.11981569 71.62186416 -134.26767115 73.56312526 -146.7890625 79.8515625 Z M98.9609375 77.6015625 C97.87240753 82.89828889 96.8444745 88.19971899 95.91796875 93.52734375 C87.05700029 143.61973794 87.05700029 143.61973794 69.1640625 158.05078125 C59.20116061 165.00488677 45.76942248 164.28768704 34.0859375 165.1015625 C23.61676754 165.83394036 13.27868736 166.5684575 2.9609375 168.6015625 C-3.39746555 188.31007874 3.1667491 212.22694813 12.06835938 230.14282227 C16.18522475 238.10121566 20.96389635 244.91341252 26.9609375 251.6015625 C27.51007813 252.2925 28.05921875 252.9834375 28.625 253.6953125 C42.94830462 271.47596651 65.71446867 280.6994389 87.7734375 283.9140625 C120.25623569 287.2325409 156.45656125 282.05089142 182.7109375 261.2890625 C202.39677148 244.31359697 211.42537855 223.03571711 215.58251953 197.84863281 C215.91900123 195.85058276 216.30926328 193.86175731 216.70703125 191.875 C217.1826757 188.90314398 217.4912443 186.56244211 216.9609375 183.6015625 C214.74446947 180.69099001 212.2090411 179.20577423 208.9609375 177.6015625 C207.8678125 177.0240625 206.7746875 176.4465625 205.6484375 175.8515625 C197.03540583 172.93189075 188.37997316 172.24179149 179.3359375 172.2890625 C177.74023926 172.29208374 177.74023926 172.29208374 176.11230469 172.29516602 C163.51880127 172.44930813 150.7008122 173.62106377 138.34350586 176.13378906 C129.38685461 177.89226265 119.82710508 177.4925191 111.9609375 172.6015625 C105.52814436 167.35229191 102.37743651 159.4735841 101.34375 151.39453125 C98.92208519 126.39736796 106.2507119 102.65652166 114.9609375 79.6015625 C109.4975533 78.24708666 104.60143076 77.36154151 98.9609375 77.6015625 Z M-255.0390625 133.6015625 C-263.63279966 145.97733606 -270.40300572 159.81013742 -273.0078125 174.72265625 C-275.75789302 182.39996436 -281.51626357 187.15818166 -288.0390625 191.6640625 C-299.05307135 199.33453295 -307.40091726 209.27540961 -310.5703125 222.61328125 C-312.03959678 231.97996853 -311.61173569 240.80165845 -308.0390625 249.6015625 C-307.59820313 250.77912109 -307.59820313 250.77912109 -307.1484375 251.98046875 C-299.34892362 270.11142827 -280.33731753 281.95887737 -264.0390625 291.6015625 C-263.38776367 291.98844238 -262.73646484 292.37532227 -262.06542969 292.77392578 C-254.24390124 297.38536039 -246.23920769 301.63790174 -238.1015625 305.6640625 C-237.33287842 306.05859619 -236.56419434 306.45312988 -235.7722168 306.85961914 C-230.26644256 309.51349866 -226.14201018 309.98337551 -220.0390625 309.6015625 C-207.92727769 288.95196217 -206.88309774 260.99618936 -205.0390625 237.6015625 C-204.95229248 236.53808594 -204.95229248 236.53808594 -204.86376953 235.453125 C-200.09075214 178.17396417 -200.09075214 178.17396417 -218.453125 125.34375 C-222.38331216 121.02635229 -226.08947673 119.39971797 -231.9140625 119.0390625 C-241.78049846 119.51671144 -249.09697403 126.20386175 -255.0390625 133.6015625 Z M-8.0390625 201.6015625 C-8.14863281 202.25938721 -8.25820313 202.91721191 -8.37109375 203.5949707 C-12.86335455 229.84319578 -21.12125053 250.79497537 -39.69140625 270.11328125 C-41.65656787 272.19615637 -43.38483109 274.2703519 -45.0390625 276.6015625 C-44.66136719 277.02824219 -44.28367187 277.45492187 -43.89453125 277.89453125 C-42.68534647 279.26796127 -41.48161609 280.64619963 -40.28125 282.02734375 C-38.71436509 283.82625865 -37.1351969 285.61451533 -35.546875 287.39453125 C-25.26703774 299.06721833 -16.76308211 312.11840547 -9.0390625 325.6015625 C-5.83339637 323.99872944 -5.32810335 320.61428116 -4.1015625 317.4140625 C2.74548391 300.29552741 11.11076091 284.38366516 21.80688477 269.35888672 C23.02564578 267.50302851 24.00588453 265.6040663 24.9609375 263.6015625 C24.42726563 263.05371094 23.89359375 262.50585938 23.34375 261.94140625 C7.40164987 244.97879106 -2.84797914 224.518763 -7.0390625 201.6015625 C-7.3690625 201.6015625 -7.6990625 201.6015625 -8.0390625 201.6015625 Z M31.9609375 271.6015625 C25.35525832 279.21364709 20.71039393 288.76346182 15.9609375 297.6015625 C15.62449219 298.22240723 15.28804687 298.84325195 14.94140625 299.48291016 C12.45263822 304.11712512 10.18356625 308.83494954 7.9609375 313.6015625 C7.50380371 314.55305176 7.04666992 315.50454102 6.57568359 316.48486328 C-1.42565274 332.42905836 -1.42565274 332.42905836 -0.12109375 349.48706055 C0.53880206 351.20538732 1.24809687 352.90451577 1.9609375 354.6015625 C7.49431176 373.21906131 3.68387481 392.95639375 -5.20703125 409.81640625 C-6.2248424 411.58954283 -6.2248424 411.58954283 -5.7890625 413.6640625 C-5.01420589 415.87385542 -5.01420589 415.87385542 -3.0390625 418.6015625 C-2.3790625 418.6015625 -1.7190625 418.6015625 -1.0390625 418.6015625 C-1.0390625 419.2615625 -1.0390625 419.9215625 -1.0390625 420.6015625 C-0.3790625 420.6015625 0.2809375 420.6015625 0.9609375 420.6015625 C0.9609375 421.2615625 0.9609375 421.9215625 0.9609375 422.6015625 C12.42919275 432.50248953 22.79130691 437.47994418 38.00048828 436.77197266 C45.58921745 436.1123297 51.22152254 432.3872882 56.265625 426.86328125 C60.99785043 420.55001276 62.40651524 414.22709127 62.39453125 406.4375 C61.32549588 399.44094497 61.32549588 399.44094497 57.05981445 394.02490234 C54.72252475 392.5845883 52.35647238 391.32385349 49.8984375 390.1015625 C48.65610352 389.44027344 48.65610352 389.44027344 47.38867188 388.765625 C43.37717728 386.45033343 43.37717728 386.45033343 38.9609375 385.6015625 C39.6003125 384.6734375 40.2396875 383.7453125 40.8984375 382.7890625 C43.04715843 379.75936307 43.04715843 379.75936307 43.9609375 376.6015625 C44.94191406 377.12105469 45.92289063 377.64054687 46.93359375 378.17578125 C78.7886628 394.7623999 114.88311029 397.59655915 149.3125 387 C153.56675789 385.63180866 157.77049531 384.15357813 161.9609375 382.6015625 C162.9509375 385.5715625 163.9409375 388.5415625 164.9609375 391.6015625 C161.0009375 393.5815625 161.0009375 393.5815625 156.9609375 395.6015625 C158.63325407 406.72246769 165.33824314 416.6728842 173.9609375 423.6015625 C182.02353042 429.27230565 190.0050699 429.48391326 199.546875 428.0703125 C210.44250443 425.93300353 217.40939674 422.83549588 223.9609375 413.6015625 C232.39473126 398.31371882 229.87894238 378.98204316 225.9609375 362.6015625 C225.67887451 361.41771973 225.67887451 361.41771973 225.39111328 360.20996094 C218.76402547 333.31147087 206.78978266 306.37965676 190.9609375 283.6015625 C190.30867187 282.65539062 189.65640625 281.70921875 188.984375 280.734375 C187.32398338 278.34632171 185.65050915 275.969017 183.9609375 273.6015625 C180.29763503 274.97353292 176.86369342 276.63168287 173.39257812 278.41894531 C143.35340002 293.86644289 104.9610073 299.28381321 71.9609375 290.6015625 C70.93226563 290.33472656 69.90359375 290.06789063 68.84375 289.79296875 C57.02018453 286.26471645 45.58864656 280.29853481 35.78125 272.8515625 C34.05418286 271.41286974 34.05418286 271.41286974 31.9609375 271.6015625 Z M-155.28125 328.1796875 C-162.52526713 338.16033332 -166.53441394 349.6301914 -169.0390625 361.6015625 C-169.23113281 362.50519531 -169.42320312 363.40882813 -169.62109375 364.33984375 C-170.23300931 369.11507265 -170.26366459 373.85433375 -170.2890625 378.6640625 C-170.3096875 379.64439453 -170.3303125 380.62472656 -170.3515625 381.63476562 C-170.53713207 388.7239745 -170.53713207 388.7239745 -167.0390625 394.6015625 C-164.48780488 395.89767159 -162.21908054 396.87873873 -159.5390625 397.7890625 C-158.46374268 398.17022217 -158.46374268 398.17022217 -157.36669922 398.55908203 C-135.58062717 406.05216305 -115.43026926 401.50870443 -95.0234375 392.23046875 C-88.58078181 388.82589172 -84.34823456 384.61026051 -82.0390625 377.6015625 C-80.38865197 365.00428836 -82.93903296 354.11872894 -90.3515625 343.72265625 C-100.03759192 331.54785539 -114.30498537 321.52344306 -130.0390625 319.6015625 C-140.03996564 318.71097113 -148.30799268 320.59018884 -155.28125 328.1796875 Z " fill="#000000" transform="translate(820.0390625,516.3984375)"/>
<path d="M0 0 C2.5996132 2.00541589 4.02820893 3.62432473 4.5234375 6.9296875 C4.81319626 26.45942804 -6.48179744 42.35923006 -19.26708984 56.12402344 C-26.47968568 63.42093714 -26.47968568 63.42093714 -30.9375 64.3125 C-36.47983423 63.10764473 -39.67662989 58.86380906 -43.0625 54.5625 C-46.85112748 49.80764538 -50.84572404 45.35439587 -55.0625 40.9765625 C-57.08266118 38.33411953 -57.73401334 37.01337239 -57.8125 33.6875 C-56.03370557 27.93911654 -53.31789209 24.52470853 -48.8125 20.625 C-48.18891602 20.08133789 -47.56533203 19.53767578 -46.92285156 18.97753906 C-36.99288821 10.84376489 -12.76262761 -5.95589288 0 0 Z M-14.69921875 12.06640625 C-15.63830078 12.57623047 -16.57738281 13.08605469 -17.54492188 13.61132812 C-18.52009766 14.15208984 -19.49527344 14.69285156 -20.5 15.25 C-21.45583984 15.76369141 -22.41167969 16.27738281 -23.39648438 16.80664062 C-29.68145977 20.25545125 -35.28698617 24.12859042 -40.8125 28.6875 C-41.823125 29.491875 -42.83375 30.29625 -43.875 31.125 C-44.514375 31.640625 -45.15375 32.15625 -45.8125 32.6875 C-44.215738 36.3079657 -41.9974491 39.13179757 -39.5 42.1875 C-38.36111328 43.59515625 -38.36111328 43.59515625 -37.19921875 45.03125 C-34.90619811 47.5832206 -32.55143391 49.63208765 -29.8125 51.6875 C-18.39632532 40.04048355 -7.28104034 26.57571388 -5.8125 9.6875 C-9.94272324 9.6875 -11.19397972 10.16228032 -14.69921875 12.06640625 Z " fill="#000000" transform="translate(1059.8125,593.3125)"/>
<path d="M0 0 C2.64442441 1.64383139 3.69784519 3.0077626 4.60546875 5.98828125 C5.49820563 11.10605007 4.91842048 14.83046309 2.30078125 19.328125 C0.18529065 22.04713395 -1.70806392 23.0782579 -5 24 C-8.25 23.4375 -8.25 23.4375 -11 22 C-13.62227199 17.8436097 -13.66651772 13.7700184 -13 9 C-10.53306419 2.55923163 -7.12773694 -0.87278411 0 0 Z " fill="#000000" transform="translate(882,638)"/>
<path d="M0 0 C2.61593153 1.83115207 2.96989455 2.90968366 4 6 C4.42594461 12.49565535 3.6660612 16.4856466 -0.375 21.8125 C-2.63711803 23.46558625 -4.19850432 23.86659544 -7 24 C-10.04161475 22.72676592 -11.58126983 21.64712845 -13.375 18.875 C-14.39507671 14.18264714 -14.1945634 9.50910479 -12.10546875 5.12109375 C-8.71444347 -0.14960097 -6.10840443 -0.42865996 0 0 Z " fill="#000000" transform="translate(952,648)"/>
<path d="M0 0 C3.84854936 3.42093276 4.74957487 6.75715918 5.10546875 11.71484375 C4.933845 15.43335837 3.84744885 17.76696451 2 21 C-1.49124017 23.32749345 -2.89222251 23.50299316 -7 23 C-9.84780619 20.76793569 -10.84997666 19.45007001 -12 16 C-12.56187335 10.32724023 -12.30775098 5.84349251 -9 1 C-5.89567689 -1.37998105 -3.62273938 -1.35852727 0 0 Z " fill="#000000" transform="translate(721,658)"/>
<path d="M0 0 C3.30649698 2.30180175 4.72183858 5.36827429 5.72265625 9.19921875 C5.9365467 13.40803079 5.2882212 16.91098748 3.59765625 20.76171875 C1.72265625 22.19921875 1.72265625 22.19921875 -1.65234375 22.82421875 C-5.39896805 22.17824904 -5.87335413 22.02720644 -8.15234375 19.32421875 C-10.84570064 15.36339979 -11.45121669 13.55678451 -11.52734375 8.82421875 C-11.553125 7.86773438 -11.57890625 6.91125 -11.60546875 5.92578125 C-11.22508005 2.7649323 -10.48582636 1.45930142 -8.27734375 -0.80078125 C-4.83181637 -1.94929038 -3.24807478 -1.52404358 0 0 Z " fill="#000000" transform="translate(670.27734375,668.80078125)"/>
<path d="M0 0 C1.0219043 0.11891602 1.0219043 0.11891602 2.06445312 0.24023438 C7.50259829 0.96636519 12.01101287 2.38601287 15.9375 6.3125 C16.70883115 14.37933832 13.11194721 21.64511593 8.9375 28.3125 C8.21175781 28.94414063 7.48601563 29.57578125 6.73828125 30.2265625 C4.63481595 32.26921734 4.63481595 32.26921734 4.5546875 35.5625 C5.43552662 44.19112812 7.92824182 55.02730761 14.34765625 61.234375 C17.34007059 63.26362895 19.34828723 63.49500234 22.9375 63.3125 C27.70766995 61.76825854 32.13324626 59.62054673 35.9375 56.3125 C38.2475 58.2925 40.5575 60.2725 42.9375 62.3125 C40.00042645 68.18664709 35.56909499 70.89488067 29.5625 73.125 C23.37820313 74.95193999 17.74714085 75.39512676 11.75 72.75 C5.11261067 69.00244817 1.42343751 62.88215146 -2.0625 56.3125 C-2.48660156 56.97636719 -2.91070313 57.64023437 -3.34765625 58.32421875 C-7.64883419 64.79961851 -11.44608419 69.77369473 -19.0625 72.3125 C-28.44203537 73.46139891 -35.63644633 69.80132228 -43.0625 64.3125 C-45.43645306 62.35350621 -47.75121505 60.34643075 -50.0625 58.3125 C-48.0825 56.0025 -46.1025 53.6925 -44.0625 51.3125 C-40.53994093 52.41329971 -38.08111639 54.02303704 -35.25 56.3125 C-31.17908601 59.43276741 -28.18654689 60.73397858 -23.0625 61.3125 C-17.99009722 59.92007571 -15.74541912 57.15331072 -13.2265625 52.765625 C-10.29420672 46.5860296 -8.29118661 40.03341575 -7.0625 33.3125 C-7.619375 33.126875 -8.17625 32.94125 -8.75 32.75 C-14.88593862 28.93576788 -16.95374433 22.72944902 -18.5546875 16.03125 C-20.22633169 7.08152417 -20.22633169 7.08152417 -17.5 2.9375 C-11.92035334 -0.78226444 -6.44129709 -0.93769596 0 0 Z " fill="#000000" transform="translate(901.0625,679.6875)"/>
<path d="M0 0 C2.375 1.625 2.375 1.625 3.375 3.625 C4.23190733 13.16336193 3.18689169 21.80373905 -2.13671875 29.93359375 C-2.62785156 30.49175781 -3.11898437 31.04992187 -3.625 31.625 C-4.285 31.625 -4.945 31.625 -5.625 31.625 C-1.2605286 45.58366062 -1.2605286 45.58366062 7.875 56.6875 C11.16501961 57.92125735 12.86635612 58.23226529 16.375 57.625 C22.31432251 54.46532386 27.38259455 50.08629849 32.375 45.625 C34.685 47.605 36.995 49.585 39.375 51.625 C33.08306768 59.33261709 26.22281759 67.68231921 15.7734375 68.9375 C9.52030797 69.21312003 4.35678275 68.61251939 -0.625 64.625 C-3.19475111 61.77571489 -5.46045834 58.79064217 -7.625 55.625 C-9.24621954 58.05682931 -10.58615204 60.42055405 -11.9375 63 C-15.25563275 68.97651981 -19.02894235 73.3463619 -25.625 75.625 C-33.61951916 76.57369837 -40.59405781 75.64818996 -47.625 71.625 C-49.58233962 70.06531403 -51.01312131 68.55925443 -52.625 66.625 C-50.645 64.315 -48.665 62.005 -46.625 59.625 C-45.91214844 59.9859375 -45.19929687 60.346875 -44.46484375 60.71875 C-36.91562392 64.42056236 -36.91562392 64.42056236 -28.625 64.625 C-23.90030157 62.88623815 -22.77006716 59.77143194 -20.7265625 55.40234375 C-17.71325959 47.80497365 -17.20914946 39.71085826 -16.625 31.625 C-17.23472656 31.33625 -17.84445312 31.0475 -18.47265625 30.75 C-24.9655707 27.35624435 -28.01543212 21.16884008 -30.625 14.625 C-31.55899021 11.62288861 -31.73635416 9.85427064 -31.625 6.625 C-25.29432188 -1.81590416 -9.27909955 -3.51965845 0 0 Z " fill="#000000" transform="translate(711.625,689.375)"/>
<path d="M0 0 C10.57309623 -0.63018454 22.02200196 3.35115213 29.99609375 10.2890625 C38.91552231 19.6011703 41.33329518 29.08887434 41.2109375 41.63818359 C40.91246614 51.58101076 37.89672538 58.34855191 31.859375 66.234375 C31.43011719 66.80285156 31.00085938 67.37132812 30.55859375 67.95703125 C24.59121079 74.83976499 14.56544161 77.7998306 5.73046875 78.47265625 C-5.52523209 78.71595354 -14.6473328 76.27556095 -24.140625 70.234375 C-24.140625 69.574375 -24.140625 68.914375 -24.140625 68.234375 C-24.73746094 67.98558594 -25.33429687 67.73679687 -25.94921875 67.48046875 C-31.49000251 64.32982701 -34.2542778 57.67359743 -36.015625 51.796875 C-38.72327097 40.26134186 -37.68302193 27.52954921 -31.5546875 17.26953125 C-28.39432352 12.7210516 -25.49839623 9.49657136 -20.765625 6.546875 C-19.85039063 5.96550781 -18.93515625 5.38414062 -17.9921875 4.78515625 C-12.17314698 1.62055476 -6.51098357 0.71288141 0 0 Z M-14.015625 26.296875 C-18.21887646 32.10725202 -17.58414556 38.3137806 -17.140625 45.234375 C-16.14709251 50.36610703 -13.18905035 53.84732017 -9.15234375 57.00390625 C-3.97284772 60.17194751 1.12639135 60.58750535 7.046875 59.671875 C12.76111138 58.2876811 16.0416923 55.80831985 19.46484375 50.9609375 C22.2446851 45.52584152 22.48801366 38.75362891 21.421875 32.78515625 C19.50513508 27.0676082 16.09546902 23.81600247 11.296875 20.421875 C1.55562626 17.05671634 -7.16555073 18.51534587 -14.015625 26.296875 Z " fill="#000000" transform="translate(634.140625,999.765625)"/>
<path d="M0 0 C5.36652687 4.890464 8.44090231 10.73161586 9.9375 17.765625 C8.06444353 20.26967567 7.13064042 20.7373419 3.9765625 21.19921875 C2.84992188 21.20050781 1.72328125 21.20179687 0.5625 21.203125 C-0.55898438 21.22246094 -1.68046875 21.24179688 -2.8359375 21.26171875 C-6.67126718 20.6720252 -8.35034199 19.49301986 -11.0625 16.765625 C-11.0625 16.105625 -11.0625 15.445625 -11.0625 14.765625 C-11.7225 14.765625 -12.3825 14.765625 -13.0625 14.765625 C-14.08354551 13.78712305 -15.0831121 12.78582073 -16.0625 11.765625 C-19.09406857 10.24984072 -21.94216614 10.51590573 -25.3125 10.453125 C-27.26929688 10.39705078 -27.26929688 10.39705078 -29.265625 10.33984375 C-33.65122172 10.8316442 -35.68963966 11.97224287 -39.0625 14.765625 C-44.27015826 21.40003895 -44.90301743 28.63732699 -44.0625 36.765625 C-42.43923044 42.51437477 -39.97159876 46.66458642 -34.875 49.890625 C-29.95226927 52.1802672 -25.40004551 52.8331341 -20.0625 51.765625 C-14.28794977 49.38311826 -10.87065555 45.55302055 -7.0625 40.765625 C-3.83852808 39.69096769 -1.38779214 39.59870697 2 39.578125 C3.06347656 39.56394531 4.12695312 39.54976562 5.22265625 39.53515625 C7.9375 39.765625 7.9375 39.765625 9.9375 41.765625 C9.82020353 48.70077908 6.32179799 54.62641477 1.9375 59.765625 C-7.11716308 68.19582856 -16.99936636 70.26833414 -29.125 70.05078125 C-40.46912276 69.22923268 -49.32313225 64.20086902 -57.1640625 56.1796875 C-64.13360384 47.31718432 -65.93892376 36.11669143 -64.7890625 25.16015625 C-63.26365861 14.95721891 -59.37575892 6.15683345 -51.0625 -0.234375 C-35.12592537 -10.68973381 -15.90207749 -11.57577699 0 0 Z " fill="#000000" transform="translate(824.0625,1008.234375)"/>
<path d="M0 0 C0.70687958 -0.00287018 1.41375916 -0.00574036 2.14205933 -0.00869751 C3.63996174 -0.0107385 5.13789079 -0.00520607 6.63574219 0.00732422 C8.90101805 0.02323612 11.16447066 0.00755338 13.4296875 -0.01171875 C24.26982577 -0.02901708 32.99338173 0.70771469 41.140625 8.44921875 C45.35014028 13.38008289 46.29930341 18.87288802 46.11328125 25.23046875 C45.79553369 27.4627459 45.19909132 29.1155681 44.2421875 31.1484375 C42.66108943 34.723094 42.42609477 35.81409639 43.8046875 39.3984375 C45.10041133 41.42300598 46.4320193 43.42522697 47.8046875 45.3984375 C49.82983272 51.47387316 49.90515239 58.85079281 47.3046875 64.7734375 C43.95934399 70.40770026 39.32754414 73.60160376 33.15625 75.55078125 C26.29968598 76.9408444 19.24723083 76.65908131 12.28198242 76.60424805 C9.84869078 76.58579725 7.41577674 76.58374014 4.98242188 76.58398438 C3.43489253 76.57907514 1.88736575 76.57324943 0.33984375 76.56640625 C-0.75069557 76.56473701 -0.75069557 76.56473701 -1.86326599 76.56303406 C-6.9630201 76.5145837 -6.9630201 76.5145837 -9.1953125 75.3984375 C-10.33055742 71.99270275 -10.33617778 69.36332164 -10.35644531 65.77148438 C-10.36141022 65.1028688 -10.36637512 64.43425323 -10.37149048 63.74537659 C-10.38608342 61.53596974 -10.392908 59.3266346 -10.3984375 57.1171875 C-10.40418973 55.58166502 -10.40994745 54.04614256 -10.41571045 52.51062012 C-10.42621116 49.29272121 -10.43206043 46.07484722 -10.43554688 42.85693359 C-10.44104071 38.73075972 -10.46509127 34.60491434 -10.49351883 30.47884369 C-10.51212436 27.30815662 -10.5173496 24.13754918 -10.51888275 20.96681213 C-10.52191272 19.44533994 -10.52995287 17.92386925 -10.54306793 16.40245056 C-10.56009143 14.27650746 -10.55825826 12.15137391 -10.55175781 10.02539062 C-10.55722626 8.21028992 -10.55722626 8.21028992 -10.56280518 6.35852051 C-10.1953125 3.3984375 -10.1953125 3.3984375 -8.87472534 1.5085144 C-6.0665529 -0.34766252 -3.31021508 0.00855353 0 0 Z M10.05078125 18.6953125 C7.98234074 21.52239733 8.443602 24.02830612 8.8046875 27.3984375 C10.37960677 29.53442175 11.26571289 30.29548729 13.890625 30.796875 C20.39348659 30.75340122 20.39348659 30.75340122 25.8046875 27.3984375 C26.88044628 24.44482577 26.88044628 24.44482577 26.8046875 21.3984375 C25.18807226 18.3329486 25.18807226 18.3329486 22.96484375 17.7265625 C20.70280637 17.38296189 18.53020273 17.19489466 16.2421875 17.1484375 C15.47777344 17.12265625 14.71335937 17.096875 13.92578125 17.0703125 C11.73304132 17.24133625 11.73304132 17.24133625 10.05078125 18.6953125 Z M8.8046875 48.3984375 C8.4863035 50.5383007 8.4863035 50.5383007 8.5546875 52.8984375 C8.54953125 53.6925 8.544375 54.4865625 8.5390625 55.3046875 C8.61528841 57.61736501 8.61528841 57.61736501 10.8046875 59.3984375 C13.31205927 59.624512 15.67315558 59.72280555 18.1796875 59.7109375 C19.18902344 59.73510742 19.18902344 59.73510742 20.21875 59.75976562 C23.3070668 59.76280531 25.50951933 59.55448182 28.2578125 58.1015625 C30.16594948 56.33783899 30.16594948 56.33783899 30.1796875 52.8359375 C30.16108158 49.33732996 30.16108158 49.33732996 27.8046875 47.3984375 C24.32706338 46.15189187 20.84353202 46.23161382 17.1796875 46.2109375 C15.45878906 46.18966797 15.45878906 46.18966797 13.703125 46.16796875 C10.67742849 46.09314092 10.67742849 46.09314092 8.8046875 48.3984375 Z " fill="#000000" transform="translate(539.1953125,1000.6015625)"/>
<path d="M0 0 C2.18163379 -0.0096245 4.36229167 -0.04061875 6.54370117 -0.07226562 C16.74901205 -0.14961068 26.5051132 0.39018064 34.65112305 7.24023438 C41.11307947 14.49440181 43.08482188 20.64107746 42.9050293 30.33789062 C42.35401618 36.63639442 39.25206456 41.12922061 35.65112305 46.24023438 C33.44523448 48.9383804 33.44523448 48.9383804 33.67456055 51.39648438 C35.41644629 56.46885567 38.79695248 60.65135691 41.87768555 65.00195312 C45.68552419 70.60463237 45.68552419 70.60463237 45.48706055 74.27148438 C45.21120117 74.92117188 44.9353418 75.57085938 44.65112305 76.24023438 C41.92135241 76.32149546 39.19402135 76.380851 36.46362305 76.42773438 C35.69469727 76.45287109 34.92577148 76.47800781 34.13354492 76.50390625 C29.48371542 76.5637753 26.27536951 76.46038367 22.65112305 73.24023438 C20.86335749 70.66369476 19.40695914 67.95867665 17.96362305 65.17773438 C17.19169338 63.72701697 16.41706835 62.27772968 15.6394043 60.83007812 C15.13727417 59.86896118 15.13727417 59.86896118 14.625 58.88842773 C13.63693163 57.05999949 13.63693163 57.05999949 11.65112305 55.24023438 C9.44861312 54.78017092 9.44861312 54.78017092 7.02612305 54.61523438 C6.20885742 54.54046875 5.3915918 54.46570312 4.54956055 54.38867188 C3.92307617 54.3396875 3.2965918 54.29070312 2.65112305 54.24023438 C2.63654053 54.80009033 2.62195801 55.35994629 2.60693359 55.93676758 C2.53240953 58.47611575 2.43576723 61.01415515 2.33862305 63.55273438 C2.31606445 64.43380859 2.29350586 65.31488281 2.27026367 66.22265625 C2.21708984 67.49399414 2.21708984 67.49399414 2.1628418 68.79101562 C2.13665771 69.57130127 2.11047363 70.35158691 2.08349609 71.15551758 C1.54589064 73.74761975 0.75037549 74.66107953 -1.34887695 76.24023438 C-4.38012695 76.63867188 -4.38012695 76.63867188 -7.84887695 76.61523438 C-9.5659082 76.62683594 -9.5659082 76.62683594 -11.31762695 76.63867188 C-14.34887695 76.24023438 -14.34887695 76.24023438 -16.01605225 75.13624573 C-18.01716614 72.2895588 -17.71554562 69.95725248 -17.70532227 66.50561523 C-17.70736664 65.8256398 -17.70941101 65.14566437 -17.71151733 64.44508362 C-17.71452478 62.1981413 -17.6960514 59.95193318 -17.67700195 57.70507812 C-17.67394434 56.14474164 -17.67206824 54.58440242 -17.67132568 53.02406311 C-17.66672299 49.75478665 -17.65229767 46.48575657 -17.63012695 43.21655273 C-17.6018212 39.0208862 -17.59091306 34.82541356 -17.58644485 30.62966061 C-17.58229311 27.40839184 -17.57247806 24.18716246 -17.56056976 20.96591377 C-17.5548634 19.41851683 -17.5501059 17.87111609 -17.5463028 16.3237133 C-17.53944656 14.16422713 -17.52581784 12.00489585 -17.51000977 9.84545898 C-17.50318176 8.61540634 -17.49635376 7.3853537 -17.48931885 6.11802673 C-17.34887695 3.24023438 -17.34887695 3.24023438 -16.34887695 1.24023438 C-11.11196192 -0.50540397 -5.48337224 0.01461421 0 0 Z M1.65112305 19.24023438 C1.40161843 21.83032991 1.32392568 24.15894727 1.40112305 26.74023438 C1.4062793 27.42988281 1.41143555 28.11953125 1.41674805 28.83007812 C1.43412274 32.66319434 1.43412274 32.66319434 2.65112305 36.24023438 C9.5775125 37.69324667 15.5375763 37.9615237 21.65112305 34.24023438 C24.11569571 30.54337538 24.32851218 27.53036557 23.65112305 23.24023438 C21.91887718 20.22484342 20.79270195 18.67672043 17.52612305 17.42773438 C9.18544543 16.52526931 9.18544543 16.52526931 1.65112305 19.24023438 Z " fill="#000000" transform="translate(705.348876953125,1000.759765625)"/>
<path d="M0 0 C0.82593155 -0.00191345 1.6518631 -0.0038269 2.50282288 -0.00579834 C4.24692083 -0.00715726 5.991029 -0.0034813 7.73510742 0.00488281 C10.39720533 0.01557299 13.05862634 0.00498476 15.72070312 -0.0078125 C17.41797023 -0.00649059 19.11523692 -0.00392753 20.8125 0 C21.60534897 -0.00404846 22.39819794 -0.00809692 23.21507263 -0.01226807 C23.96257278 -0.00596375 24.71007294 0.00034058 25.48022461 0.00683594 C26.45807167 0.00922272 26.45807167 0.00922272 27.45567322 0.01165771 C29.47265625 0.265625 29.47265625 0.265625 34.47265625 2.265625 C34.47265625 6.885625 34.47265625 11.505625 34.47265625 16.265625 C31.96717548 17.51836538 30.11765874 17.45663589 27.31640625 17.546875 C25.78306641 17.60294922 25.78306641 17.60294922 24.21875 17.66015625 C20.97265625 17.765625 20.97265625 17.765625 17.7265625 17.87109375 C16.19322266 17.92716797 16.19322266 17.92716797 14.62890625 17.984375 C13.21834961 18.02981445 13.21834961 18.02981445 11.77929688 18.07617188 C9.44624051 18.12362596 9.44624051 18.12362596 7.47265625 19.265625 C7.47265625 21.905625 7.47265625 24.545625 7.47265625 27.265625 C16.80519903 28.07715556 16.80519903 28.07715556 26.16015625 28.140625 C29.47265625 28.265625 29.47265625 28.265625 31.1640625 29.39453125 C33.035716 32.0707164 32.80114884 34.098155 32.72265625 37.328125 C32.7071875 38.39160156 32.69171875 39.45507812 32.67578125 40.55078125 C32.47265625 43.265625 32.47265625 43.265625 31.47265625 45.265625 C23.55265625 45.595625 15.63265625 45.925625 7.47265625 46.265625 C7.47265625 49.895625 7.47265625 53.525625 7.47265625 57.265625 C9.20846157 59.00143032 11.60445726 58.45676102 13.96875 58.51171875 C15.08443359 58.54458984 16.20011719 58.57746094 17.34960938 58.61132812 C19.71930605 58.67242288 22.08910353 58.72972755 24.45898438 58.78320312 C26.13444336 58.83444336 26.13444336 58.83444336 27.84375 58.88671875 C29.38953735 58.92430298 29.38953735 58.92430298 30.96655273 58.96264648 C33.47265625 59.265625 33.47265625 59.265625 35.47265625 61.265625 C35.73828125 64.234375 35.73828125 64.234375 35.72265625 67.765625 C35.73039063 69.51359375 35.73039063 69.51359375 35.73828125 71.296875 C35.47265625 74.265625 35.47265625 74.265625 33.47265625 76.265625 C31.61988831 76.52632141 31.61988831 76.52632141 29.34594727 76.5402832 C28.49488907 76.54981522 27.64383087 76.55934723 26.76698303 76.56916809 C25.38572487 76.56780098 25.38572487 76.56780098 23.9765625 76.56640625 C23.03207748 76.57069138 22.08759247 76.5749765 21.11448669 76.57939148 C19.1146627 76.58514086 17.1148178 76.58563058 15.11499023 76.58129883 C12.05090721 76.57814123 8.9877915 76.60158226 5.92382812 76.62695312 C3.98307414 76.62922625 2.04231755 76.62992956 0.1015625 76.62890625 C-1.27665932 76.64272087 -1.27665932 76.64272087 -2.682724 76.65681458 C-3.53693436 76.65058578 -4.39114471 76.64435699 -5.27124023 76.63793945 C-6.02243637 76.63856888 -6.77363251 76.6391983 -7.54759216 76.6398468 C-9.52734375 76.265625 -9.52734375 76.265625 -11.27206421 75.17098999 C-13.1796104 72.27556183 -12.88618834 69.84802367 -12.86791992 66.4074707 C-12.868358 65.71452911 -12.86879608 65.02158752 -12.86924744 64.30764771 C-12.8671584 62.01861332 -12.84382301 59.73031258 -12.8203125 57.44140625 C-12.81471693 55.85386048 -12.81044665 54.26630952 -12.80744934 52.67875671 C-12.79599743 48.50126837 -12.76652748 44.32409317 -12.7333374 40.14672852 C-12.70264386 35.88366939 -12.68894555 31.62055965 -12.67382812 27.35742188 C-12.64165792 18.99334592 -12.59045762 10.62952442 -12.52734375 2.265625 C-8.38852909 -0.04983296 -4.64752079 -0.02367083 0 0 Z " fill="#000000" transform="translate(858.52734375,1000.734375)"/>
<path d="M0 0 C1.15628906 -0.01417969 2.31257812 -0.02835938 3.50390625 -0.04296875 C6.4375 0.1875 6.4375 0.1875 8.4375 2.1875 C8.70924377 4.46459961 8.70924377 4.46459961 8.74047852 7.33984375 C8.75712051 8.41435791 8.77376251 9.48887207 8.79090881 10.59594727 C8.79932297 11.76053467 8.80773712 12.92512207 8.81640625 14.125 C8.83340073 15.31601318 8.8503952 16.50702637 8.86790466 17.73413086 C8.92119102 21.55186623 8.96139893 25.36959005 9 29.1875 C9.04387511 33.00535353 9.09055212 36.8231209 9.14280701 40.64086914 C9.17484619 43.02019826 9.20171033 45.39960349 9.22303772 47.77905273 C9.23652756 48.85356689 9.2500174 49.92808105 9.26391602 51.03515625 C9.27342789 51.98398682 9.28293976 52.93281738 9.29273987 53.91040039 C9.29107661 56.21929199 9.29107661 56.21929199 10.4375 58.1875 C18.6875 58.5175 26.9375 58.8475 35.4375 59.1875 C36.79300385 61.8985077 36.60667207 64.10089169 36.625 67.125 C36.63917969 68.18589844 36.65335938 69.24679687 36.66796875 70.33984375 C36.4375 73.1875 36.4375 73.1875 34.4375 76.1875 C32.6159668 76.55499268 32.6159668 76.55499268 30.38671875 76.54394531 C29.55245361 76.54694641 28.71818848 76.54994751 27.85864258 76.55303955 C26.95654053 76.54069275 26.05443848 76.52834595 25.125 76.515625 C24.20033936 76.51375183 23.27567871 76.51187866 22.32299805 76.50994873 C20.36601156 76.50321958 18.40903872 76.48928804 16.45214844 76.46875 C13.44974326 76.43762691 10.4478629 76.42778359 7.4453125 76.421875 C5.54686857 76.41270397 3.64843001 76.40232788 1.75 76.390625 C0.84789795 76.38637512 -0.0542041 76.38212524 -0.98364258 76.37774658 C-1.81790771 76.36813904 -2.65217285 76.35853149 -3.51171875 76.34863281 C-4.24737061 76.34180481 -4.98302246 76.33497681 -5.7409668 76.32794189 C-7.5625 76.1875 -7.5625 76.1875 -9.5625 75.1875 C-10.86346438 71.71643823 -10.68944926 68.18996132 -10.69189453 64.52294922 C-10.69364685 63.8623349 -10.69539917 63.20172058 -10.69720459 62.52108765 C-10.70159413 60.34476062 -10.69869602 58.1685153 -10.6953125 55.9921875 C-10.69598621 54.47811874 -10.6969568 52.96405008 -10.69821167 51.44998169 C-10.69968458 48.28093432 -10.69754655 45.11191518 -10.69287109 41.94287109 C-10.68716429 37.87616171 -10.69046138 33.80951819 -10.69644356 29.7428112 C-10.70005184 26.61849468 -10.69890952 23.49419385 -10.69631577 20.36987686 C-10.69564774 18.8699251 -10.69647059 17.36997193 -10.69879532 15.87002182 C-10.70132726 13.77772983 -10.69747404 11.68554565 -10.69189453 9.59326172 C-10.69109894 8.40175507 -10.69030334 7.21024841 -10.68948364 5.9826355 C-10.5625 3.1875 -10.5625 3.1875 -9.5625 1.1875 C-6.1971364 0.06571213 -3.5421245 0.01978841 0 0 Z " fill="#000000" transform="translate(918.5625,1000.8125)"/>
<path d="M0 0 C1.1446875 -0.04898438 2.289375 -0.09796875 3.46875 -0.1484375 C6.5 0.375 6.5 0.375 8.16816711 2.56816101 C9.61219794 5.61145725 9.8645182 7.46395775 9.84057617 10.80786133 C9.84034958 11.86858353 9.84012299 12.92930573 9.83988953 14.02217102 C9.82440567 15.1556749 9.80892181 16.28917877 9.79296875 17.45703125 C9.78872391 18.62634689 9.78447906 19.79566254 9.78010559 21.00041199 C9.76333285 24.729677 9.72568192 28.45839872 9.6875 32.1875 C9.67245141 34.71809115 9.65876331 37.24869077 9.64648438 39.77929688 C9.61598776 45.97824154 9.55726056 52.17601368 9.5 58.375 C22.37 58.87 22.37 58.87 35.5 59.375 C36.9241906 62.22338121 36.66995508 64.70287908 36.6875 67.875 C36.70167969 69.0403125 36.71585938 70.205625 36.73046875 71.40625 C36.5 74.375 36.5 74.375 34.5 76.375 C32.6784668 76.62223816 32.6784668 76.62223816 30.44921875 76.61791992 C29.61495361 76.62099655 28.78068848 76.62407318 27.92114258 76.62724304 C26.5679895 76.61646477 26.5679895 76.61646477 25.1875 76.60546875 C23.80050903 76.60478142 23.80050903 76.60478142 22.38549805 76.6040802 C20.42853514 76.60105625 18.47157468 76.59316569 16.51464844 76.58081055 C13.51228344 76.56257461 10.51022705 76.56030069 7.5078125 76.56054688 C5.60937232 76.55563097 3.71093424 76.54980234 1.8125 76.54296875 C0.91039795 76.54185593 0.0082959 76.5407431 -0.92114258 76.53959656 C-1.75540771 76.53321671 -2.58967285 76.52683685 -3.44921875 76.52026367 C-4.55269653 76.51454597 -4.55269653 76.51454597 -5.6784668 76.50871277 C-7.5 76.375 -7.5 76.375 -9.5 75.375 C-9.6706575 67.89024966 -9.83004249 60.4053155 -9.98217773 52.92016602 C-10.03501874 50.38235237 -10.09028958 47.84458795 -10.14819336 45.30688477 C-10.48178873 30.60838261 -10.5910503 16.04331235 -9.5 1.375 C-6.18670139 0.27056713 -3.48785734 0.10212195 0 0 Z " fill="#000000" transform="translate(976.5,1000.625)"/>
<path d="M0 0 C0.82497482 -0.00191345 1.64994965 -0.0038269 2.49992371 -0.00579834 C4.24580185 -0.00715917 5.99169014 -0.00346981 7.73754883 0.00488281 C10.39753259 0.0155431 13.0568347 0.00500541 15.71679688 -0.0078125 C17.41536606 -0.00649009 19.11393483 -0.003926 20.8125 0 C21.60332474 -0.00404846 22.39414948 -0.00809692 23.2089386 -0.01226807 C27.72807026 0.02568567 31.34775057 0.55693826 35.60546875 2.265625 C35.65933504 4.39035076 35.69819946 6.51546152 35.73046875 8.640625 C35.75367188 9.82398438 35.776875 11.00734375 35.80078125 12.2265625 C35.60546875 15.265625 35.60546875 15.265625 33.60546875 17.265625 C31.29882812 17.56860352 31.29882812 17.56860352 28.44921875 17.64453125 C27.42699219 17.67869141 26.40476562 17.71285156 25.3515625 17.74804688 C24.28035156 17.77447266 23.20914062 17.80089844 22.10546875 17.828125 C19.99076851 17.88792699 17.87617147 17.95153813 15.76171875 18.01953125 C14.35116211 18.05542358 14.35116211 18.05542358 12.91210938 18.09204102 C10.57866752 18.12117846 10.57866752 18.12117846 8.60546875 19.265625 C8.60546875 21.905625 8.60546875 24.545625 8.60546875 27.265625 C10.95945345 27.43528155 13.31360259 27.6014185 15.66796875 27.765625 C17.63443359 27.90484375 17.63443359 27.90484375 19.640625 28.046875 C23.57854759 28.32775124 23.57854759 28.32775124 27.4140625 28.109375 C30.60546875 28.265625 30.60546875 28.265625 32.52734375 29.38671875 C34.07869421 32.09034038 33.93065486 34.23421643 33.85546875 37.328125 C33.84 38.39160156 33.82453125 39.45507812 33.80859375 40.55078125 C33.60546875 43.265625 33.60546875 43.265625 32.60546875 45.265625 C24.68546875 45.595625 16.76546875 45.925625 8.60546875 46.265625 C8.60546875 49.895625 8.60546875 53.525625 8.60546875 57.265625 C10.34127407 59.00143032 12.73726976 58.45676102 15.1015625 58.51171875 C16.21724609 58.54458984 17.33292969 58.57746094 18.48242188 58.61132812 C20.85211855 58.67242288 23.22191603 58.72972755 25.59179688 58.78320312 C27.26725586 58.83444336 27.26725586 58.83444336 28.9765625 58.88671875 C30.52234985 58.92430298 30.52234985 58.92430298 32.09936523 58.96264648 C34.60546875 59.265625 34.60546875 59.265625 36.60546875 61.265625 C36.87109375 64.234375 36.87109375 64.234375 36.85546875 67.765625 C36.86320312 69.51359375 36.86320312 69.51359375 36.87109375 71.296875 C36.60546875 74.265625 36.60546875 74.265625 34.60546875 76.265625 C32.75270081 76.52632141 32.75270081 76.52632141 30.47875977 76.5402832 C29.62770157 76.54981522 28.77664337 76.55934723 27.89979553 76.56916809 C26.51853737 76.56780098 26.51853737 76.56780098 25.109375 76.56640625 C24.16488998 76.57069138 23.22040497 76.5749765 22.24729919 76.57939148 C20.2474752 76.58514086 18.2476303 76.58563058 16.24780273 76.58129883 C13.18371971 76.57814123 10.120604 76.60158226 7.05664062 76.62695312 C5.11588664 76.62922625 3.17513005 76.62992956 1.234375 76.62890625 C-0.14384682 76.64272087 -0.14384682 76.64272087 -1.5499115 76.65681458 C-2.40412186 76.65058578 -3.25833221 76.64435699 -4.13842773 76.63793945 C-4.88962387 76.63856888 -5.64082001 76.6391983 -6.41477966 76.6398468 C-8.39453125 76.265625 -8.39453125 76.265625 -10.13627625 75.16900635 C-12.0414022 72.28709354 -11.77615909 69.86876544 -11.78271484 66.43920898 C-11.7879718 65.74947998 -11.79322876 65.05975098 -11.79864502 64.34912109 C-11.81184698 62.06975651 -11.80310777 59.7910904 -11.79296875 57.51171875 C-11.79498921 55.9289588 -11.79790042 54.34619975 -11.80166626 52.76344299 C-11.80608966 49.44710421 -11.79965735 46.13100787 -11.78564453 42.81469727 C-11.76853845 38.55833653 -11.77840238 34.30254267 -11.79636192 30.04620266 C-11.80718755 26.77858689 -11.80375934 23.51110618 -11.79597855 20.2434864 C-11.79397387 18.67375687 -11.79644519 17.10401518 -11.80341721 15.53429985 C-11.81101346 13.34341675 -11.79945526 11.15346032 -11.78271484 8.96264648 C-11.77913467 7.09092018 -11.77913467 7.09092018 -11.77548218 5.18138123 C-11.64976837 4.21918167 -11.52405457 3.25698212 -11.39453125 2.265625 C-7.56554854 -0.28703014 -4.43719351 -0.02254218 0 0 Z " fill="#000000" transform="translate(1036.39453125,1000.734375)"/>
<path d="M0 0 C16 0 16 0 22 3 C24.83438524 7.25157785 24.637752 11.00959059 24 16 C22.12563121 19.46037315 20.7780334 20.62866588 17.25 22.3125 C13.36075624 23.13522464 9.96936258 23.13687457 6 23 C6 27.95 6 32.9 6 38 C4.02 38 2.04 38 0 38 C0 25.46 0 12.92 0 0 Z M6 5 C5.92741054 7.18639453 5.91626217 9.37500389 5.9375 11.5625 C5.94652344 12.76003906 5.95554687 13.95757813 5.96484375 15.19140625 C5.97644531 16.11824219 5.98804688 17.04507812 6 18 C11.9023685 18.62427403 11.9023685 18.62427403 17.125 16.4375 C18.40441834 12.87340605 18.05073826 10.61191275 17 7 C14.35824564 4.72515596 12.71154666 4.06468606 9.25 3.75 C7.0325362 3.75923212 7.0325362 3.75923212 6 5 Z " fill="#000000" transform="translate(642,1120)"/>
<path d="M0 0 C7.26 0 14.52 0 22 0 C22 1.65 22 3.3 22 5 C16.72 5 11.44 5 6 5 C6 8.63 6 12.26 6 16 C10.29 16 14.58 16 19 16 C18.67 17.32 18.34 18.64 18 20 C14.37 20.33 10.74 20.66 7 21 C6.67 24.96 6.34 28.92 6 33 C11.61 33 17.22 33 23 33 C23 34.65 23 36.3 23 38 C15.41 38 7.82 38 0 38 C0 25.46 0 12.92 0 0 Z " fill="#000000" transform="translate(690,1120)"/>
<path d="M0 0 C8.25 0 16.5 0 25 0 C25 1.65 25 3.3 25 5 C21.7 5 18.4 5 15 5 C15 15.89 15 26.78 15 38 C13.02 38 11.04 38 9 38 C9 27.11 9 16.22 9 5 C6.03 5 3.06 5 0 5 C0 3.35 0 1.7 0 0 Z " fill="#000000" transform="translate(733,1120)"/>
<path d="M0 0 C0.61875 0.33 1.2375 0.66 1.875 1 C1.215 2.65 0.555 4.3 -0.125 6 C-0.73988281 5.84402344 -1.35476563 5.68804688 -1.98828125 5.52734375 C-2.79652344 5.33269531 -3.60476563 5.13804688 -4.4375 4.9375 C-5.23800781 4.74027344 -6.03851562 4.54304688 -6.86328125 4.33984375 C-9.28457179 3.80114446 -9.28457179 3.80114446 -12.125 5 C-12.61072391 7.84675113 -12.61072391 7.84675113 -12.125 11 C-9.599837 13.11647614 -9.599837 13.11647614 -6.3125 14.625 C0.70625542 18.19726979 0.70625542 18.19726979 2.875 22 C3.43185482 26.2957372 3.15925982 28.46193678 1.125 32.3125 C-1.43577412 35.37120242 -3.27553995 36.73676816 -7.23828125 37.30078125 C-12.64104863 37.32957042 -16.30688448 36.46031431 -21.125 34 C-20.465 32.35 -19.805 30.7 -19.125 29 C-18.279375 29.33 -17.43375 29.66 -16.5625 30 C-12.89600711 31.06661611 -9.92348978 31.22344058 -6.125 31 C-4.91938816 30.01732141 -4.91938816 30.01732141 -5.02734375 28.15234375 C-5.03894531 27.42144531 -5.05054688 26.69054688 -5.0625 25.9375 C-5.083125 24.638125 -5.10375 23.33875 -5.125 22 C-5.970625 21.7525 -6.81625 21.505 -7.6875 21.25 C-16.88743094 17.90457057 -16.88743094 17.90457057 -19.328125 14.1484375 C-20.73934611 10.34367471 -20.30030046 6.83556138 -19.125 3 C-13.96718653 -2.42231673 -6.76159207 -2.16370946 0 0 Z " fill="#000000" transform="translate(800.125,1121)"/>
<path d="M0 0 C1.98 0 3.96 0 6 0 C6 5.28 6 10.56 6 16 C11.28 16 16.56 16 22 16 C22 10.72 22 5.44 22 0 C24.31 0 26.62 0 29 0 C29 12.54 29 25.08 29 38 C26.69 38 24.38 38 22 38 C22 32.06 22 26.12 22 20 C17.05 20.33 12.1 20.66 7 21 C6.67 26.61 6.34 32.22 6 38 C4.02 38 2.04 38 0 38 C0 25.46 0 12.92 0 0 Z " fill="#000000" transform="translate(827,1120)"/>
<path d="M0 0 C5.2789077 4.88298962 6.47188301 9.59748317 6.75 16.5625 C6.65794583 22.08575043 5.80163721 27.67127697 2.0703125 31.953125 C-2.73049925 36.10905159 -6.88728833 36.65995114 -12.9921875 36.59765625 C-17.61758873 36.07171499 -20.33494048 33.63825738 -23.3125 30.25 C-26.9369768 24.33637996 -26.42635373 15.60873895 -25.00390625 9.01171875 C-23.40766007 4.94444741 -20.78918795 2.10830976 -17.5 -0.6875 C-11.65323045 -2.63642318 -5.56047738 -2.68094445 0 0 Z M-16.5 5.3125 C-19.03142562 8.95142433 -18.9021791 12.9097471 -18.9375 17.1875 C-18.97037109 17.88230469 -19.00324219 18.57710937 -19.03710938 19.29296875 C-19.07722584 23.16603098 -18.56701856 25.75240198 -16.2265625 28.77734375 C-13.81085322 31.35397739 -13.81085322 31.35397739 -11.40234375 32.07421875 C-7.61364961 31.93110704 -5.84186934 31.63683758 -3.0625 29 C0.23489518 23.3284803 -0.03432527 17.71341085 -0.5 11.3125 C-1.80381147 7.40106559 -2.72710478 5.89217142 -6 3.4375 C-10.46115846 1.4299787 -12.70290657 2.58638164 -16.5 5.3125 Z " fill="#000000" transform="translate(905.5,1121.6875)"/>
<path d="M0 0 C16 0 16 0 22 3 C24.83438524 7.25157785 24.637752 11.00959059 24 16 C22.12563121 19.46037315 20.7780334 20.62866588 17.25 22.3125 C13.36075624 23.13522464 9.96936258 23.13687457 6 23 C6 27.95 6 32.9 6 38 C4.02 38 2.04 38 0 38 C0 25.46 0 12.92 0 0 Z M6 5 C5.92741054 7.18639453 5.91626217 9.37500389 5.9375 11.5625 C5.94652344 12.76003906 5.95554687 13.95757813 5.96484375 15.19140625 C5.97644531 16.11824219 5.98804688 17.04507812 6 18 C11.9023685 18.62427403 11.9023685 18.62427403 17.125 16.4375 C18.40441834 12.87340605 18.05073826 10.61191275 17 7 C14.35824564 4.72515596 12.71154666 4.06468606 9.25 3.75 C7.0325362 3.75923212 7.0325362 3.75923212 6 5 Z " fill="#000000" transform="translate(936,1120)"/>
</svg>
