<?xml version="1.0" encoding="UTF-8"?>
<svg version="1.1" xmlns="http://www.w3.org/2000/svg" width="219" height="230">
<path d="M0 0 C1.25983704 0.00474335 2.51967407 0.00948669 3.81768799 0.01437378 C11.9188306 0.04586226 20.01944114 0.10002216 28.12021828 0.18391323 C31.99610034 0.22360199 35.87174092 0.25575508 39.74780273 0.27099609 C43.5730524 0.28627629 47.39770392 0.32084168 51.22268486 0.36830902 C52.65487905 0.38291987 54.08715788 0.39102905 55.51942635 0.39188385 C68.66121918 0.40766707 80.26522596 2.00786456 89.90234375 11.48828125 C95.56057344 18.26340544 98.11260455 25.32520894 98.14717102 34.05688477 C98.15790398 35.9196833 98.15790398 35.9196833 98.16885376 37.82011414 C98.17169388 39.19387792 98.17440563 40.56764198 98.17700195 41.94140625 C98.18326974 43.39048932 98.18991682 44.83957079 98.19691467 46.28865051 C98.21792872 51.04658902 98.228318 55.80452773 98.23828125 60.5625 C98.2423305 62.20412208 98.24644747 63.84574398 98.25063133 65.48736572 C98.26968111 73.20488424 98.28390978 80.92239323 98.2922433 88.63993073 C98.30200022 97.52756295 98.32828006 106.41494509 98.36874419 115.30248928 C98.39899253 122.18423127 98.41372061 129.06590195 98.41702431 135.94770908 C98.41936584 140.05168833 98.42820773 144.15540037 98.45348549 148.25930786 C98.47692295 152.12702309 98.4809373 155.99429819 98.47072411 159.86206627 C98.47023233 161.27286946 98.4764456 162.68369548 98.49028015 164.09443092 C98.59531647 175.45120121 96.89334605 185.48705049 90.4375 195.0625 C89.85871094 195.94035156 89.27992188 196.81820312 88.68359375 197.72265625 C87.22410185 199.69686455 85.87346081 201.41715915 84 203 C83.34 203 82.68 203 82 203 C82 203.66 82 204.32 82 205 C64.68071418 215.60364438 49.70472328 211.44622626 27 212 C27 180.65 27 149.3 27 117 C34.85171833 116.39602167 42.20093803 115.88359609 50 116 C50 110.72 50 105.44 50 100 C42.41 100 34.82 100 27 100 C27.1546875 95.0809375 27.1546875 95.0809375 27.3125 90.0625 C27.33739502 89.04808838 27.36229004 88.03367676 27.38793945 86.98852539 C27.67779844 79.72089322 28.6334822 73.04266574 33.1875 67.1875 C40.58877321 61.43095417 46.57060061 60.11508713 56 61 C56.66 61.33 57.32 61.66 58 62 C57.95875 60.906875 57.9175 59.81375 57.875 58.6875 C57.85579162 53.33796618 58.92496931 48.22157765 60 43 C58.88625 42.855625 57.7725 42.71125 56.625 42.5625 C53 42 53 42 51 41 C39.09313419 39.99160094 27.04523182 42.32647207 17 49 C8.72661278 56.07267695 2.7413143 67.9067722 1.75170898 78.71069336 C1.58199459 81.78629814 1.46673601 84.85861009 1.375 87.9375 C1.33632812 89.00291016 1.29765625 90.06832031 1.2578125 91.16601562 C1.16413854 93.77717734 1.07841665 96.38834304 1 99 C-3.14095384 99.60911435 -7.27107169 100.16297948 -11.4375 100.5625 C-12.30246094 100.64628906 -13.16742188 100.73007813 -14.05859375 100.81640625 C-14.69925781 100.87699219 -15.33992188 100.93757813 -16 101 C-15.98839844 101.66386719 -15.97679688 102.32773438 -15.96484375 103.01171875 C-15.95582031 103.89472656 -15.94679688 104.77773437 -15.9375 105.6875 C-15.92589844 106.55761719 -15.91429688 107.42773438 -15.90234375 108.32421875 C-16 111 -16 111 -17 116 C-11.06 116.33 -5.12 116.66 1 117 C1.74988075 122.95986658 2.12843161 128.71548309 2.03759766 134.71679688 C2.02559578 135.94530869 2.02559578 135.94530869 2.01335144 137.19863892 C1.9857481 139.87210284 1.95018167 142.54538864 1.9140625 145.21875 C1.89226785 147.08678805 1.87081944 148.95483016 1.84970093 150.82287598 C1.80440267 154.71953563 1.75519186 158.61612039 1.703125 162.51269531 C1.63653138 167.51754878 1.57940382 172.5224581 1.52509499 177.52745819 C1.48237992 181.37578054 1.43493141 185.22403302 1.38599777 189.07228088 C1.36305075 190.91913646 1.34154732 192.76601054 1.32149124 194.61289978 C1.29285021 197.18147573 1.25790314 199.74988786 1.22119141 202.31835938 C1.2138649 203.08608673 1.20653839 203.85381409 1.19898987 204.64480591 C1.11429514 209.88570486 1.11429514 209.88570486 0 211 C-1.37041607 211.12740108 -2.74711605 211.18824301 -4.12304688 211.22119141 C-5.00410095 211.24429886 -5.88515503 211.26740631 -6.79290771 211.29121399 C-8.24119965 211.3210865 -8.24119965 211.3210865 -9.71875 211.3515625 C-10.71602112 211.37530441 -11.71329224 211.39904633 -12.74078369 211.42350769 C-15.99374919 211.49773679 -19.24678404 211.56275416 -22.5 211.625 C-23.597677 211.64646088 -24.695354 211.66792175 -25.82629395 211.69003296 C-78.95095757 212.69162109 -78.95095757 212.69162109 -91 203 C-91.76957031 202.38382813 -92.53914063 201.76765625 -93.33203125 201.1328125 C-102.60266178 193.32157658 -110.06650791 183.43208654 -111.29265785 171.04295921 C-111.42142426 167.5874509 -111.45927501 164.14224738 -111.46411133 160.68432617 C-111.47751556 159.37580185 -111.4909198 158.06727753 -111.50473022 156.71910095 C-111.54065718 153.15283196 -111.5583152 149.58669199 -111.57197404 146.02027678 C-111.58890705 142.27022826 -111.62096047 138.52030381 -111.65080261 134.77033997 C-111.69858088 128.47184423 -111.73461611 122.17336521 -111.76342773 115.87475586 C-111.79673843 108.62024505 -111.84777613 101.36602712 -111.90858442 94.11169833 C-111.96698649 87.10279413 -112.01346891 80.0938597 -112.05438805 73.08483315 C-112.07187367 70.11662185 -112.09328822 67.14847882 -112.11795998 64.18031883 C-112.15182154 60.02150193 -112.16816451 55.86278622 -112.18286133 51.70385742 C-112.19468948 50.4894397 -112.20651764 49.27502197 -112.21870422 48.02380371 C-112.2319341 36.60055338 -111.41417118 26.69470148 -105 17 C-104.34 17 -103.68 17 -103 17 C-103 16.34 -103 15.68 -103 15 C-91.83365046 3.58158839 -78.10337736 0.92991676 -62.8125 0.68359375 C-61.17220825 0.6524221 -61.17220825 0.6524221 -59.4987793 0.62062073 C-57.1789117 0.5774271 -54.85900334 0.53637665 -52.5390625 0.49731445 C-49.06760003 0.43864252 -45.59631797 0.37326338 -42.125 0.30664062 C-28.08141285 0.04640999 -14.04562932 -0.06769393 0 0 Z M-98 20 C-102.41243146 25.57359763 -104.24418602 30.92603329 -104.26742554 38.00714111 C-104.27595551 39.18733322 -104.28448547 40.36752533 -104.29327393 41.58348083 C-104.29236755 42.86465286 -104.29146118 44.14582489 -104.29052734 45.46582031 C-104.29651705 46.83962874 -104.30332362 48.21343381 -104.31088257 49.5872345 C-104.32850713 53.30852445 -104.33323651 57.02972234 -104.33451414 60.75105 C-104.33593858 63.07989005 -104.34021377 65.40870692 -104.34550858 67.7375412 C-104.3639988 75.87338234 -104.37218066 84.00915807 -104.37060547 92.14501953 C-104.3694051 99.71018495 -104.39048925 107.2750646 -104.4220928 114.84015775 C-104.44831156 121.34994884 -104.45897039 127.85964694 -104.45769465 134.36949039 C-104.45718656 138.25091785 -104.46278435 142.13209134 -104.48405075 146.01346588 C-104.50352741 149.66782908 -104.50349412 153.32169853 -104.48901749 156.97607994 C-104.48595569 158.94221282 -104.50254062 160.90834625 -104.51989746 162.87440491 C-104.43590705 174.8034122 -101.02900012 183.21354703 -93 192 C-82.16229755 202.58351327 -71.73593739 204.46510915 -56.90234375 204.29296875 C-55.63362427 204.28994751 -54.36490479 204.28692627 -53.05773926 204.28381348 C-48.35090924 204.26820233 -43.64419583 204.22631882 -38.9375 204.1875 C-28.398125 204.125625 -17.85875 204.06375 -7 204 C-7 177.6 -7 151.2 -7 124 C-12.28 123.67 -17.56 123.34 -23 123 C-25.28369557 97.30842485 -25.28369557 97.30842485 -22 92 C-21.00097656 92.01160156 -20.00195312 92.02320312 -18.97265625 92.03515625 C-17.03712891 92.04869141 -17.03712891 92.04869141 -15.0625 92.0625 C-13.77472656 92.07410156 -12.48695312 92.08570312 -11.16015625 92.09765625 C-8.13701597 92.36532549 -8.13701597 92.36532549 -7 91 C-6.73970663 89.62219532 -6.53330175 88.23409859 -6.3515625 86.84375 C-6.23296875 85.98523438 -6.114375 85.12671875 -5.9921875 84.2421875 C-5.75164374 82.44578621 -5.51453544 80.64892078 -5.28125 78.8515625 C-3.31730486 64.76965798 2.08803603 52.48730296 13 43 C24.13786318 36.02113082 34.48889429 33.64475655 47.5 33.6875 C48.48097656 33.67138672 49.46195313 33.65527344 50.47265625 33.63867188 C56.85478892 33.63442279 62.09465058 34.56431983 68 37 C67.07640134 44.19227891 66.14364197 51.35935803 64.875 58.5 C64.13887613 62.75571613 63.80404463 66.68898178 64 71 C63.31035156 70.77183594 62.62070313 70.54367188 61.91015625 70.30859375 C54.38415744 68.00640207 48.65338293 67.34546385 41.1875 70 C37.5747055 73.3031264 36.58662443 76.29889057 35 81 C35 84.63 35 88.26 35 92 C42.26 92 49.52 92 57 92 C57 102.56 57 113.12 57 124 C49.74 124 42.48 124 35 124 C35 150.4 35 176.8 35 204 C57.93930009 206.17236501 57.93930009 206.17236501 79.52734375 197.69140625 C89.65143863 186.06346704 91.45686212 173.6653508 91.40405273 158.66943359 C91.40977053 157.27503416 91.41674017 155.8806394 91.42485046 154.48625183 C91.44263595 150.73634179 91.44164209 146.98666757 91.43590808 143.23672819 C91.43279668 140.09311162 91.43892978 136.94953909 91.44494683 133.80592883 C91.45894071 126.38653172 91.45747215 118.9672499 91.44604492 111.54785156 C91.4345523 103.91779163 91.44867014 96.28808274 91.4754414 88.65806901 C91.49764867 82.08020551 91.50422497 75.50245181 91.49836498 68.92455351 C91.49500818 65.00746143 91.49732563 61.09059459 91.51461601 57.17353439 C91.53016521 53.49116446 91.52604247 49.80931272 91.50731087 46.12696266 C91.5019129 44.14658915 91.51607568 42.1661919 91.53100586 40.18586731 C91.45041991 30.35549611 89.62673115 21.85841986 82.77734375 14.46875 C76.94723137 9.65089889 69.70906644 7.8785853 62.30929565 7.86628723 C61.14868118 7.86202225 59.98806671 7.85775726 58.7922821 7.85336304 C57.522621 7.85381622 56.2529599 7.85426941 54.94482422 7.85473633 C53.59101773 7.85174329 52.2372121 7.84834043 50.88340759 7.84455872 C47.20746585 7.83572579 43.53154739 7.8333808 39.85559607 7.83274293 C37.55592069 7.83203163 35.25625121 7.82989572 32.9565773 7.82724571 C24.92449824 7.81799222 16.89243577 7.81391053 8.86035156 7.81469727 C1.38961114 7.81529696 -6.08105681 7.80476648 -13.55177891 7.7889536 C-19.97659458 7.77584237 -26.40138669 7.77051492 -32.82621562 7.77115268 C-36.65841205 7.77140676 -40.49054417 7.76860577 -44.3227272 7.75797462 C-47.9326236 7.74823406 -51.54239505 7.74825493 -55.15229607 7.75549126 C-57.09457383 7.75702185 -59.03685174 7.74873071 -60.97911072 7.74005127 C-74.99773691 7.78998698 -87.36660384 10.3069722 -98 20 Z " fill="#335394" transform="translate(116,9)"/>
<path d="M0 0 C0 3.66779442 -1.08386523 6.09482244 -2.4375 9.5 C-4.45592229 14.60643587 -6.10352503 18.8197187 -6.31640625 24.32421875 C-6.35830078 25.35224609 -6.40019531 26.38027344 -6.44335938 27.43945312 C-6.48267578 28.51130859 -6.52199219 29.58316406 -6.5625 30.6875 C-6.62727539 32.31268555 -6.62727539 32.31268555 -6.69335938 33.97070312 C-6.79946838 36.64700791 -6.90152361 39.32340526 -7 42 C-11.14095384 42.60911435 -15.27107169 43.16297948 -19.4375 43.5625 C-20.30246094 43.64628906 -21.16742188 43.73007813 -22.05859375 43.81640625 C-22.69925781 43.87699219 -23.33992188 43.93757813 -24 44 C-23.98839844 44.66386719 -23.97679688 45.32773438 -23.96484375 46.01171875 C-23.95582031 46.89472656 -23.94679688 47.77773437 -23.9375 48.6875 C-23.92589844 49.55761719 -23.91429688 50.42773438 -23.90234375 51.32421875 C-24 54 -24 54 -25 59 C-19.06 59.33 -13.12 59.66 -7 60 C-6.25011925 65.95986658 -5.87156839 71.71548309 -5.96240234 77.71679688 C-5.97440422 78.94530869 -5.97440422 78.94530869 -5.98664856 80.19863892 C-6.0142519 82.87210284 -6.04981833 85.54538864 -6.0859375 88.21875 C-6.10773215 90.08678805 -6.12918056 91.95483016 -6.15029907 93.82287598 C-6.19559733 97.71953563 -6.24480814 101.61612039 -6.296875 105.51269531 C-6.36346862 110.51754878 -6.42059618 115.5224581 -6.47490501 120.52745819 C-6.51762008 124.37578054 -6.56506859 128.22403302 -6.61400223 132.07228088 C-6.63694925 133.91913646 -6.65845268 135.76601054 -6.67850876 137.61289978 C-6.70714979 140.18147573 -6.74209686 142.74988786 -6.77880859 145.31835938 C-6.7861351 146.08608673 -6.79346161 146.85381409 -6.80101013 147.64480591 C-6.88570486 152.88570486 -6.88570486 152.88570486 -8 154 C-9.37041607 154.12740108 -10.74711605 154.18824301 -12.12304688 154.22119141 C-13.00407578 154.24430893 -13.88510468 154.26742645 -14.79283142 154.29124451 C-15.75838455 154.31114944 -16.72393768 154.33105438 -17.71875 154.3515625 C-19.21499657 154.38703941 -19.21499657 154.38703941 -20.74147034 154.42323303 C-23.99420867 154.49722373 -27.24702738 154.56219716 -30.5 154.625 C-32.14402298 154.65818832 -32.14402298 154.65818832 -33.82125854 154.69204712 C-46.23914878 154.93549932 -58.64776758 155.17208263 -71.0625 154.6875 C-72.48175781 154.63553467 -72.48175781 154.63553467 -73.9296875 154.58251953 C-78.91548914 154.32743635 -83.25944139 153.57589804 -88 152 C-88 151.67 -88 151.34 -88 151 C-87.39097336 151.06851669 -86.78194672 151.13703339 -86.15446472 151.20762634 C-77.79173925 152.06540456 -69.44866088 152.21909029 -61.05078125 152.31640625 C-59.71170528 152.33486259 -58.37263452 152.35370183 -57.03356934 152.3729248 C-52.12660783 152.44073193 -47.21954701 152.50119199 -42.3125 152.5625 C-25.8228125 152.7790625 -25.8228125 152.7790625 -9 153 C-9 122.64 -9 92.28 -9 61 C-14.28 61 -19.56 61 -25 61 C-26.5220959 59.4779041 -26.12959521 58.11789918 -26.1328125 56 C-26.13474609 54.7934375 -26.13474609 54.7934375 -26.13671875 53.5625 C-26.13285156 52.716875 -26.12898438 51.87125 -26.125 51 C-26.13080078 49.7315625 -26.13080078 49.7315625 -26.13671875 48.4375 C-26.13542969 47.633125 -26.13414063 46.82875 -26.1328125 46 C-26.13168457 45.2575 -26.13055664 44.515 -26.12939453 43.75 C-26 42 -26 42 -25 41 C-22.30345146 40.92680379 -19.63308542 40.90757463 -16.9375 40.9375 C-15.79958008 40.94426758 -15.79958008 40.94426758 -14.63867188 40.95117188 C-12.75908129 40.9629932 -10.87953101 40.98092922 -9 41 C-9.04640625 39.70707031 -9.0928125 38.41414063 -9.140625 37.08203125 C-9.49538393 22.97322774 -8.37452864 11.86391558 0 0 Z " fill="#264485" transform="translate(124,66)"/>
<path d="M0 0 C0.33 0 0.66 0 1 0 C1 6.27 1 12.54 1 19 C2.57652344 18.98839844 4.15304688 18.97679688 5.77734375 18.96484375 C7.83072799 18.95546757 9.8841135 18.94636718 11.9375 18.9375 C13.49887695 18.92493164 13.49887695 18.92493164 15.09179688 18.91210938 C16.08115234 18.90888672 17.07050781 18.90566406 18.08984375 18.90234375 C19.46450806 18.89448853 19.46450806 18.89448853 20.86694336 18.88647461 C23 19 23 19 24 20 C24.0983721 21.33043625 24.13078592 22.66593344 24.1328125 24 C24.13474609 25.2065625 24.13474609 25.2065625 24.13671875 26.4375 C24.13285156 27.283125 24.12898438 28.12875 24.125 29 C24.13080078 30.2684375 24.13080078 30.2684375 24.13671875 31.5625 C24.13542969 32.366875 24.13414062 33.17125 24.1328125 34 C24.13168457 34.7425 24.13055664 35.485 24.12939453 36.25 C24 38 24 38 23 39 C15.74 39 8.48 39 1 39 C1 69.36 1 99.72 1 131 C13.87 131 26.74 131 40 131 C40 131.33 40 131.66 40 132 C26.47 132.33 12.94 132.66 -1 133 C-1 101.65 -1 70.3 -1 38 C6.85171833 37.39602167 14.20093803 36.88359609 22 37 C22 31.72 22 26.44 22 21 C14.41 21 6.82 21 -1 21 C-0.67 14.07 -0.34 7.14 0 0 Z " fill="#284483" transform="translate(144,88)"/>
<path d="M0 0 C0.66 0 1.32 0 2 0 C0.9427871 2.76501836 -0.19330281 5.3711414 -1.5625 8 C-3.76025019 12.58660909 -4.12552316 16.70660295 -4.14717102 21.75280762 C-4.15432632 22.90204712 -4.16148163 24.05128662 -4.16885376 25.23535156 C-4.17154266 26.48735352 -4.17423157 27.73935547 -4.17700195 29.02929688 C-4.18327248 30.36853204 -4.1899198 31.70776549 -4.19691467 33.04699707 C-4.21789615 37.4375692 -4.22831495 41.82814142 -4.23828125 46.21875 C-4.24233171 47.73560097 -4.24644872 49.25245176 -4.25063133 50.76930237 C-4.26967397 57.90109149 -4.28390413 65.03287036 -4.2922433 72.16468 C-4.30199747 80.36915551 -4.32827301 88.57335991 -4.36874419 96.77774 C-4.39902248 103.13637999 -4.41372341 109.49494282 -4.41702431 115.85365343 C-4.41936243 119.64299099 -4.42815895 123.43203867 -4.45348549 127.22129822 C-4.47697603 130.79356103 -4.48091667 134.36534745 -4.47072411 137.93766785 C-4.47000222 139.85196045 -4.48894708 141.76623001 -4.50878906 143.68041992 C-4.42126969 158.44967818 -0.00076325 169.70601506 10.23828125 180.3203125 C14.80104936 184.59150476 19.27964932 187.50384698 25 190 C22 191 22 191 20.30859375 190.3203125 C7.70003791 182.26557745 -2.45628106 171.89604732 -6 157 C-6.43939005 152.56036412 -6.45787493 148.14329418 -6.46411133 143.68432617 C-6.47751556 142.37580185 -6.4909198 141.06727753 -6.50473022 139.71910095 C-6.54065718 136.15283196 -6.5583152 132.58669199 -6.57197404 129.02027678 C-6.58890705 125.27022826 -6.62096047 121.52030381 -6.65080261 117.77033997 C-6.69858088 111.47184423 -6.73461611 105.17336521 -6.76342773 98.87475586 C-6.79673843 91.62024505 -6.84777613 84.36602712 -6.90858442 77.11169833 C-6.96698649 70.10279413 -7.01346891 63.0938597 -7.05438805 56.08483315 C-7.07187367 53.11662185 -7.09328822 50.14847882 -7.11795998 47.18031883 C-7.15182154 43.02150193 -7.16816451 38.86278622 -7.18286133 34.70385742 C-7.19468948 33.4894397 -7.20651764 32.27502197 -7.21870422 31.02380371 C-7.2319341 19.60055338 -6.41417118 9.69470148 0 0 Z " fill="#2B488B" transform="translate(11,26)"/>
<path d="M0 0 C0.99515625 -0.02449219 1.9903125 -0.04898438 3.015625 -0.07421875 C10.09658844 -0.10195098 15.51473007 1.2782065 21.875 4.375 C20.43022893 15.74619817 18.7020447 27.05950319 16.875 38.375 C16.04097656 38.20742187 15.20695312 38.03984375 14.34765625 37.8671875 C7.62456125 36.65040742 1.31771637 35.51621893 -5.125 38.375 C-7.50607943 40.34123743 -8.68235527 42.21022996 -9.8125 45.0625 C-10.4621875 46.7021875 -10.4621875 46.7021875 -11.125 48.375 C-11.455 48.375 -11.785 48.375 -12.125 48.375 C-11.87739109 44.16564851 -11.54397739 41.89872173 -8.875 38.5625 C-3.70966398 34.45370998 0.73160999 34.09999719 7.1875 34.25 C7.92806641 34.25902344 8.66863281 34.26804688 9.43164062 34.27734375 C11.24623467 34.30075787 13.06066071 34.33662385 14.875 34.375 C14.99093506 33.60309326 15.10687012 32.83118652 15.22631836 32.03588867 C15.75229828 28.54433879 16.28234992 25.05341902 16.8125 21.5625 C17.08610352 19.74008789 17.08610352 19.74008789 17.36523438 17.88085938 C17.54248047 16.71748047 17.71972656 15.55410156 17.90234375 14.35546875 C18.06468506 13.28192139 18.22702637 12.20837402 18.39428711 11.10229492 C18.875 8.375 18.875 8.375 19.875 5.375 C12.16029639 3.51779695 4.66605515 2.97091317 -3.25 2.75 C-4.39726562 2.71132813 -5.54453125 2.67265625 -6.7265625 2.6328125 C-9.52589117 2.53950154 -12.32522936 2.45371355 -15.125 2.375 C-10.2720008 -0.44782083 -5.47835721 0.00693463 0 0 Z " fill="#264689" transform="translate(163.125,41.625)"/>
<path d="M0 0 C0.33 0 0.66 0 1 0 C0.86183041 3.64616671 0.71318466 7.29183074 0.5625 10.9375 C0.52318359 11.97841797 0.48386719 13.01933594 0.44335938 14.09179688 C0.40146484 15.08115234 0.35957031 16.07050781 0.31640625 17.08984375 C0.27974854 18.00628662 0.24309082 18.92272949 0.20532227 19.86694336 C0 22 0 22 -1 23 C-3.6986905 23.07325436 -6.36502556 23.09222351 -9.0625 23.0625 C-11.681875 23.041875 -14.30125 23.02125 -17 23 C-17 32.24 -17 41.48 -17 51 C-11.72 51 -6.44 51 -1 51 C-1.33 51.66 -1.66 52.32 -2 53 C-4.64590014 53.02684679 -7.29153096 53.04676357 -9.9375 53.0625 C-10.69224609 53.07087891 -11.44699219 53.07925781 -12.22460938 53.08789062 C-14.14994313 53.09652441 -16.07535581 53.05224333 -18 53 C-21.71398721 49.28601279 -20.13803788 36.54895864 -20.25 31.5 C-20.28867188 29.81390625 -20.28867188 29.81390625 -20.328125 28.09375 C-19.94583658 24.48931632 -19.45800062 22.68642088 -17 20 C-13.64453125 19.51171875 -13.64453125 19.51171875 -9.8125 19.6875 C-6.4403125 19.8421875 -6.4403125 19.8421875 -3 20 C-2.01 13.4 -1.02 6.8 0 0 Z " fill="#29498B" transform="translate(111,80)"/>
<path d="M0 0 C0.85916016 -0.00773437 1.71832031 -0.01546875 2.60351562 -0.0234375 C7.76624776 -0.00766139 12.04918686 0.57855507 16.9375 2.25 C17.13044408 7.07360189 16.69497614 10.74646738 14.9375 15.25 C13.56317543 11.43243176 14.25774961 8.17744671 14.9375 4.25 C13.82375 4.105625 12.71 3.96125 11.5625 3.8125 C7.9375 3.25 7.9375 3.25 5.9375 2.25 C-1.63505084 1.60867648 -8.30981653 2.52310255 -15.56640625 4.69140625 C-18.0625 5.25 -18.0625 5.25 -21.0625 4.25 C-14.61369247 -0.04920502 -7.50580357 -0.06787464 0 0 Z " fill="#274788" transform="translate(161.0625,47.75)"/>
<path d="M0 0 C0.33 0 0.66 0 1 0 C1.02683987 2.97922593 1.04676037 5.95821295 1.0625 8.9375 C1.07087891 9.78763672 1.07925781 10.63777344 1.08789062 11.51367188 C1.09272461 12.72700195 1.09272461 12.72700195 1.09765625 13.96484375 C1.10551147 15.08814087 1.10551147 15.08814087 1.11352539 16.23413086 C1 18 1 18 0 19 C-1.63472882 19.08700342 -3.27314055 19.10701063 -4.91015625 19.09765625 C-5.89951172 19.09443359 -6.88886719 19.09121094 -7.90820312 19.08789062 C-8.94912109 19.07951172 -9.99003906 19.07113281 -11.0625 19.0625 C-12.10728516 19.05798828 -13.15207031 19.05347656 -14.22851562 19.04882812 C-16.8190666 19.03699913 -19.40950559 19.02051689 -22 19 C-22 18.67 -22 18.34 -22 18 C-14.9633064 17.25084631 -8.0768299 16.89743725 -1 17 C-0.67 11.39 -0.34 5.78 0 0 Z " fill="#2B4C8D" transform="translate(167,108)"/>
<path d="" fill="#274180" transform="translate(0,0)"/>
<path d="" fill="#253D7E" transform="translate(0,0)"/>
</svg>
