<?xml version="1.0" encoding="UTF-8"?>
<svg version="1.1" xmlns="http://www.w3.org/2000/svg" width="913" height="958">
<path d="M0 0 C16.25370951 -0.00496614 32.50741691 -0.01113262 48.76112422 -0.02105743 C49.49478524 -0.02150472 50.22844626 -0.02195201 50.98433944 -0.02241286 C54.68265495 -0.02467431 58.38097044 -0.02695696 62.07928593 -0.02924516 C89.13156496 -0.04595478 116.18383231 -0.05551702 143.23611686 -0.05326843 C145.93610176 -0.05306871 148.63608667 -0.05289506 151.33607158 -0.0527404 C151.99978162 -0.05269851 152.66349166 -0.05265663 153.34731412 -0.05261348 C163.2770558 -0.05214158 173.20678639 -0.05720327 183.13652477 -0.06527168 C194.30782249 -0.07432451 205.47909509 -0.0766096 216.65039493 -0.06987122 C222.31267431 -0.06665125 227.97490526 -0.06659654 233.63717994 -0.07529789 C238.81027977 -0.08316682 243.98329209 -0.0817258 249.15638979 -0.07300549 C251.01777057 -0.07147221 252.87915794 -0.07327135 254.74053095 -0.07886244 C276.36771132 -0.13953062 296.7178866 1.67517342 313.02470455 17.42658204 C328.8909207 33.94268558 332.77701051 49.66734746 332.84054622 71.92586488 C332.85691057 73.95488316 332.87446566 75.98389213 332.89309666 78.01289088 C332.94035892 83.61486631 332.9683774 89.21679609 332.99267291 94.81891237 C333.01598349 99.6861366 333.04993279 104.55326682 333.08351704 109.42042928 C333.2059775 127.33902097 333.27824801 145.25768817 333.33720455 163.17658204 C333.33961633 163.90487523 333.34202811 164.63316843 333.34451298 165.38353112 C333.508073 215.04326034 333.54886753 264.7031098 333.57157926 314.36307135 C333.57586192 323.65682759 333.58106861 332.95058326 333.58626443 342.24433902 C333.6040387 374.23937292 333.61904664 406.2344071 333.62658462 438.22944516 C333.62705931 440.20973554 333.62753519 442.19002593 333.62801228 444.17031631 C333.62836685 445.64267563 333.62836685 445.64267563 333.62872857 447.14477958 C333.62992925 452.1142834 333.6311449 457.08378721 333.63237056 462.05329102 C333.63261071 463.03928122 333.63285086 464.02527141 333.63309829 465.04114009 C333.64105417 497.26573654 333.66467261 529.49029697 333.69692651 561.71487761 C333.7312242 596.04495232 333.750932 630.3750058 333.75422886 664.70509791 C333.75464627 668.46759644 333.7551258 672.23009495 333.75565204 675.99259347 C333.75577523 676.91856179 333.75589842 677.8445301 333.75602535 678.79855807 C333.7583486 693.63968203 333.77394929 708.480763 333.79449389 723.32187166 C333.8147391 738.1793687 333.82023373 753.03681422 333.81072325 767.89432251 C333.80551598 776.70096961 333.81135185 785.5074448 333.83325792 794.3140671 C333.84679257 800.20081328 333.84566593 806.08744145 333.83285597 811.97418888 C333.82598051 815.32152149 333.82745539 818.66825994 333.84241606 822.01560514 C333.93770785 844.74614647 332.07053916 865.93521449 315.33720455 883.17658204 C299.87752717 896.81479522 282.66330176 901.66880372 262.3527399 901.55689877 C260.99738384 901.56034136 259.6420306 901.56509422 258.28668311 901.57101974 C254.58857941 901.58343695 250.89070875 901.57742156 247.1926044 901.56818606 C243.15929161 901.56144223 239.1260173 901.57215936 235.09271285 901.5805819 C228.03240055 901.59292726 220.97215472 901.59417047 213.91183528 901.58803147 C203.41264875 901.57892683 192.91352352 901.58698333 182.41434169 901.59832271 C163.66034405 901.61797807 144.90637406 901.62033921 126.15236858 901.61512751 C109.73908133 901.61056859 93.32580501 901.61117169 76.91251811 901.61696786 C74.71002495 901.61772473 72.50753179 901.61848071 70.30503862 901.6192358 C66.98599706 901.62038101 63.6669555 901.62153089 60.34791394 901.62269504 C29.49495327 901.63339838 -1.35800376 901.63812698 -32.21096554 901.63022488 C-33.37373171 901.62992771 -34.53649788 901.62963054 -35.73449938 901.62932436 C-45.17670812 901.62687547 -54.61891682 901.62426386 -64.06112551 901.62164022 C-100.89239609 901.61153759 -137.72362108 901.6198942 -174.5548853 901.64313477 C-215.94619503 901.66921056 -257.33747731 901.68205451 -298.72879556 901.67494702 C-303.14268953 901.67423097 -307.55658351 901.67355658 -311.97047749 901.67290658 C-313.0572703 901.67273677 -314.1440631 901.67256696 -315.26378902 901.672392 C-331.66408342 901.67008972 -348.06435232 901.67806262 -364.464641 901.69119805 C-383.11703223 901.70611071 -401.76936372 901.70695048 -420.42175366 901.68912714 C-430.85645636 901.67956649 -441.29101973 901.68099425 -451.72571312 901.69836183 C-458.70112439 901.70885925 -465.67642964 901.70473974 -472.65183049 901.68888179 C-476.62257111 901.68025924 -480.59303893 901.67780247 -484.56376542 901.69315111 C-510.62572211 901.78684127 -531.58314276 899.98879516 -551.5573267 881.41486329 C-565.34159164 867.07051535 -568.82178819 848.31492631 -568.79422322 829.17839116 C-568.79587431 827.84484022 -568.79796125 826.51128977 -568.80044332 825.17774013 C-568.80600103 821.50760621 -568.8053392 817.83749567 -568.80366573 814.1673589 C-568.80293409 810.17647024 -568.80795885 806.18558813 -568.81224075 802.19470227 C-568.8198189 794.27667119 -568.82201372 786.35864685 -568.82256981 778.44061252 C-568.82348363 768.95726699 -568.83015175 759.47392769 -568.83691663 749.99058484 C-568.85297731 727.06895707 -568.85888003 704.14732996 -568.86366538 681.22569756 C-568.8660013 670.3818727 -568.86960396 659.53804836 -568.87336075 648.6942239 C-568.88619646 611.57366425 -568.89691552 574.4531049 -568.90036336 537.33254308 C-568.90058499 535.00227445 -568.90080677 532.67200583 -568.90102871 530.34173721 C-568.90124935 528.00584288 -568.90146983 525.66994856 -568.90169016 523.33405423 C-568.90213271 518.64785582 -568.90257982 513.9616574 -568.90302983 509.27545899 C-568.90313922 508.11355404 -568.90324861 506.95164909 -568.90336132 505.7545349 C-568.90699176 468.08173248 -568.92291122 430.40894932 -568.94622019 392.73615428 C-568.97081946 352.90510534 -568.98453624 313.0740674 -568.98573127 273.24301064 C-568.98590273 268.87001163 -568.98611816 264.49701261 -568.98636571 260.1240136 C-568.98642147 259.0472605 -568.98647724 257.97050739 -568.9865347 256.86112541 C-568.98768508 239.53722082 -568.99870598 222.21333598 -569.01325276 204.88943806 C-569.02762334 187.47414322 -569.03085157 170.05887369 -569.02281278 152.64357454 C-569.01835915 142.30001959 -569.02220652 131.95654638 -569.03805129 121.61300218 C-569.0478132 114.69810642 -569.04661146 107.78326782 -569.03661506 100.86837257 C-569.03123179 96.93210007 -569.03048452 92.99598434 -569.04312378 89.05972493 C-569.12281423 62.54850912 -568.3714279 38.95298396 -549.35029545 18.42658204 C-534.1002697 4.00461198 -515.87533217 0.88098367 -495.81318608 0.85773438 C-493.95343368 0.8483973 -492.09368529 0.83823087 -490.23394147 0.82731885 C-485.04624737 0.79960609 -479.85858123 0.78466976 -474.67083159 0.77190298 C-470.07677439 0.75904176 -465.48275832 0.73901406 -460.88872722 0.71907115 C-447.87252273 0.66266271 -434.85630125 0.62139656 -421.84002593 0.58640981 C-412.67773757 0.56175636 -403.51546419 0.53410457 -394.35319208 0.50401872 C-308.98991949 0.22435865 -223.62615942 0.13990728 0 0 Z M-422.66279545 150.17658204 C-423.57029545 151.02220704 -424.47779545 151.86783204 -425.41279545 152.73908204 C-440.68459609 169.28353273 -444.54370419 190.24345797 -443.79902592 212.07501954 C-443.49841781 216.71235761 -442.26529981 220.84341025 -440.66279545 225.17658204 C-440.29927983 226.23361329 -439.9357642 227.29064454 -439.56123295 228.37970704 C-435.50301694 239.63798371 -429.91047653 250.27401821 -420.66279545 258.17658204 C-419.34279545 258.17658204 -418.02279545 258.17658204 -416.66279545 258.17658204 C-416.61123295 258.92166016 -416.55967045 259.66673829 -416.50654545 260.43439454 C-414.90576226 265.63693993 -409.24584207 267.69664909 -404.67500249 270.14923829 C-394.81852245 275.18152026 -384.7929419 279.32041693 -373.66279545 280.17658204 C-372.79912358 280.24619141 -371.9354517 280.31580079 -371.04560795 280.38751954 C-349.17238697 281.23129364 -328.72229365 271.48229305 -312.7057642 257.12189454 C-297.82744083 243.13023567 -290.88922499 225.10684157 -290.26216069 205.04425782 C-289.99575409 184.32100044 -296.60213112 165.58868037 -310.66279545 150.17658204 C-311.17970952 149.56814454 -311.69662358 148.95970704 -312.2292017 148.33283204 C-323.99926853 135.35330972 -343.2377181 126.9231738 -360.5260767 125.96173829 C-384.85164538 125.20488076 -405.1340041 133.38081287 -422.66279545 150.17658204 Z M-35.10029545 346.30158204 C-35.7457935 346.62618409 -36.39129155 346.95078614 -37.05635014 347.28522462 C-40.56477112 349.13349735 -40.56477112 349.13349735 -42.5729517 352.41876954 C-42.60260014 352.99884766 -42.63224858 353.57892579 -42.66279545 354.17658204 C-44.31279545 354.17658204 -45.96279545 354.17658204 -47.66279545 354.17658204 C-47.99279545 355.16658204 -48.32279545 356.15658204 -48.66279545 357.17658204 C-50.5260767 358.17658204 -50.5260767 358.17658204 -52.97529545 359.17658204 C-67.53096659 366.18486814 -78.79387352 381.30937769 -85.66279545 395.63751954 C-86.66279545 397.17658204 -86.66279545 397.17658204 -89.66279545 398.17658204 C-89.66279545 378.70658204 -89.66279545 359.23658204 -89.66279545 339.17658204 C-131.24279545 339.17658204 -172.82279545 339.17658204 -215.66279545 339.17658204 C-215.66279545 480.41658204 -215.66279545 621.65658204 -215.66279545 767.17658204 C-172.43279545 767.17658204 -129.20279545 767.17658204 -84.66279545 767.17658204 C-84.01122644 760.66089193 -83.51969224 754.48400074 -83.54927006 747.9867627 C-83.54904678 746.68451776 -83.54904678 746.68451776 -83.54881898 745.35596484 C-83.54950773 742.47648351 -83.55732414 739.59706777 -83.5651392 736.71759766 C-83.56706063 734.64010881 -83.56852337 732.56261949 -83.56956425 730.48513001 C-83.57271704 726.02236283 -83.578974 721.55961473 -83.58763066 717.09685487 C-83.60122028 710.01507434 -83.60706248 702.93330003 -83.61177006 695.8515088 C-83.62379318 679.51987782 -83.64575294 663.18826309 -83.6679987 646.85664338 C-83.68826276 631.92385225 -83.70632898 616.99106699 -83.71621361 602.05826491 C-83.72034322 596.18451204 -83.72658616 590.31077796 -83.73796025 584.43703431 C-83.88800491 506.05516087 -83.88800491 506.05516087 -70.22529545 479.36408204 C-68.44271685 476.31926634 -68.44271685 476.31926634 -68.66279545 473.17658204 C-67.67279545 473.17658204 -66.68279545 473.17658204 -65.66279545 473.17658204 C-65.25029545 472.06283204 -64.83779545 470.94908204 -64.41279545 469.80158204 C-62.9572111 466.34976771 -62.9572111 466.34976771 -60.53779545 464.92658204 C-59.91904545 464.67908204 -59.30029545 464.43158204 -58.66279545 464.17658204 C-58.33279545 463.18658204 -58.00279545 462.19658204 -57.66279545 461.17658204 C-55.26015519 459.74814666 -52.92599827 458.50311098 -50.41279545 457.30158204 C-49.69132329 456.95079591 -48.96985112 456.60000977 -48.22651616 456.23859376 C-33.11275768 448.99557851 -20.0052832 445.82036138 -3.22529545 445.86408204 C-1.99230717 445.84796876 -0.75931889 445.83185548 0.51103267 445.81525391 C10.66603491 445.80988941 20.06938397 447.15896598 29.21220455 451.80158204 C32.94153399 453.59878422 36.15570882 454.83754184 40.33720455 455.17658204 C40.44032955 455.81595704 40.54345455 456.45533204 40.64970455 457.11408204 C40.87657955 457.79470704 41.10345455 458.47533204 41.33720455 459.17658204 C42.32720455 459.50658204 43.31720455 459.83658204 44.33720455 460.17658204 C46.67730848 463.63966689 48.43599647 467.45817275 50.33720455 471.17658204 C50.93275142 472.2709961 51.5282983 473.36541016 52.14189205 474.49298829 C56.54185546 482.79249009 59.2992279 491.00386264 61.33720455 500.17658204 C61.7377974 501.95789395 61.7377974 501.95789395 62.14648303 503.77519196 C64.69665008 516.49948254 64.81069394 529.00479737 64.84550533 541.94806641 C64.86278032 544.40213131 64.88134067 546.85618744 64.90107784 549.31023377 C64.94054562 554.55920397 64.97139332 559.80814675 64.9942213 565.05721253 C65.02733276 572.64723909 65.07755395 580.23708085 65.13192649 587.82698143 C65.21982447 600.14739719 65.29567842 612.46785457 65.36308345 624.78839844 C65.42852344 636.74252825 65.49725696 648.69662797 65.57206783 660.65070313 C65.57668824 661.38943333 65.58130866 662.12816352 65.58606909 662.88927948 C65.63660969 670.94874344 65.68851424 679.00819769 65.74210986 687.06764191 C65.7491617 688.12859216 65.7491617 688.12859216 65.75635599 689.21097574 C65.77516247 692.03739292 65.79398622 694.86380996 65.812988 697.69022584 C65.86859669 705.96627295 65.91992057 714.24232028 65.96353944 722.51843971 C65.99415857 728.30581792 66.02934421 734.09316071 66.06617412 739.8805024 C66.08041885 742.26022146 66.09292699 744.63995161 66.103623 747.01968926 C66.11833706 750.25241166 66.13901429 753.48504139 66.16120967 756.71771973 C66.16403237 757.67205698 66.16685506 758.62639423 66.1697633 759.60965079 C65.78573513 763.71848672 65.78573513 763.71848672 67.33720455 767.17658204 C69.03279157 767.27277645 70.73241294 767.29845863 72.43072566 767.29683656 C74.08616893 767.29889855 74.08616893 767.29889855 75.7750555 767.3010022 C77.6070827 767.29560929 77.6070827 767.29560929 79.47612056 767.29010743 C80.75398433 767.29025346 82.0318481 767.29039948 83.34843501 767.29054993 C86.86274045 767.29083789 90.37701205 767.28494144 93.89130959 767.27797598 C97.5601981 767.27174216 101.22908731 767.27113862 104.8979803 767.26995057 C111.8501089 767.26683734 118.80222185 767.25862406 125.75434354 767.24860108 C133.66715235 767.23743969 141.57996189 767.23192943 149.4927766 767.22690564 C165.77426176 767.21644143 182.05573116 767.19884215 198.33720455 767.17658204 C198.46966801 745.21347495 198.60011329 723.25035662 198.72835597 701.28722447 C198.78798723 691.08212517 198.84821325 680.87703011 198.90995845 670.67194337 C199.26008756 614.39342329 199.26008756 614.39342329 199.3879858 558.11408204 C199.38847926 556.9846474 199.38897273 555.85521275 199.38948116 554.69155282 C199.40204695 496.00490684 196.43430461 439.48396799 169.33720455 386.17658204 C168.01720455 386.17658204 166.69720455 386.17658204 165.33720455 386.17658204 C165.27532955 384.93908204 165.27532955 384.93908204 165.21220455 383.67658204 C163.24917717 375.82447254 156.33609416 369.78817476 150.77470455 364.17658204 C150.1282397 363.4972461 149.48177486 362.81791016 148.81572017 362.11798829 C148.18214595 361.47732423 147.54857173 360.83666016 146.8957983 360.17658204 C146.33175289 359.59908204 145.76770748 359.02158204 145.18656978 358.42658204 C142.79575758 356.81061392 141.16264283 356.94398084 138.33720455 357.17658204 C138.23480464 356.56089356 138.13240474 355.94520509 138.02690181 355.31085938 C136.86086006 351.70252769 133.44387776 350.50409137 130.27470455 348.80158204 C129.55734126 348.40874024 128.83997798 348.01589844 128.10087642 347.61115235 C121.38856679 344.03223093 114.50485121 341.25815297 107.3020483 338.83966798 C105.39918752 338.19749975 103.50849159 337.51962844 101.61845455 336.84064454 C57.69598498 321.86707537 6.19116847 325.06724392 -35.10029545 346.30158204 Z M-432.66279545 339.17658204 C-432.66279545 480.41658204 -432.66279545 621.65658204 -432.66279545 767.17658204 C-389.10279545 767.17658204 -345.54279545 767.17658204 -300.66279545 767.17658204 C-300.66279545 625.93658204 -300.66279545 484.69658204 -300.66279545 339.17658204 C-344.22279545 339.17658204 -387.78279545 339.17658204 -432.66279545 339.17658204 Z " fill="#005684" transform="translate(573.6627954542637,30.823417961597443)"/>
</svg>
