<?xml version="1.0" encoding="UTF-8"?>
<svg version="1.1" xmlns="http://www.w3.org/2000/svg" width="500" height="500">
<path d="M0 0 C0.99811707 0.00021149 1.99623413 0.00042297 3.02459717 0.00064087 C18.10885895 0.03255739 32.41732419 0.76960508 47.125 4.375 C48.38521973 4.66383057 48.38521973 4.66383057 49.67089844 4.95849609 C66.21723029 8.76587003 81.35241347 14.65317669 96.38720703 22.48046875 C98.71532982 23.67887306 101.07724527 24.80398114 103.4375 25.9375 C111.69812927 30.08843184 119.25732415 35.39026974 126.8125 40.6875 C127.74980957 41.33658325 127.74980957 41.33658325 128.70605469 41.9987793 C130.21677339 43.07299762 131.67646994 44.21829059 133.125 45.375 C133.125 46.035 133.125 46.695 133.125 47.375 C133.68703125 47.6328125 134.2490625 47.890625 134.828125 48.15625 C137.39204579 49.51669777 139.57726365 51.10288962 141.875 52.875 C142.67421875 53.4834375 143.4734375 54.091875 144.296875 54.71875 C144.90015625 55.2653125 145.5034375 55.811875 146.125 56.375 C146.125 57.035 146.125 57.695 146.125 58.375 C146.785 58.375 147.445 58.375 148.125 58.375 C148.125 59.035 148.125 59.695 148.125 60.375 C148.785 60.375 149.445 60.375 150.125 60.375 C151.75 61.75 151.75 61.75 153.125 63.375 C153.125 64.035 153.125 64.695 153.125 65.375 C153.785 65.375 154.445 65.375 155.125 65.375 C155.125 66.035 155.125 66.695 155.125 67.375 C155.785 67.375 156.445 67.375 157.125 67.375 C158.82421875 69.24609375 158.82421875 69.24609375 160.8125 71.8125 C161.51761719 72.71871094 162.22273438 73.62492187 162.94921875 74.55859375 C164.02623047 75.95271484 164.02623047 75.95271484 165.125 77.375 C166.15560547 78.66083984 166.15560547 78.66083984 167.20703125 79.97265625 C168.15642578 81.16181641 168.15642578 81.16181641 169.125 82.375 C169.99125 83.4578125 169.99125 83.4578125 170.875 84.5625 C172.125 86.375 172.125 86.375 172.125 88.375 C172.785 88.375 173.445 88.375 174.125 88.375 C174.125 89.365 174.125 90.355 174.125 91.375 C174.785 91.375 175.445 91.375 176.125 91.375 C177.92139822 93.94523129 179.57217522 96.50529546 181.1875 99.1875 C181.67629639 99.99558105 182.16509277 100.80366211 182.66870117 101.63623047 C195.07966072 122.53953573 204.79844521 146.36686265 209.125 170.375 C209.29773438 171.33148438 209.47046875 172.28796875 209.6484375 173.2734375 C212.48189293 190.2331055 212.36981209 207.23239333 212.125 224.375 C212.11774902 225.1071875 212.11049805 225.839375 212.10302734 226.59375 C211.70545935 252.46936175 203.79073013 279.41000246 192.125 302.375 C191.57070313 303.53 191.01640625 304.685 190.4453125 305.875 C187.2255508 312.55195835 183.70850194 318.89228999 179.60546875 325.0703125 C178.28568971 327.12484979 177.16679659 329.1694404 176.125 331.375 C175.465 331.375 174.805 331.375 174.125 331.375 C173.76921875 332.43847656 173.76921875 332.43847656 173.40625 333.5234375 C171.9084693 336.85691284 169.98684979 339.21639132 167.625 342 C165.30655004 344.74751375 163.12002675 347.38245988 161.125 350.375 C160.465 350.375 159.805 350.375 159.125 350.375 C158.86106445 350.96273193 158.59712891 351.55046387 158.32519531 352.15600586 C156.23100561 356.02787124 152.97890697 358.8574748 149.875 361.9375 C149.16714355 362.64261719 148.45928711 363.34773438 147.72998047 364.07421875 C143.1048833 368.60963831 138.34362734 372.87276793 133.25 376.875 C132.36779785 377.56831421 132.36779785 377.56831421 131.46777344 378.27563477 C127.40117484 381.375 127.40117484 381.375 125.125 381.375 C125.125 382.035 125.125 382.695 125.125 383.375 C123.61206055 384.61181641 123.61206055 384.61181641 121.51171875 385.9765625 C120.75826172 386.46640625 120.00480469 386.95625 119.22851562 387.4609375 C118.43123047 387.96882813 117.63394531 388.47671875 116.8125 389 C116.02681641 389.515625 115.24113281 390.03125 114.43164062 390.5625 C108.50612806 394.375 108.50612806 394.375 105.125 394.375 C105.125 395.035 105.125 395.695 105.125 396.375 C85.75536329 406.07860299 66.58954611 414.76078979 45.125 418.375 C43.78690571 418.71073124 42.45244401 419.06186159 41.125 419.4375 C28.87720964 422.5570555 16.3313601 422.72053739 3.77539062 422.69067383 C1.02433039 422.68752782 -1.72563517 422.71102038 -4.4765625 422.73632812 C-22.91425738 422.80274656 -40.40466688 420.3425734 -58.03027344 414.9375 C-59.60006341 414.45883455 -61.17820577 414.00770081 -62.7578125 413.5625 C-73.66713408 410.47561801 -83.85406998 406.06243225 -93.87890625 400.828125 C-98.02218868 398.81860601 -100.58632821 398.05517486 -105.0859375 399.16015625 C-106.31775757 399.45696289 -106.31775757 399.45696289 -107.57446289 399.75976562 C-108.45739014 399.98341797 -109.34031738 400.20707031 -110.25 400.4375 C-111.17611084 400.66501953 -112.10222168 400.89253906 -113.05639648 401.12695312 C-120.63762112 403.01061402 -128.17372792 405.05551676 -135.70166016 407.140625 C-142.64462698 409.05999913 -149.61607443 410.82908901 -156.61083984 412.54858398 C-162.87042201 414.09760964 -169.07502697 415.80606826 -175.27807617 417.56616211 C-181.1760191 419.22256385 -187.11406942 420.63303158 -193.08764648 421.98754883 C-196.84662744 422.85267216 -200.48874682 423.83878813 -204.125 425.125 C-207.46541999 426.23847333 -209.45255303 426.49301541 -212.875 426.375 C-210.83756749 414.89128948 -207.48738031 403.73553009 -204.14575195 392.57446289 C-201.34997475 383.22984968 -198.84112048 373.81426686 -196.34909058 364.38510132 C-194.36302572 356.87563752 -192.35263488 349.37954279 -190.125 341.9375 C-187.77085673 334.04334289 -187.77085673 334.04334289 -185.5 326.125 C-184.99339844 324.35382813 -184.99339844 324.35382813 -184.4765625 322.546875 C-183.23502731 316.00059856 -186.23332952 311.2420578 -189.0625 305.5 C-198.43884499 285.97304841 -205.41794155 265.83477423 -208.875 244.375 C-208.98714844 243.6938916 -209.09929687 243.0127832 -209.21484375 242.31103516 C-215.31637424 202.88497898 -209.87642204 159.20475349 -191.875 123.375 C-191.24879064 122.08912992 -190.62385345 120.80263973 -190 119.515625 C-185.64149953 110.59133215 -180.90517852 101.93700599 -175.875 93.375 C-175.215 93.375 -174.555 93.375 -173.875 93.375 C-173.6275 92.67375 -173.38 91.9725 -173.125 91.25 C-171.70319762 87.97985452 -170.00253712 85.233878 -167.875 82.375 C-167.215 82.375 -166.555 82.375 -165.875 82.375 C-165.648125 81.859375 -165.42125 81.34375 -165.1875 80.8125 C-163.39282382 77.47952995 -161.37534985 74.22796329 -158.875 71.375 C-158.215 71.375 -157.555 71.375 -156.875 71.375 C-156.875 70.715 -156.875 70.055 -156.875 69.375 C-156.215 69.375 -155.555 69.375 -154.875 69.375 C-154.875 68.715 -154.875 68.055 -154.875 67.375 C-154.215 67.375 -153.555 67.375 -152.875 67.375 C-152.648125 66.818125 -152.42125 66.26125 -152.1875 65.6875 C-150.49949964 62.71340412 -148.40823483 60.65491135 -145.875 58.375 C-145.215 58.375 -144.555 58.375 -143.875 58.375 C-143.875 57.715 -143.875 57.055 -143.875 56.375 C-143.215 56.375 -142.555 56.375 -141.875 56.375 C-141.875 55.715 -141.875 55.055 -141.875 54.375 C-141.215 54.375 -140.555 54.375 -139.875 54.375 C-139.875 53.715 -139.875 53.055 -139.875 52.375 C-138.6684375 51.9728125 -138.6684375 51.9728125 -137.4375 51.5625 C-136.591875 51.170625 -135.74625 50.77875 -134.875 50.375 C-134.545 49.385 -134.215 48.395 -133.875 47.375 C-131.3125 46.1875 -131.3125 46.1875 -128.875 45.375 C-128.875 44.715 -128.875 44.055 -128.875 43.375 C-127.23046875 41.8671875 -127.23046875 41.8671875 -125.0625 40.25 C-124.35480469 39.71117187 -123.64710937 39.17234375 -122.91796875 38.6171875 C-120.875 37.375 -120.875 37.375 -117.875 37.375 C-117.875 36.715 -117.875 36.055 -117.875 35.375 C-115.73611685 33.89376196 -113.61747953 32.5587584 -111.375 31.25 C-110.36808105 30.65493652 -110.36808105 30.65493652 -109.34082031 30.04785156 C-102.59494551 26.11666722 -95.66666512 22.59429042 -88.62792969 19.22119141 C-87.14117321 18.50348974 -85.66675742 17.76031099 -84.1953125 17.01171875 C-71.76002634 10.91326372 -57.85582522 7.08439613 -44.375 4.0625 C-43.71943115 3.91546631 -43.0638623 3.76843262 -42.38842773 3.61694336 C-40.22327761 3.16065911 -38.05379679 2.76108226 -35.875 2.375 C-34.4516333 2.11009766 -34.4516333 2.11009766 -32.99951172 1.83984375 C-22.02357564 0.01459529 -11.10150943 -0.02165623 0 0 Z M-29.875 39.375 C-30.57496094 39.49246582 -31.27492187 39.60993164 -31.99609375 39.73095703 C-47.55206772 42.3762427 -61.87420088 47.16997073 -75.875 54.375 C-76.57351074 54.73190918 -77.27202148 55.08881836 -77.99169922 55.45654297 C-87.09649163 60.16409993 -95.66841448 65.39959648 -104 71.375 C-104.78866455 71.93912598 -105.5773291 72.50325195 -106.38989258 73.08447266 C-109.21543802 75.12898073 -109.21543802 75.12898073 -111.875 77.375 C-111.875 78.035 -111.875 78.695 -111.875 79.375 C-112.431875 79.601875 -112.98875 79.82875 -113.5625 80.0625 C-116.52588161 81.74441929 -118.48904892 83.94063832 -120.875 86.375 C-121.76058594 87.23738281 -122.64617187 88.09976563 -123.55859375 88.98828125 C-131.43922323 96.57743701 -131.43922323 96.57743701 -137.875 105.375 C-137.875 106.035 -137.875 106.695 -137.875 107.375 C-138.535 107.375 -139.195 107.375 -139.875 107.375 C-141.69802781 109.51355366 -141.69802781 109.51355366 -143.5 112.1875 C-144.13164062 113.08082031 -144.76328125 113.97414063 -145.4140625 114.89453125 C-147.12874723 117.32603984 -147.12874723 117.32603984 -146.875 120.375 C-147.535 120.375 -148.195 120.375 -148.875 120.375 C-149.25011719 121.12523437 -149.62523437 121.87546875 -150.01171875 122.6484375 C-150.52347656 123.67195313 -151.03523438 124.69546875 -151.5625 125.75 C-152.11292969 126.85472656 -152.66335937 127.95945312 -153.23046875 129.09765625 C-154.199407 131.02862821 -155.17735821 132.95520089 -156.17578125 134.87109375 C-164.09655821 150.17083557 -168.28727924 165.53329691 -171.48046875 182.39453125 C-171.875 184.375 -171.875 184.375 -172.37768555 186.19238281 C-177.68236669 209.4736049 -173.71741194 237.94262203 -166.875 260.375 C-166.63910156 261.22578125 -166.40320313 262.0765625 -166.16015625 262.953125 C-162.63507897 275.55162606 -157.24421979 286.99904816 -150.875 298.375 C-150.19868925 299.70346754 -149.52755481 301.0347036 -148.875 302.375 C-148.215 302.375 -147.555 302.375 -146.875 302.375 C-146.4109375 303.8290625 -146.4109375 303.8290625 -145.9375 305.3125 C-145.17976658 308.21565792 -145.17976658 308.21565792 -143.875 309.375 C-144.80388391 319.59272299 -147.87366956 329.56170736 -150.81835938 339.34619141 C-152.72521967 345.73701945 -154.443787 352.17145889 -156.125 358.625 C-156.38321533 359.6135498 -156.64143066 360.60209961 -156.9074707 361.62060547 C-158.00446383 365.85880536 -159.04565478 370.07504615 -159.875 374.375 C-151.34631541 372.79826839 -143.07363341 370.95083142 -134.75390625 368.48046875 C-129.21691519 366.86557414 -123.60372499 365.54026928 -118.00195312 364.17163086 C-113.67370352 363.10581189 -109.42236413 361.96311029 -105.1875 360.5625 C-99.58349021 358.8871754 -94.76431042 357.83251775 -89.39453125 360.69921875 C-87.56181624 361.90388371 -85.74360481 363.13079447 -83.9375 364.375 C-50.79687864 386.01785477 -4.39968249 391.0547778 33.7265625 383.26953125 C47.49971035 380.30940533 60.41477717 376.51718242 73.125 370.375 C73.71796875 370.09672363 74.3109375 369.81844727 74.921875 369.53173828 C84.21120711 365.16792348 92.77077021 360.22112068 101.2109375 354.37890625 C104.125 352.375 104.125 352.375 106.125 351.375 C106.125 350.715 106.125 350.055 106.125 349.375 C106.66640625 349.1378125 107.2078125 348.900625 107.765625 348.65625 C110.75750137 347.03152243 113.23659399 345.0248123 115.875 342.875 C116.85984375 342.0809375 117.8446875 341.286875 118.859375 340.46875 C119.60703125 339.7778125 120.3546875 339.086875 121.125 338.375 C121.125 337.715 121.125 337.055 121.125 336.375 C121.785 336.375 122.445 336.375 123.125 336.375 C123.125 335.715 123.125 335.055 123.125 334.375 C123.785 334.375 124.445 334.375 125.125 334.375 C125.125 333.715 125.125 333.055 125.125 332.375 C125.785 332.375 126.445 332.375 127.125 332.375 C128.58417963 330.78505885 129.96749355 329.12512428 131.3125 327.4375 C132.50746094 325.94089844 132.50746094 325.94089844 133.7265625 324.4140625 C134.51804687 323.41117187 135.30953125 322.40828125 136.125 321.375 C137.18847656 320.05628906 137.18847656 320.05628906 138.2734375 318.7109375 C141.74638791 314.96304807 141.74638791 314.96304807 143.125 310.375 C143.785 310.375 144.445 310.375 145.125 310.375 C145.785 308.395 146.445 306.415 147.125 304.375 C147.785 304.375 148.445 304.375 149.125 304.375 C158.24363037 287.69972687 166.78103646 270.98209272 171.125 252.375 C171.41914795 251.12879883 171.41914795 251.12879883 171.71923828 249.85742188 C174.66779641 236.75164757 175.51436356 223.82086145 175.5625 210.4375 C175.5686734 209.71395325 175.5748468 208.99040649 175.58120728 208.24493408 C175.72954282 181.25706317 168.23571303 154.38765331 155.76171875 130.5703125 C154.125 127.375 154.125 127.375 153.125 124.375 C152.465 124.375 151.805 124.375 151.125 124.375 C150.89683594 123.53195313 150.66867187 122.68890625 150.43359375 121.8203125 C148.89004174 117.75639348 146.76774956 114.71267257 144.1875 111.25 C143.74470703 110.64285156 143.30191406 110.03570312 142.84570312 109.41015625 C141.99261971 108.24304661 141.13430926 107.07973384 140.27001953 105.92089844 C139.30109661 104.61274919 138.36367147 103.28135948 137.43359375 101.9453125 C137.00175781 101.42710937 136.56992187 100.90890625 136.125 100.375 C135.465 100.375 134.805 100.375 134.125 100.375 C133.87492187 99.80910156 133.62484375 99.24320313 133.3671875 98.66015625 C127.49069615 87.84962971 114.4789314 76.90247849 104.125 70.375 C103.465 70.375 102.805 70.375 102.125 70.375 C102.125 69.715 102.125 69.055 102.125 68.375 C101.135 68.375 100.145 68.375 99.125 68.375 C99.125 67.715 99.125 67.055 99.125 66.375 C96.30990007 64.0976499 96.30990007 64.0976499 93.125 64.375 C93.125 63.715 93.125 63.055 93.125 62.375 C54.48822659 40.75442213 13.97625689 31.73343245 -29.875 39.375 Z " fill="#1D9F13" transform="translate(249.875,36.625)"/>
<path d="M0 0 C0.83080078 -0.00128906 1.66160156 -0.00257813 2.51757812 -0.00390625 C3.80631836 0.00189453 3.80631836 0.00189453 5.12109375 0.0078125 C6.41563477 0.00201172 6.41563477 0.00201172 7.73632812 -0.00390625 C8.56583984 -0.00261719 9.39535156 -0.00132812 10.25 0 C11.00482666 0.00112793 11.75965332 0.00225586 12.53735352 0.00341797 C14.55859375 0.1328125 14.55859375 0.1328125 17.55859375 1.1328125 C17.55859375 1.7928125 17.55859375 2.4528125 17.55859375 3.1328125 C18.21859375 3.1328125 18.87859375 3.1328125 19.55859375 3.1328125 C24.19828404 13.35000282 28.66509757 23.60884727 32.7434082 34.06469727 C34.15635843 37.68069931 35.5736169 41.25604114 37.27734375 44.74609375 C41.15974775 52.87229574 41.15974775 52.87229574 39.43359375 58.1953125 C38.83632305 59.52066112 38.21421754 60.83533853 37.55859375 62.1328125 C37.22859375 63.1228125 36.89859375 64.1128125 36.55859375 65.1328125 C35.89859375 65.1328125 35.23859375 65.1328125 34.55859375 65.1328125 C34.33171875 65.8340625 34.10484375 66.5353125 33.87109375 67.2578125 C32.22018087 70.87409785 30.26771025 73.22051226 27.55859375 76.1328125 C26.89859375 76.1328125 26.23859375 76.1328125 25.55859375 76.1328125 C25.55859375 76.7928125 25.55859375 77.4528125 25.55859375 78.1328125 C24.89859375 78.1328125 24.23859375 78.1328125 23.55859375 78.1328125 C22.21869594 81.70587331 22.56810492 83.15679719 23.99609375 86.7578125 C27.52542518 93.23850123 32.101192 99.17625101 36.80859375 104.83984375 C38.55859375 107.1328125 38.55859375 107.1328125 38.55859375 109.1328125 C39.21859375 109.1328125 39.87859375 109.1328125 40.55859375 109.1328125 C42.07421875 110.70703125 42.07421875 110.70703125 43.80859375 112.8203125 C46.05935103 115.48630383 48.2590892 117.84291341 50.99609375 120.0078125 C52.26453125 121.0596875 52.26453125 121.0596875 53.55859375 122.1328125 C53.55859375 122.7928125 53.55859375 123.4528125 53.55859375 124.1328125 C54.21859375 124.1328125 54.87859375 124.1328125 55.55859375 124.1328125 C55.55859375 124.7928125 55.55859375 125.4528125 55.55859375 126.1328125 C56.11546875 126.4009375 56.67234375 126.6690625 57.24609375 126.9453125 C59.77084709 128.24180746 62.19573859 129.55757573 64.55859375 131.1328125 C64.55859375 131.7928125 64.55859375 132.4528125 64.55859375 133.1328125 C65.30109375 133.4215625 66.04359375 133.7103125 66.80859375 134.0078125 C69.12599172 134.95583894 71.3377649 135.98127161 73.55859375 137.1328125 C73.55859375 137.7928125 73.55859375 138.4528125 73.55859375 139.1328125 C74.82703125 139.5040625 74.82703125 139.5040625 76.12109375 139.8828125 C79.19637915 141.0010981 81.76602397 142.3942648 84.57421875 144.046875 C90.27634262 147.16732862 97.04382111 150.7307756 103.55859375 149.1328125 C105.65789399 146.91783653 107.37229589 144.63102992 109.078125 142.1015625 C109.56667969 141.451875 110.05523437 140.8021875 110.55859375 140.1328125 C111.21859375 140.1328125 111.87859375 140.1328125 112.55859375 140.1328125 C113.21859375 138.4828125 113.87859375 136.8328125 114.55859375 135.1328125 C115.21859375 135.1328125 115.87859375 135.1328125 116.55859375 135.1328125 C116.82671875 134.5759375 117.09484375 134.0190625 117.37109375 133.4453125 C118.66758871 130.92055916 119.98335698 128.49566766 121.55859375 126.1328125 C122.21859375 126.1328125 122.87859375 126.1328125 123.55859375 126.1328125 C123.55859375 125.4728125 123.55859375 124.8128125 123.55859375 124.1328125 C127.84168921 121.99126477 133.60867574 123.49105248 137.99316406 124.93408203 C140.42892846 125.95193049 142.80613263 127.0479817 145.18359375 128.1953125 C146.47293823 128.79714355 146.47293823 128.79714355 147.78833008 129.41113281 C150.38799423 130.6327515 152.97492021 131.87777092 155.55859375 133.1328125 C156.32703613 133.5045459 157.09547852 133.8762793 157.88720703 134.25927734 C162.47646817 136.49043617 167.02259493 138.79546317 171.55859375 141.1328125 C172.52152344 141.60589844 173.48445312 142.07898438 174.4765625 142.56640625 C177.68416576 144.20335481 180.02226061 145.41082559 182.18359375 148.3203125 C183.37922636 157.28755707 180.54689193 166.45432863 178.55859375 175.1328125 C177.89859375 175.1328125 177.23859375 175.1328125 176.55859375 175.1328125 C176.47609375 175.6896875 176.39359375 176.2465625 176.30859375 176.8203125 C174.33550812 182.9039932 168.78999645 186.8377082 163.55859375 190.1328125 C162.89859375 190.1328125 162.23859375 190.1328125 161.55859375 190.1328125 C161.55859375 190.7928125 161.55859375 191.4528125 161.55859375 192.1328125 C159.8300903 192.92592617 158.10076021 193.7172384 156.37109375 194.5078125 C155.40816406 194.94867188 154.44523438 195.38953125 153.453125 195.84375 C132.25588774 205.28381518 108.35949064 198.42250254 87.66992188 190.6237793 C72.42689119 184.66510662 56.11809971 176.66390267 43.55859375 166.1328125 C43.55859375 165.4728125 43.55859375 164.8128125 43.55859375 164.1328125 C42.79546875 163.8440625 42.03234375 163.5553125 41.24609375 163.2578125 C38.55859375 162.1328125 38.55859375 162.1328125 35.55859375 160.1328125 C35.55859375 159.4728125 35.55859375 158.8128125 35.55859375 158.1328125 C34.96981445 157.86404297 34.38103516 157.59527344 33.77441406 157.31835938 C30.11082951 155.3582044 27.32436933 152.4585697 24.30859375 149.6328125 C23.65890625 149.03855469 23.00921875 148.44429687 22.33984375 147.83203125 C21.72625 147.26097656 21.11265625 146.68992187 20.48046875 146.1015625 C19.63887207 145.31942383 19.63887207 145.31942383 18.78027344 144.52148438 C17.55859375 143.1328125 17.55859375 143.1328125 17.55859375 141.1328125 C16.89859375 141.1328125 16.23859375 141.1328125 15.55859375 141.1328125 C15.55859375 140.4728125 15.55859375 139.8128125 15.55859375 139.1328125 C14.89859375 139.1328125 14.23859375 139.1328125 13.55859375 139.1328125 C12.05078125 137.671875 12.05078125 137.671875 10.43359375 135.7578125 C9.89476562 135.13132812 9.3559375 134.50484375 8.80078125 133.859375 C7.55859375 132.1328125 7.55859375 132.1328125 7.55859375 130.1328125 C6.89859375 130.1328125 6.23859375 130.1328125 5.55859375 130.1328125 C3.83203125 128.234375 3.83203125 128.234375 1.93359375 125.7578125 C1.30195313 124.94570313 0.6703125 124.13359375 0.01953125 123.296875 C-1.44140625 121.1328125 -1.44140625 121.1328125 -1.44140625 119.1328125 C-2.10140625 119.1328125 -2.76140625 119.1328125 -3.44140625 119.1328125 C-5.07570376 117.0383157 -6.58307859 114.95499159 -8.06640625 112.7578125 C-8.48664063 112.15453125 -8.906875 111.55125 -9.33984375 110.9296875 C-12.44140625 106.39818385 -12.44140625 106.39818385 -12.44140625 104.1328125 C-13.10140625 104.1328125 -13.76140625 104.1328125 -14.44140625 104.1328125 C-15.96391714 101.93126176 -17.34313747 99.75136327 -18.69140625 97.4453125 C-19.09254639 96.76339844 -19.49368652 96.08148438 -19.90698242 95.37890625 C-31.03241261 76.18313493 -37.53569251 55.4039347 -32.09228516 33.24462891 C-31.0483049 29.85737115 -29.58168591 26.90631541 -27.94140625 23.7578125 C-27.63332031 23.15582031 -27.32523438 22.55382812 -27.0078125 21.93359375 C-25.6071405 19.22242177 -24.1360241 16.67473928 -22.44140625 14.1328125 C-21.78140625 14.1328125 -21.12140625 14.1328125 -20.44140625 14.1328125 C-20.21453125 13.5965625 -19.98765625 13.0603125 -19.75390625 12.5078125 C-16.68495215 6.95446699 -12.76825386 2.43892433 -6.56665039 0.56689453 C-4.32224192 0.10847313 -2.28945128 0.003416 0 0 Z " fill="#1D9E13" transform="translate(176.44140625,149.8671875)"/>
</svg>
